<svg xmlns="http://www.w3.org/2000/svg" viewBox="0 0 200 57.4"><path d="M121.8 32.3s-.4-1.5-.4-2.6v-17h6.8v33l-22-18.2c-1-1-1.7-2-1.7-2s.3 1.2.3 2.2V45h-7V12l21.7 18c1 .8 2 2.3 2 2.3m62-19.6C194.3 12.7 197 17 197 23c0 4.5-3.2 9-9.8 9.4h-.7s.6 0 1.3.7l12 11.7h-9.3l-16.7-17h8.3c7.6 0 7.8-4 8-5 0-2.5-.8-4.5-6.5-4.5H174v26.5h-7v-32h16.6zm-52.3 16.5c0-13.5 11.3-17 20.8-17 3.8 0 7 .3 10.7 1v7c-2-.7-6-2-10.7-2-9 0-13.4 3.4-13.4 11 0 6.2 4.7 10 13.4 10 4.6 0 9.2-1 11.4-1.8V44c-3.5.8-7.6 1.3-11.4 1.3-10 0-20.7-5-20.7-16m-77-15.8l6.8 6.3-.5.3c-.4.3-1 .5-1.4 1-1 .7-2.5 2-4.3 4l-13 13.7C39.4 41 37.2 43 35 44l-6.6-6.4.6-.3c.4-.2 1-.5 1.4-1 1-.6 2.6-1.8 4.4-3.8l13-13.8c2.2-2.3 4.5-4.2 6.6-5.2"/><path d="M28.6 46.8c3 0 5.6-.6 7.5-1.5 1-.5 2-1.2 3-2 1.2-.8 2.6-2 4-3.4L56 26c3.2-3.5 5.2-4.5 6.4-5l6.7 6.4-18 19c-1 1.3-2.3 2.5-3 3.3-1 .6-2.3 1.7-3 2.2-4 2.8-9 5-16 5-16 .2-29-12.8-29-27.7C0 11 14.5 0 27.7 0c4 0 7.3.7 10 1.6 2.2.8 4 1.8 5.3 2.4-1.5 1-3 2.4-5.4 5L35 12c-.7-.4-3.5-1.3-7-1.2-8.4.2-17.7 7-17.4 18.4.3 10.5 9 17.6 18 17.6"/><path d="M53.2 12.2c-.8.4-2 1.2-3 2s-2.5 2-3.7 3.3l-13 13.8c-3.4 3.4-5.4 4.5-6.6 5L20 29.8l18-19.3 3.2-3.2c.8-.7 2-1.8 2.8-2.3 4-3 9.2-5.2 16.3-5.2 16 0 28.8 13 28.8 28 0 18.5-14.5 29.3-27.7 29.3-4 0-7.3-.6-10-1.5-2.2-.8-4-1.7-5.3-2.4 1.6-1 3-2.3 5.4-5l2.7-3c.7.3 3.4 1.3 7 1.2 8.3-.3 17.6-7.2 17.3-18.4-.4-10.5-9-17.7-18-17.7-3 0-5.7.6-7.5 1.5"/></svg>