<svg xmlns="http://www.w3.org/2000/svg" viewBox="0 0 200 57.42"><path d="M121.8 32.27s-.4-1.47-.4-2.56v-17h6.84v32.9l-21.9-18.1c-1.16-1-1.85-2.1-1.85-2.1s.3 1.3.3 2.3v17.2h-6.9V12.1l21.6 17.75c1.13.95 2.1 2.45 2.1 2.45m61.9-19.63c10.84 0 13.6 4.28 13.6 10.42 0 4.4-3.27 8.8-9.88 9.3h-.74s.64.1 1.3.7l12 11.6h-9.27l-16.73-17h8.3c7.5 0 7.7-3.95 7.8-4.9.12-2.6-.7-4.6-6.4-4.6H174v26.5h-7v-32h16.65zM131.2 29.2c0-13.47 11.3-17 20.76-17 3.8 0 7.14.33 10.7 1.1v6.8c-2.05-.64-6.1-2-10.7-2-9 0-13.35 3.48-13.35 11.07 0 6.22 4.7 10.18 13.4 10.18 4.6 0 9.2-1.1 11.4-1.9v6.6c-3.5.77-7.6 1.23-11.4 1.23-10.1 0-20.7-4.92-20.7-16.1m-76.9-15.7l6.66 6.3-.6.3c-.4.2-.85.47-1.4.86-1.1.8-2.53 2-4.37 4l-13 13.76c-2.25 2.35-4.5 4.2-6.65 5.2l-6.67-6.3.65-.3c.4-.2.85-.5 1.4-.86 1.1-.76 2.54-1.96 4.37-3.94l13-13.8c2.24-2.34 4.5-4.23 6.63-5.22"/><path d="M28.58 46.8c2.95 0 5.66-.58 7.5-1.53.83-.44 2.03-1.2 3.06-2 1.03-.8 2.5-2.05 3.72-3.36L55.9 26.2c3.3-3.46 5.27-4.53 6.47-4.95l6.7 6.34L51 46.7c-1.13 1.23-2.32 2.4-3.13 3.15-.78.72-2.12 1.8-2.8 2.3-3.93 2.87-9.16 5.2-16.2 5.2C12.9 57.42 0 44.42 0 29.47 0 10.9 14.5.14 27.7.14 31.75 0 35 .7 37.57 1.57c2.37.8 4.16 1.78 5.46 2.44C41.5 5 40 6.4 37.56 9l-2.68 2.87c-.62-.23-3.35-1.2-6.86-1.08-8.47.2-17.73 7.1-17.4 18.4.3 10.5 9 17.6 17.96 17.6"/><path d="M53.24 12.15c-.84.44-2.04 1.2-3.08 2-1.02.8-2.47 2.05-3.7 3.35L33.4 31.26c-3.28 3.46-5.26 4.53-6.46 4.95l-6.7-6.3L38.3 10.7c1.14-1.23 2.33-2.4 3.15-3.16.78-.74 2.1-1.8 2.8-2.3C48.18 2.3 53.42 0 60.45 0 76.4 0 89.3 13 89.3 27.95c0 18.56-14.5 29.32-27.7 29.32-4.04.12-7.3-.56-9.85-1.44-2.38-.8-4.18-1.78-5.48-2.44 1.62-1.1 3-2.3 5.48-5l2.68-2.9c.62.2 3.35 1.2 6.86 1.1 8.4-.3 17.7-7.2 17.4-18.4-.4-10.5-9-17.7-18-17.7-3 0-5.7.6-7.5 1.5"/></svg>