<?xml version="1.0" standalone="no"?>
<!DOCTYPE svg PUBLIC "-//W3C//DTD SVG 20010904//EN"
 "http://www.w3.org/TR/2001/REC-SVG-20010904/DTD/svg10.dtd">
<svg version="1.0" xmlns="http://www.w3.org/2000/svg"
 width="700.000000pt" height="700.000000pt" viewBox="0 0 700.000000 700.000000"
 preserveAspectRatio="xMidYMid meet">
<metadata>
Created by potrace 1.11, written by Peter Selinger 2001-2013
</metadata>
<g transform="translate(0.000000,700.000000) scale(0.100000,-0.100000)"
fill="#000000" stroke="none">
<path d="M5135 3809 c-421 -62 -768 -440 -900 -981 -77 -317 -85 -789 -19
-1147 130 -705 564 -1126 1159 -1125 141 1 215 12 340 51 266 84 462 256 598
528 81 161 113 282 123 466 l7 116 -84 6 c-46 4 -163 9 -259 13 l-175 7 -29
-119 c-37 -149 -88 -253 -173 -344 -112 -120 -201 -160 -363 -160 -205 1 -341
73 -454 244 -199 300 -247 928 -104 1376 86 272 222 420 443 486 141 42 333
15 445 -63 75 -53 120 -122 194 -303 l64 -155 251 -3 252 -2 -6 47 c-50 355
-152 580 -347 769 -136 132 -264 207 -439 258 -148 42 -369 57 -524 35z"/>
<path d="M3160 2673 c0 -610 -5 -1151 -10 -1204 -20 -208 -94 -300 -265 -330
-80 -14 -154 -7 -232 23 -74 27 -160 112 -229 225 l-50 81 -260 -157 c-189
-115 -259 -162 -258 -175 3 -33 99 -178 168 -252 207 -225 456 -327 801 -328
167 0 257 12 390 55 163 52 295 141 392 263 114 145 176 326 193 565 6 76 10
620 10 1239 l0 1102 -325 0 -325 0 0 -1107z"/>
</g>
</svg>
