<svg xmlns="http://www.w3.org/2000/svg">
  <symbol id="biteable" viewBox="0 0 336 424">
    <path
      d="M57.8,423.38c-6.954,0.001 -12.88,-5.247 -13.72,-12.15l-44,-395.95c-0.052,-0.488 -0.079,-0.979 -0.08,-1.47c-0,-7.568 6.222,-13.799 13.79,-13.81l154.89,0c7.576,0 13.81,6.234 13.81,13.81l-0,409.57l-124.75,0"
    />
    <path
      d="M182.76,116.92l0.01,0c84.059,0 153.23,69.171 153.23,153.23c0,84.059 -69.171,153.23 -153.23,153.23c-84.059,0 -153.23,-69.171 -153.23,-153.23l0,-0.01c0,-84.054 69.166,-153.22 153.22,-153.22"
      fill="#fff"
    />
    <path
      d="M57.82,423.38c-6.954,0.001 -12.88,-5.247 -13.72,-12.15l-44,-395.95c-0.052,-0.488 -0.079,-0.979 -0.08,-1.47c0,-7.568 6.222,-13.799 13.79,-13.81l154.89,0c7.576,0 13.81,6.234 13.81,13.81l-0,409.57l-124.75,0"
      fill="url(#biteable-gradient)"
    />
    <path
      d="M182.76,116.92l0.01,0c84.059,0 153.23,69.171 153.23,153.23c0,84.059 -69.171,153.23 -153.23,153.23c-84.059,0 -153.23,-69.171 -153.23,-153.23l0,-0.01c0,-84.054 69.166,-153.22 153.22,-153.22"
      fill="url(#biteable-gradient)"
      style="mix-blend-mode: multiply"
    />
  </symbol>
  <symbol id="kpv-labs" viewBox="0 0 97 22">
    <path
      d="M30.695 1.376a.519.519 0 0 1 .498-.763h3.9a.576.576 0 0 1 .497.323l4.837 10.686h.175L45.437.936a.576.576 0 0 1 .498-.323h3.9a.52.52 0 0 1 .5.763l-9.206 19.702a.562.562 0 0 1-.498.322h-.296a.56.56 0 0 1-.498-.322L30.695 1.376Zm42.61-1.26A.205.205 0 0 1 73.452 0h.059c.065.013.12.056.147.116l8.854 20.787a.121.121 0 0 1-.087.175l-.264.088c-.087.028-.118-.03-.147-.088l-2.61-6.113h-11.99l-2.639 6.113c-.029.059-.06.116-.147.088l-.264-.088a.121.121 0 0 1-.087-.175L73.305.116ZM52.772.819c0-.112.092-.204.204-.204h.116a.205.205 0 0 1 .175.204v19.768h10.232c.112 0 .204.091.204.203v.117a.205.205 0 0 1-.204.204H52.976a.205.205 0 0 1-.204-.204V.82ZM0 1.316v-.01C0 .926.313.613.694.613h3.44c.385.006.699.32.705.703V9.01L11.357.907a.874.874 0 0 1 .546-.294h3.694a.68.68 0 0 1 .665.677c0 .147-.048.29-.136.408l-6.861 8.577 7.475 9.72a.693.693 0 0 1 .127.398.69.69 0 0 1-.684.687h-4.045a.803.803 0 0 1-.528-.204l-6.771-9.195v8.725a.718.718 0 0 1-.704.703H.694A.696.696 0 0 1 0 20.416v-19.1ZM83.055.82c0-.112.092-.204.204-.204h6.04c3.673 0 6.156 1.844 6.156 5.183 0 2.4-1.465 4.076-3.724 4.742 2.61.497 4.369 2.138 4.369 5.065 0 3.278-2.698 5.502-6.53 5.502h-6.31a.205.205 0 0 1-.205-.204V.82Zm-65.523.35a.56.56 0 0 1 .557-.556h7.067c3.606 0 6.568 2.929 6.568 6.47 0 3.59-2.937 6.553-6.531 6.587h-3.088v6.88a.58.58 0 0 1-.557.557h-3.457a.56.56 0 0 1-.557-.556V1.169h-.002Zm66.056 9.721v9.69h5.975c3.578 0 6.01-1.99 6.01-4.975 0-3.252-2.375-4.715-5.659-4.715h-6.326Zm-4.42 3.571-5.687-13.4-5.835 13.41H79.17v-.01Zm4.42-13.32v9.222h5.771c3.255 0 5.572-1.697 5.572-4.567 0-3.016-2.257-4.655-5.629-4.655h-5.714ZM24.891 9.397h.014a2.311 2.311 0 0 0 2.302-2.3v-.013c0-1.223-1.055-2.167-2.316-2.167h-2.786v4.484h2.786v-.004Z"
    />
  </symbol>
  <symbol id="ncr" viewBox="0 0 303 87">
    <path
      fill="#4fbe37"
      d="M43.184 70.754c4.455 0 8.545-.886 11.323-2.325 1.268-.664 3.078-1.808 4.64-3.017 1.554-1.214 3.749-3.099 5.613-5.08L84.47 39.55c4.967-5.24 7.955-6.855 9.765-7.491l10.11 9.577c-2.11 2.26-27.267 29.067-27.267 29.067-1.72 1.852-3.525 3.638-4.752 4.767-1.177 1.091-3.199 2.708-4.242 3.473-5.915 4.34-13.82 7.857-24.464 7.857C19.508 86.799 0 67.159 0 44.547 0 16.49 21.908.215 41.864.215c6.112-.18 11.023.846 14.898 2.165 3.589 1.222 6.298 2.697 8.26 3.7-2.32 1.49-4.565 3.516-8.275 7.478l-4.039 4.343c-.932-.356-5.06-1.793-10.364-1.636-12.798.38-26.802 10.766-26.298 27.794.47 15.928 13.593 26.695 27.138 26.695Zm37.265-52.382c-1.274.66-3.086 1.802-4.647 3.016-1.554 1.208-3.748 3.096-5.614 5.075L50.484 47.249c-4.97 5.238-7.958 6.852-9.768 7.49l-10.11-9.575c2.112-2.26 27.266-29.067 27.266-29.067a97.176 97.176 0 0 1 4.753-4.77c1.178-1.09 3.2-2.706 4.245-3.473C72.78 3.517 80.696 0 91.338 0c24.115 0 43.612 19.636 43.612 42.247 0 28.06-21.905 44.332-41.863 44.332-6.112.184-11.023-.847-14.9-2.168-3.594-1.221-6.31-2.701-8.272-3.704 2.453-1.653 4.554-3.474 8.288-7.463l4.04-4.346c.932.352 5.061 1.793 10.362 1.638 12.8-.38 26.807-10.771 26.3-27.801-.472-15.923-13.601-26.69-27.143-26.69-4.458 0-8.537.883-11.313 2.328ZM184.043 48.79s-.607-2.228-.607-3.877v-25.8h10.332v49.699l-33.07-27.395c-1.768-1.508-2.812-3.189-2.812-3.189s.52 1.852.52 3.457l-.01 26.004h-10.33V18.184l32.765 26.849c1.753 1.489 3.212 3.757 3.212 3.757Zm14.37-4.695c0-20.352 17.028-25.694 31.337-25.694 5.73 0 10.808.511 16.14 1.642l.018 10.318c-3.072-.939-9.242-3.01-16.158-3.01-13.564 0-20.152 5.271-20.152 16.744 0 9.397 7.096 15.386 20.152 15.386 6.916 0 13.852-1.647 17.202-2.888l-.017 10.012c-5.333 1.128-11.456 1.825-17.185 1.825-15.285 0-31.337-7.433-31.337-24.335Zm64.738-1.848V67.69h-10.74V19.113h25.162c16.361 0 20.556 6.457 20.556 15.74 0 6.732-4.95 13.316-14.935 14.1l-1.092.049s.963.173 1.972 1.148l18.125 17.54h-14.007l-25.041-25.443v-.26h12.344c11.28 0 11.605-5.948 11.689-7.454.21-3.852-1.024-6.943-9.633-6.943h-14.4v14.397h-.256l.256.26ZM82.178 20.362l10.074 9.493c-.27.122-.587.274-.962.462-.578.3-1.276.708-2.111 1.283-1.657 1.149-3.827 2.967-6.595 5.963L62.9 58.403c-3.378 3.567-6.809 6.395-9.998 7.887L42.83 56.797c.273-.126.593-.272.958-.468a17.667 17.667 0 0 0 2.109-1.28c1.657-1.147 3.83-2.962 6.594-5.955l19.683-20.812c3.38-3.564 6.815-6.426 10.004-7.92Z"
    />
  </symbol>
  <symbol id="particle-analytics" viewBox="0 0 256 256">
    <path
      fill="#f60"
      d="M114.625 202.913c3.18-.57 6.53 1.13 7.92 4.047 1.248 2.503.9 5.58-.807 7.78-1.658 2.188-4.558 3.283-7.248 2.733-2.62-.505-4.867-2.445-5.655-5.013-.832-2.497-.168-5.34 1.608-7.267 1.094-1.208 2.584-1.986 4.182-2.28zm19.76-8.958c4.535-.92 9.455 1.028 12.007 4.91 1.806 2.52 2.38 5.883 1.743 8.89-.912 4.607-4.692 8.458-9.385 9.15-5.022.928-10.325-1.768-12.552-6.352-2.07-4.08-1.313-9.258 1.637-12.708 1.635-2.07 3.987-3.36 6.55-3.89zm-35.013 7.985c2.616-.708 5.508.495 6.798 2.883 1.43 2.495.745 5.832-1.517 7.59-1.703 1.37-4.105 1.669-6.103.792-1.903-.795-3.282-2.655-3.543-4.695-.394-2.925 1.5-5.827 4.365-6.57zm60.751-13.525c3.81-.497 7.747 1.063 10.147 4.07 1.813 2.19 2.645 5.21 2.375 8.023-.245 2.775-1.565 5.4-3.602 7.289-2.285 2.078-5.48 3.081-8.545 2.765-3.638-.327-7.073-2.547-8.78-5.787-1.713-3.075-1.755-6.89-.253-10.058a11.034 11.034 0 0 1 8.658-6.302zm-76-5.47c3.097-.61 6.41.115 8.957 1.975 2.427 1.762 4.085 4.56 4.483 7.532.592 4.163-1.248 8.498-4.708 10.901-3.912 2.717-9.415 2.599-13.25-.203a11.509 11.509 0 0 1-3.945-5.347c-.925-2.625-.81-5.563.263-8.125 1.417-3.46 4.524-6.025 8.2-6.733zm25.677-4.378c4.362-.779 9.028 1.263 11.31 5.078a10.998 10.998 0 0 1 1.295 8.475c-.957 3.965-4.265 7.262-8.277 8.067-2.82.65-5.908.085-8.343-1.472-3.278-2.045-5.355-5.835-5.08-9.718.12-3.172 1.683-6.162 4.1-8.192 1.447-1.177 3.167-1.902 4.995-2.238zm70.573-8.894c3.157-.395 6.415.34 9.03 2.167 4.02 2.715 6.282 7.82 5.315 12.613a12.943 12.943 0 0 1-3.848 7.167c-1.805 1.853-4.335 2.943-6.862 3.338-5.371.802-11.015-2.218-13.361-7.105-1.162-2.493-1.615-5.42-.949-8.11a12.811 12.811 0 0 1 3.935-6.858c1.812-1.775 4.252-2.835 6.74-3.212zm-35.083 14.132c1.773-.422 3.665.188 4.875 1.538 1.373 1.492 1.678 3.77.745 5.572-1.083 2.167-3.738 3.298-6.04 2.493a4.963 4.963 0 0 1-3.405-4.903c.05-2.255 1.64-4.18 3.825-4.7zm-16.418-4.163c2.768-.834 5.898.418 7.268 2.968 1.47 2.618.745 6.083-1.62 7.915a6.219 6.219 0 0 1-5.767 1.015c-1.643-.53-3.026-1.735-3.743-3.305-.798-1.695-.748-3.72.082-5.395a6.193 6.193 0 0 1 3.78-3.198zm-62.329-15.359c4.765-.435 9.547 2.294 11.5 6.677 2.025 4.113 1.122 9.293-1.935 12.65-2.043 2.29-5.025 3.75-8.108 3.803a11.464 11.464 0 0 1-5.132-.993c-2.795-1.212-5.028-3.552-6.165-6.372-.943-2.403-1.005-5.095-.26-7.558 1.322-4.432 5.45-7.9 10.1-8.207zm90.08 5.872c2.485-.505 5.15.232 7.04 1.92 1.93 1.718 2.93 4.363 2.634 6.928a8.063 8.063 0 0 1-4.574 6.482c-3.568 1.782-8.188.467-10.318-2.89a8.122 8.122 0 0 1-.355-8.285c1.125-2.15 3.205-3.662 5.573-4.155zm-17 1.015c2.165-.692 4.585-.077 6.172 1.535a6.02 6.02 0 0 1 1.548 5.807c-.475 1.815-1.795 3.371-3.54 4.075a6.064 6.064 0 0 1-5.015-.142c-1.99-.953-3.35-2.978-3.428-5.193-.132-2.714 1.657-5.294 4.263-6.082zm-47.735-14.435c2.87-.597 5.86-.21 8.447 1.178 4.453 2.302 7.163 7.505 6.368 12.47-.415 2.765-1.743 5.367-3.795 7.275-1.868 1.895-4.54 2.982-7.158 3.262-5.07.5-10.19-2.482-12.33-7.09-1.137-2.487-1.482-5.452-.715-8.095 1.075-4.362 4.75-8.092 9.183-9zm28.742-5.045c5.49-1.127 11.403 1.713 14.065 6.618 1.313 2.51 1.905 5.375 1.44 8.192-.857 5.02-4.637 9.452-9.643 10.698-5.935 1.757-12.735-1.635-15.247-7.208-.875-1.943-1.308-4.113-1.168-6.24.285-3.37 1.775-6.598 4.298-8.873 1.7-1.679 3.932-2.707 6.255-3.187zm74.993-4.545c4.54-1.062 9.552.635 12.425 4.328 2.972 3.567 3.482 8.705 1.562 12.89-1.32 2.965-3.845 5.25-6.87 6.392-4.852 1.878-10.877.175-14.06-3.932-1.52-1.943-2.482-4.36-2.625-6.825-.225-3.523 1.123-7.083 3.613-9.58 1.622-1.648 3.699-2.765 5.955-3.273zm-18.565 16.59c-.728 3.65-4.093 6.528-7.813 6.715-3.48.298-6.827-1.787-8.36-4.87l.115-.15.17.003c1.345.48 2.655.982 4.08 1.19 3.61.6 7.378-.22 10.46-2.173.432-.28.872-.512 1.348-.715zm-28.808-11.787c1.62-.028 3.1.465 4.555 1.127.185.433.268.92.348 1.38.435 3.122 2.025 5.958 4.19 8.215-.645 3.49-3.163 6.37-6.583 7.363-3.75 1.145-7.985-.39-10.167-3.633-2.245-3.175-2.198-7.752.24-10.805 1.722-2.3 4.552-3.662 7.417-3.647zm-89.757-4.343c2.152 1.098 3.905 2.87 4.765 5.15.857 2.093.865 4.473.102 6.595-1.212 3.49-4.642 6.148-8.362 6.265-4.265.23-8.793-2.623-9.558-7.003 4.175-3.542 8.328-7.115 12.5-10.66.18-.119.365-.237.553-.347zm12.632 3.31c2.01-.558 4.25.007 5.73 1.477a5.865 5.865 0 0 1 1.608 5.361c-.433 2.147-2.093 3.917-4.213 4.475-2.305.625-4.875-.271-6.27-2.216-1.24-1.685-1.46-3.96-.59-5.862a5.88 5.88 0 0 1 3.735-3.235zm11.245-1.757a4.233 4.233 0 0 1 4.355.87c1.235 1.125 1.673 2.965 1.093 4.53-.583 1.59-2.128 2.695-3.818 2.757-2.002.1-3.872-1.347-4.262-3.317-.438-2.013.682-4.143 2.632-4.84zm98.962-10.083c2.088.425 4.026 1.925 5.091 3.757 1.47 2.535 1.355 5.855-.335 8.26-.913 1.36-2.213 2.303-3.673 3.013.055-1.233.1-2.445-.107-3.67-.385-3.045-1.713-5.79-3.548-8.22l.643-.785 1.286-1.57.643-.785zm-83.534-7.772c4.23-.583 8.56 1.462 10.892 5.017a11.416 11.416 0 0 1 1.83 7.183 11.58 11.58 0 0 1-3.483 7.29c-1.674 1.657-3.977 2.695-6.287 3.07-4.287.637-8.697-1.438-11.08-5.028-1.845-2.715-2.292-6.237-1.425-9.375 1.238-4.32 5.078-7.64 9.553-8.157zm36.089 8.617.158.067c3.653 1.63 7.312 3.236 10.97 4.853.19 2.125-.408 4.23-1.843 5.825-1.672 1.907-4.315 2.787-6.8 2.277-2.477-.475-4.552-2.325-5.395-4.687-.737-2.008-.51-4.335.62-6.153.58-.944 1.2-1.792 2.29-2.182zm76.978 1.96c2.34-.635 4.798.975 5.13 3.375.378 2.325-1.417 4.495-3.74 4.673-2.178.21-4.222-1.488-4.398-3.673-.202-1.96 1.078-3.895 3.008-4.375zm-140.25-4.707c1.928.795 3.483 2.332 4.043 4.372.822 2.685-.348 5.665-2.675 7.185-2.075 1.4-4.918 1.445-7.023.078-1.547-.983-2.512-2.52-3.04-4.25 2.907-2.45 5.797-4.92 8.695-7.385zm47.365-4.273c3.73 1.645 7.463 3.3 11.195 4.943.525 1.99.483 4.07-.36 5.965-1.125 2.655-3.717 4.51-6.565 4.847-2.415.285-4.917-.548-6.687-2.217-1.865-1.75-2.833-4.398-2.513-6.94.312-2.828 2.24-5.57 4.93-6.598zm-38.397 7.2a4.3 4.3 0 0 1 3.792.78c1.228.963 1.8 2.555 1.513 4.085-.393 2.13-2.493 3.668-4.643 3.41-1.995-.212-3.595-1.872-3.72-3.875-.17-1.985 1.13-3.88 3.058-4.4zm-19.171-12.01a10.567 10.567 0 0 1 1.096 8.163c-.56 2.162-1.78 3.99-3.326 5.577-.252.222-.509.44-.767.652-.972.473-1.89.966-2.915 1.268-2.627.81-5.507.688-8.002-.492-3.78-1.776-6.303-5.818-6.13-10.008.055-4.412 3.047-8.527 7.237-9.902 4.702-1.65 10.382.344 12.807 4.742zm102.708 2.8c2.828 1.23 4.913 3.607 6.05 6.445-.997-.035-1.987-.045-2.977.107-1.105.14-2.188.36-3.243.715-3.175 1.058-5.717 3.188-7.72 5.825-2.532-1.097-5.06-2.21-7.592-3.31.045-3.272 1.635-6.332 4.197-8.345 3.14-2.522 7.61-3.074 11.285-1.437zm37.262-7.187c3.858-.753 7.993.987 10.13 4.287 2.038 3.05 2.133 7.14.325 10.318-1.592 2.897-4.787 4.85-8.087 4.987-3.658.198-7.295-1.747-9.088-4.957-1.977-3.348-1.672-7.685.635-10.79 1.453-2 3.67-3.36 6.085-3.845zm-120.157 5.332c2.555 1.58 5.64 3.338 8.703 3.498-.998 1.805-2.488 3.169-4.348 4.05a12.823 12.823 0 0 1-5.825 1.102c-2.132-.127-4.207-.92-5.808-2.352l.233-.33c2.347-1.99 4.675-4.01 7.045-5.968zm63.665-4.93c1.96.95 3.37 2.868 3.722 5.015.473 2.718-.882 5.598-3.287 6.953-1.887 1.065-4.115 1.117-6.15.465l-.135-.058c-1.25-.808-2.372-1.845-3.14-3.13-.822-1.462-.937-3.173-.567-4.79.515-2.092 2.077-3.857 4.075-4.655 1.74-.717 3.792-.61 5.482.2zm39.865-9.378c2.96 1.098 5.28 3.413 6.59 6.263-4.14 5.013-8.28 10.025-12.412 15.045-.113.128-.228.255-.345.383-3.498-.843-6.545-3.168-8.035-6.473-1.92-4.205-.99-9.345 2.31-12.585 3.019-3.102 7.844-4.157 11.892-2.633zm7.225 12.721c-.685 3.585-3.168 6.605-6.415 8.227l-.018-.39c2.09-2.65 4.293-5.225 6.433-7.837zm-115.69-7.721.148.568c.4 1.838 1.157 3.515 1.885 5.235-2.255 1.96-4.548 3.875-6.815 5.82-.563-2.563-.445-5.195.792-7.548.897-1.749 2.327-3.059 3.99-4.075zm46.458-15.832c2.57-.18 5.175.392 7.392 1.713 4.37 2.522 6.958 7.627 6.38 12.645-.552 4.575-3.732 8.802-8.027 10.512-1.73.712-3.563.865-5.415.735-2.643-1.145-5.28-2.305-7.92-3.457-1.455-.753-2.483-2.333-3.193-3.763-2.195-4.57-1.385-10.285 2.01-14.05 2.235-2.505 5.41-4.135 8.773-4.335zm34.627 7.04c2.137-.42 4.4.03 6.22 1.223 2.435 1.572 3.875 4.455 3.713 7.345-.11 2.847-1.698 5.482-4.19 6.872-2.99 1.76-6.958 1.335-9.568-.925-2.037-1.742-3.162-4.537-2.84-7.205.375-3.605 3.123-6.585 6.665-7.31zm55.223 6.678a4.193 4.193 0 0 1 3.794.75 4.097 4.097 0 0 1 1.443 4.202c-.465 1.927-2.355 3.315-4.335 3.162-1.99-.127-3.663-1.727-3.825-3.724a4.143 4.143 0 0 1 2.923-4.39zM61.62 107.895a8.586 8.586 0 0 1 4.338.165c3.28.963 5.695 4.03 5.885 7.438.26 3.395-1.63 6.69-4.72 8.127-3.445 1.665-7.823.68-10.178-2.342-2.092-2.568-2.385-6.25-.822-9.158 1.109-2.142 3.162-3.665 5.497-4.23zm42.92 7.983c1.638 2.042 2.598 4.47 2.623 7.105a61.66 61.66 0 0 0-2.755-1.21c.172-1.955.254-3.938.132-5.895zm37.33-2.47c1.555-.291 3.183.325 4.185 1.545 1.1 1.295 1.333 3.165.608 4.702-.763 1.673-2.593 2.698-4.418 2.53-2.152-.155-3.947-2.032-4.02-4.187-.122-2.203 1.455-4.238 3.645-4.59zm60.105.662c.518 1.028.958 2.013.947 3.187-.012 1.918-1.354 3.698-3.207 4.213-1.193.358-2.315.138-3.488-.165.053-.177.108-.353.16-.53 1.923-2.18 3.72-4.475 5.588-6.705zm-157.363-5.682c1.91-.59 4.061.157 5.203 1.795 1.133 1.572 1.123 3.795-.015 5.362-1.212 1.725-3.545 2.473-5.515 1.668-1.825-.688-3.023-2.518-2.962-4.463.017-1.997 1.382-3.785 3.289-4.362zm165.023-3.601c1.395.261 2.675.878 3.618 1.958 1.447 1.603 1.935 3.963 1.21 6-.905 2.63-3.698 4.412-6.473 3.99-2.282-.323-4.01-1.848-5.037-3.853 2.232-2.692 4.454-5.397 6.682-8.095zm-19.59 1.503c1.58-.182 3.155.55 4.077 1.83 1.043 1.423 1.093 3.408.133 4.885-1.043 1.668-3.198 2.463-5.07 1.838-1.93-.628-3.24-2.565-3.005-4.6a4.396 4.396 0 0 1 3.865-3.953zm-85.54-1.472c2.493.099 4.42 2.482 4.058 4.939-.3 2.166-2.163 3.638-4.28 3.83l-.203-.36c-.862-2.282-2.08-4.39-3.842-6.099 1.017-1.413 2.472-2.393 4.267-2.31zm66.615-15.926c4.115-.752 8.515.838 11.173 4.071 1.64 2.04 2.66 4.66 2.665 7.287a11.945 11.945 0 0 1-2.725 7.733c-1.705 2.017-4.153 3.56-6.78 3.985-5.098 1.03-10.565-1.668-12.803-6.368-2.002-3.972-1.417-8.903 1.31-12.385 1.757-2.29 4.32-3.815 7.16-4.323zM144.623 90.4c3.852-.917 8.007.38 10.615 3.363 3.055 3.422 3.505 8.665 1.095 12.572-1.91 3.255-5.57 5.248-9.333 5.17-3.4-.055-6.702-1.83-8.625-4.632-.805-1.138-1.332-2.48-1.677-3.823a10.8 10.8 0 0 1 1.74-8.357c1.449-2.09 3.709-3.685 6.185-4.293zM94.08 96.673c2.353 2.105 3.62 5.045 3.92 8.16-.145.06-.29.12-.432.182-3.031-1.607-6.451-2.35-9.86-1.815-2.463.363-4.693 1.43-6.696 2.88-1.882 1.43-3.247 3.29-4.405 5.332-1.14-1.685-1.62-3.902-1.722-5.909-.188-4.513 2.592-8.836 6.683-10.688 4.084-1.935 9.17-1.185 12.512 1.858zM51.63 92.68c3.533-.822 7.363 1.023 8.86 4.335 1.648 3.453.415 7.86-2.832 9.9-2.98 1.998-7.103 1.578-9.683-.882-2.447-2.268-3.127-5.993-1.697-9.003.997-2.197 3.009-3.8 5.352-4.35zm15.185 5.143c1.638-.52 3.478-.033 4.675 1.187 1.235 1.235 1.65 3.143 1.052 4.783-.702 1.942-2.737 3.237-4.797 3.025-2.13-.188-3.913-1.933-4.12-4.068-.272-2.177 1.09-4.29 3.19-4.927zm133.947-12.611c3.241.831 5.998 3.258 7.148 6.411 1.038 2.76.84 5.835-.36 8.507a525.43 525.43 0 0 1-3 3.632c-2.512 1.778-5.732 2.533-8.757 1.863-4.061-.905-7.306-4.255-8.01-8.368-.795-4.017 1.005-8.297 4.405-10.564 2.484-1.675 5.672-2.24 8.574-1.481zm-96.464 2.601c2.587-.535 5.382.257 7.227 2.165 2.025 2 2.76 5.05 1.963 7.775-.68 2.435-2.628 4.42-5.013 5.23-2.492.835-5.365.357-7.43-1.278-2.265-1.805-3.437-4.857-2.825-7.712.59-3.045 3.027-5.563 6.078-6.18zm19.992-6.528c2.315-.455 4.758-.037 6.81 1.115 3.007 1.647 4.977 4.927 5.053 8.35.095 2.872-1.093 5.75-3.215 7.692-2.778 2.528-6.8 3.303-10.31 1.935-4.05-1.487-6.88-5.802-6.36-10.127.357-4.34 3.672-8.237 8.022-8.965zM67.125 70.458c3.233-.63 6.605.025 9.368 1.807C80.66 74.868 83.11 80.148 82.138 85a12.753 12.753 0 0 1-3.52 6.87c-1.87 2.048-4.603 3.298-7.323 3.688-4.205.612-8.665-1.255-11.417-4.435-2.473-2.875-3.521-6.903-2.763-10.62.967-4.973 4.99-9.143 10.01-10.045zm23.482 7.915c1.986-.408 4.103.072 5.703 1.317 1.905 1.463 2.953 3.923 2.633 6.31-.288 2.498-1.968 4.718-4.313 5.643-2.19.894-4.78.55-6.69-.835-1.978-1.413-3.088-3.895-2.823-6.313.295-2.975 2.548-5.53 5.49-6.122zm67.511 2.015c2.077-.688 4.47-.07 5.962 1.527 1.503 1.595 1.96 4.018 1.12 6.048-.835 2.105-2.927 3.577-5.202 3.59-2.71.057-5.188-1.885-5.715-4.555-.61-2.808 1.094-5.75 3.835-6.61zm-14.246-6.478a7.035 7.035 0 0 1 6.318 1.147c2.028 1.52 3.07 4.155 2.66 6.653-.497 3.03-3.02 5.508-6.095 5.827-3.62.481-7.152-2.192-7.71-5.792-.602-3.385 1.542-6.845 4.827-7.835zm36.246-9.517c4.642-1.076 9.74.872 12.32 4.91 1.842 2.754 2.365 6.257 1.487 9.447-1.107 4.24-4.82 7.708-9.172 8.378-2.503.44-4.978-.075-7.26-1.121-2.573-1.275-4.578-3.522-5.598-6.202-1.76-4.445-.262-9.963 3.39-13.015 1.39-1.195 3.055-1.975 4.833-2.397zm-72.243-1.968c4.897-.822 10.037 1.858 12.02 6.438 1.897 4.032 1.043 9.049-1.995 12.287-1.848 1.963-4.448 3.327-7.15 3.547-2.483.253-5.055-.489-7.163-1.795-3.84-2.327-5.92-7.287-4.87-11.655.898-4.427 4.63-8.202 9.158-8.822zm22.42-.615c3.525-.772 7.357.825 9.16 3.978 1.94 3.155 1.45 7.407-1.053 10.107-2.352 2.588-6.177 3.45-9.42 2.128-3.505-1.328-5.752-5.058-5.307-8.778.367-3.602 3.07-6.672 6.62-7.435zm27.82-1.67c3.043-.74 6.41.13 8.605 2.388 2.155 2.107 3.083 5.285 2.493 8.23-.555 2.962-2.705 5.535-5.508 6.637-3.385 1.363-7.46.538-9.952-2.15-3.005-2.915-3.285-7.822-1.023-11.257 1.182-1.963 3.172-3.308 5.385-3.848zm-72.487-6.925c3.467-.707 7.185.478 9.617 3.038 2.343 2.4 3.373 6.02 2.66 9.295-.743 3.632-3.472 6.747-7.035 7.837-3.822 1.285-8.165.073-10.872-2.882-2.238-2.378-3.208-5.855-2.563-9.05.805-4.088 4.095-7.433 8.193-8.238zm86.157.8a5.158 5.158 0 0 1 3.887.555c1.89 1.085 2.94 3.277 2.543 5.435-.4 2.508-2.69 4.368-5.213 4.335-2.655.015-5.015-2.172-5.17-4.827-.207-2.523 1.473-4.923 3.953-5.498zM142.87 43.39c4.615-1.012 9.565 1.468 11.43 5.818 1.6 3.542.925 7.805-1.607 10.732-2.638 3.128-7.155 4.313-10.998 2.915-4.012-1.355-6.915-5.345-6.795-9.605-.007-4.645 3.425-8.9 7.97-9.86zm-24.245-1.245c4.228-1.11 8.95.803 11.088 4.638 2.207 3.722 1.57 8.662-1.413 11.767-2.815 2.973-7.33 3.91-11.085 2.238-3.817-1.593-6.292-5.663-5.935-9.788.287-4.157 3.295-7.827 7.345-8.855zm43.175 5.918c2.118-.396 4.338.642 5.338 2.56 1.135 2.06.575 4.785-1.263 6.247-1.542 1.263-3.745 1.458-5.5.52-1.867-.96-2.922-3.075-2.592-5.145.292-2.09 1.934-3.815 4.017-4.182zm-59.925-3.128c2.603-.515 5.325.923 6.272 3.415 1.08 2.643-.147 5.838-2.724 7.065-2.47 1.233-5.643.368-7.133-1.958-1.07-1.619-1.183-3.752-.328-5.492a5.56 5.56 0 0 1 3.913-3.03z"
    />
    <path
      fill="#333"
      d="M235.743 53.14c4.457-.405 9.03 1.242 12.11 4.505 4.014 4.17 5.075 10.693 2.777 15.977-2.11 5.16-7.327 8.675-12.88 8.846-2.855.14-5.6-.608-8.115-1.93-6.655 8.092-13.34 16.162-20 24.25-2.227 2.697-4.45 5.402-6.683 8.094-.327.395-.652.793-.977 1.188-1.868 2.23-3.665 4.525-5.588 6.705-1.742 2.27-3.662 4.405-5.407 6.672-2.14 2.613-4.343 5.188-6.432 7.838l-.245.315c-1.076 1.093-1.978 2.313-2.97 3.475l-2.573 3.14c1.835 2.43 3.163 5.175 3.548 8.22.08 1.18.165 2.405.02 3.583-.555 2.957-1.778 5.755-3.796 8.01-.497.544-1.065 1.095-1.475 1.707a8.793 8.793 0 0 0-1.347.715c-3.083 1.953-6.85 2.773-10.46 2.173-1.425-.208-2.735-.71-4.08-1.19-1.355-.778-2.59-1.813-3.827-2.763-2.165-2.257-3.755-5.093-4.19-8.215-.08-.46-.163-.948-.348-1.38l.093.04c-.033-1.603-.21-3.165.03-4.763-2.625-1.2-5.278-2.337-7.913-3.512-3.657-1.618-7.317-3.222-10.97-4.852l-.157-.068c-1.576-.682-3.143-1.385-4.713-2.077-3.733-1.643-7.465-3.298-11.195-4.943-5.218-2.303-10.433-4.61-15.65-6.907-.645 1.19-1.407 2.26-2.485 3.1-3.032 2.582-6.975 3.67-10.918 3.44-3.062-.16-6.147-1.918-8.702-3.498-2.37 1.958-4.697 3.977-7.045 5.968-.86.72-1.715 1.442-2.565 2.17-2.897 2.464-5.787 4.934-8.695 7.385-1.328 1.13-2.66 2.257-3.98 3.394-4.172 3.546-8.325 7.118-12.5 10.66-4.337 3.715-8.688 7.42-13.027 11.138 1.68 3 2.437 6.455 1.922 9.875-.598 3.938-2.825 7.583-6.12 9.838-4.33 3.1-10.31 3.532-15.06 1.135-4.018-2.023-6.995-5.936-7.852-10.353-.45-2.235-.283-4.502.27-6.703.987-3.65 3.447-6.84 6.694-8.767 2.908-1.722 6.396-2.42 9.736-1.885 2.777.425 5.305 1.655 7.522 3.355 9.293-7.923 18.613-15.82 27.89-23.763.258-.212.515-.43.767-.652 4.125-3.473 8.218-6.985 12.325-10.48 2.268-1.945 4.56-3.86 6.816-5.82-.728-1.72-1.485-3.398-1.885-5.235-.436-3.017.027-6.07 1.17-8.883 1.157-2.042 2.522-3.902 4.404-5.332 2.003-1.45 4.233-2.517 6.695-2.88 3.41-.535 6.83.207 9.86 1.815.956.605 1.808 1.385 2.67 2.112 1.763 1.71 2.98 3.818 3.843 6.1.215.868.293 1.77.46 2.65.122 1.958.04 3.94-.133 5.895.925.385 1.848.78 2.755 1.21 2.318 1.05 4.658 2.053 6.995 3.06 2.64 1.153 5.278 2.313 7.92 3.458 5.313 2.345 10.643 4.655 15.963 6.98l.135.058c3.152 1.385 6.31 2.754 9.462 4.135 2.533 1.1 5.06 2.212 7.593 3.31 2.002-2.638 4.545-4.768 7.72-5.826 1.055-.355 2.138-.575 3.243-.715 1.244-.072 2.59-.152 3.814.103 1.848.318 3.473 1.1 5.188 1.808.907-1.11 1.83-2.21 2.738-3.318 4.132-5.02 8.272-10.032 12.412-15.045 4.735-5.742 9.482-11.475 14.205-17.227a525.519 525.519 0 0 0 3-3.633 10100.85 10100.85 0 0 0 18.587-22.532c-2.764-3.063-4.054-7.253-3.62-11.346.376-3.792 2.23-7.39 5.218-9.777a14.289 14.289 0 0 1 8.007-3.335z"
    />
    <path
      fill="#fff"
      d="M235.623 57.665c3.302-.492 6.777.715 9.044 3.168 2.573 2.755 3.398 6.885 2.098 10.422-.9 2.6-2.892 4.725-5.37 5.888-1.888.792-4 1.075-6.02.69-3.268-.555-6.268-2.81-7.595-5.865-1.57-3.49-.958-7.768 1.49-10.703 1.6-1.955 3.845-3.248 6.352-3.6zM89.295 107.532c3.105-.197 6.248 1.018 8.328 3.348 1.602 1.803 2.57 4.203 2.6 6.62a10.451 10.451 0 0 1-2.058 6.407c-1.613 2.188-4.183 3.653-6.873 3.988-4.01.51-8.17-1.49-10.16-5.032-2.09-3.555-1.742-8.188.803-11.42a10.131 10.131 0 0 1 7.36-3.91zm75.83 34.625c2.333-.557 4.82-.312 6.982.73 2.838 1.335 4.903 4 5.548 7.063.657 3.06-.173 6.375-2.19 8.765-1.328 1.57-3.21 2.79-5.203 3.31-4.424 1.135-9.4-.912-11.597-4.942-1.81-3.25-1.637-7.413.393-10.52 1.36-2.145 3.602-3.79 6.067-4.405zM18.3 167.308c2.813-.41 5.755.382 7.955 2.187 2.515 2.015 3.938 5.292 3.728 8.505-.206 3.808-2.616 7.373-6.163 8.833-3.813 1.677-8.49.7-11.385-2.268-1.753-1.752-2.775-4.225-2.89-6.688-.102-2.575.783-5.165 2.475-7.11 1.565-1.864 3.883-3.094 6.28-3.46z"
    />
  </symbol>
  <symbol id="seed" viewBox="0 0 108 161">
    <path
      fill="#dc3092"
      d="M9.434 90.848h-.003c-5.151 0-9.39-4.238-9.39-9.388a9.41 9.41 0 0 1 6.613-8.967l88.49-27.454a9.396 9.396 0 0 1 2.785-.422c5.153 0 9.392 4.238 9.392 9.39a9.411 9.411 0 0 1-6.607 8.968l-88.5 27.453a9.23 9.23 0 0 1-2.78.42Z"
    />
    <path
      fill="#f68840"
      d="m34.714 25.943 24.52-7.578a9.412 9.412 0 0 0 6.619-8.973c0-5.153-4.24-9.392-9.394-9.392-.941 0-1.876.141-2.775.42l-24.51 7.577a9.409 9.409 0 0 0-6.652 8.98c0 5.076 4.117 9.28 9.192 9.386a9.5 9.5 0 0 0 3-.42ZM12.214 61.225l88.5-27.444a9.44 9.44 0 0 0 6.636-8.997c0-5.167-4.253-9.42-9.421-9.42-.944 0-1.883.143-2.785.422L6.654 43.289A9.419 9.419 0 0 0 0 52.277c0 5.156 4.243 9.398 9.4 9.398h.034a9.245 9.245 0 0 0 2.78-.45Z"
    />
    <path
      fill="#b2b3b7"
      d="M60.814 160.422c-4.945 1.441-10.201-1.436-11.65-6.378l-15.75-53.808a9.392 9.392 0 0 1-.524-3.093c0-5.15 4.238-9.388 9.39-9.388a9.414 9.414 0 0 1 9.134 7.212l15.75 53.798c1.45 4.938-1.414 10.196-6.35 11.657Z"
    />
    <path
      fill="#666671"
      d="M55.304 160.422c.856.251 1.744.378 2.636.378a9.412 9.412 0 0 0 9.014-6.756l15.76-53.808c.347-.995.524-2.04.524-3.093 0-5.15-4.238-9.388-9.39-9.388a9.414 9.414 0 0 0-9.134 7.212l-15.75 53.798c-1.45 4.936 1.408 10.192 6.34 11.657Z"
    />
    <path
      fill="#b2b3b7"
      d="M42.544 106.995a9.468 9.468 0 0 1-4.11-1L5.324 89.899a9.404 9.404 0 0 1-5.279-8.444c0-5.152 4.24-9.391 9.394-9.391a9.39 9.39 0 0 1 4.115.948l33.16 16.147a9.4 9.4 0 0 1 5.295 8.448c0 5.15-4.239 9.388-9.39 9.388h-.075Z"
    />
    <path
      fill="#666671"
      d="M73.574 106.995h-.067c-5.151 0-9.39-4.238-9.39-9.388a9.408 9.408 0 0 1 6.457-8.918l24.36-8.078a9.385 9.385 0 0 1 2.719-.402c5.157 0 9.4 4.242 9.4 9.398 0 3.95-2.492 7.499-6.209 8.84l-24.36 8.068a9.471 9.471 0 0 1-2.91.48Z"
    />
  </symbol>
  <symbol id="siscog" viewBox="0 0 205 225">
    <path
      d="M91.716 193.599c4.536-1.251 7.315-2.116 7.315-2.116a745.825 745.825 0 0 1-7.315 2.116M.862 166.215c-1.04 3.65 4.911 4.417 6.72 6.243 4.779 4.836 1.678 18.949 8.244 27.105 7.591 9.474 30.937 6.854 75.89-5.964-17.787 4.912-62.562 15.735-72.108 3.227-6.783-8.889-5.062-17.624-7.418-22.623-2.049-4.355-4.471-3.755-7.304-6.051-2.463-1.994 4.697-12.835 3.512-21.035 0 8.687-6.333 14.995-7.536 19.098"
      fill="url(#siscog-gradient-1)"
    />
    <path
      d="M58.638 48.09c14.361-10.324 29.835-14.417 49.211-14.417 47.402 0 84.2 34.249 83.444 79.449-.34 19.838-5.207 27.139-18.181 44.973-6.1 8.405-12.188 13.793-20.264 23.524-7.644 9.208-18.777 24.547-15.681 42.882-.232-7.964 5.135-24.24 16.497-35.6 5.135-5.126 13.778-12.962 23.512-21.883 16.529-15.149 29.188-30.006 27.705-59.865-2.276-45.803-39.97-80.553-88.003-80.553-23.578-.001-42.575 6.94-58.24 21.49"
      fill="url(#siscog-gradient-2)"
    />
    <path
      d="M0 75.699v24.978c1.668 13.008 5.364 22.414 8.376 44.601-.524-14.398-2.115-22.954-2.108-35.173C6.326 43.678 50.336 7.673 102.922 7.673c14.475 0 28.817 1.267 41.209 6.028C125.044 2.854 109.201 0 88.985 0 44.593 0 6.142 32.75 0 75.699"
      fill="url(#siscog-gradient-1)"
    />
  </symbol>
  <symbol id="smartdatafoundry" xmlns="http://www.w3.org/2000/svg" viewBox="0 0 856 275">
    <path
      d="M565.296 275h-275l275-275v275ZM718.094 0c75.94 0 137.5 61.561 137.5 137.5V275h-275V137.5c0-75.939 61.561-137.5 137.5-137.5ZM275 275H0V0h275v275Zm-138.183-14.95c68.06 0 123.232-55.173 123.232-123.233 0-68.058-55.172-123.231-123.232-123.231-68.059 0-123.232 55.173-123.232 123.231 0 68.06 55.173 123.233 123.232 123.233Z"
      fill="#9c6cff"
    />
  </symbol>
  <symbol id="ufurnish" viewBox="0 0 129 33">
    <path
      d="M114.382 32.096a2.957 2.957 0 0 1-2.86-2.932 2.96 2.96 0 0 1 2.93-2.932 2.959 2.959 0 0 1 2.93 2.931l.001.105a2.857 2.857 0 0 1-3 2.828Zm-6.638-5.855a2.63 2.63 0 0 1 2.729 2.142h-1.85a.904.904 0 0 0-.91-.65c-.62 0-1 .49-1 1.43 0 .941.43 1.442 1 1.442a.895.895 0 0 0 .91-.651h1.85a2.659 2.659 0 0 1-2.73 2.142 2.955 2.955 0 0 1-2.758-2.928 2.955 2.955 0 0 1 2.759-2.927Zm18.765 2.682c0-.598-.492-1.09-1.09-1.09-.597 0-1.09.492-1.09 1.09v3.083H122.6v-3.083c0-.598-.492-1.09-1.09-1.09-.598 0-1.09.492-1.09 1.09v3.083h-1.739V26.33h1.74v.71a2 2 0 0 1 1.66-.78 2.134 2.134 0 0 1 1.899 1.06 2.284 2.284 0 0 1 2-1.06l.121-.003a2.221 2.221 0 0 1 2.188 2.435v3.313h-1.73l-.05-3.083ZM20.905 14.472a5.141 5.141 0 0 0-3.69 1.53l-1.209 1.232-1.23-1.231a5.217 5.217 0 0 0-3.599-1.441c-2.863 0-5.218 2.358-5.218 5.224 0 1.341.515 2.632 1.44 3.603l8.607 8.617 4.899-4.924 3.689-3.693a5.23 5.23 0 0 0 1.528-3.693c0-2.865-2.355-5.223-5.217-5.224Zm79.62 13.44c1.097 0 2 .904 2 2.002a2.01 2.01 0 0 1-2 2.002c-1.096 0-2-.904-2-2.002a2.07 2.07 0 0 1 2-2.002Zm13.857 2.673c.62 0 1.2-.46 1.2-1.422 0-.96-.6-1.38-1.18-1.38s-1.18.45-1.18 1.41c0 .961.53 1.392 1.16 1.392Zm-92.247-9.658-3.69 3.693-2.439 2.462-2.46-2.462-3.698-3.693a1.747 1.747 0 0 1-.508-1.231c0-.957.787-1.745 1.742-1.745.463 0 .908.186 1.235.514l3.69 3.693 3.688-3.693c.323-.308.753-.48 1.2-.48.955 0 1.74.785 1.74 1.74 0 .448-.172.879-.48 1.202h-.02Zm28.293-8.157v11.38h-3.51v-2.062a3.806 3.806 0 0 1-1.46 1.591c-.679.403-1.459.608-2.249.59a3.943 3.943 0 0 1-3.109-1.31 5.205 5.205 0 0 1-1.1-3.583V12.77h3.46v6.185a2.556 2.556 0 0 0 .54 1.822 2.077 2.077 0 0 0 1.63.64 2.136 2.136 0 0 0 1.669-.64c.46-.56.68-1.28.61-2.002V12.77h3.519Zm22.034 0v11.38h-3.469v-2.062a3.782 3.782 0 0 1-1.45 1.591 4.268 4.268 0 0 1-2.259.59 4.004 4.004 0 0 1-3.11-1.31 5.199 5.199 0 0 1-1.179-3.583V12.77h3.47v6.185c-.04.656.174 1.301.6 1.802a2.11 2.11 0 0 0 1.629.64 2.092 2.092 0 0 0 1.66-.66c.46-.545.69-1.25.64-1.962V12.77h3.468Zm40.17.931c.871.72 1.451 1.735 1.63 2.852h-3.28a1.852 1.852 0 0 0-.639-1.09 2.003 2.003 0 0 0-1.26-.4 1.337 1.337 0 0 0-.89.26.883.883 0 0 0-.31.72.844.844 0 0 0 .56.8 9.9 9.9 0 0 0 1.76.531c.726.161 1.44.368 2.14.62a3.48 3.48 0 0 1 1.45 1.001c.43.54.647 1.221.61 1.912a2.937 2.937 0 0 1-.53 1.741 3.49 3.49 0 0 1-1.53 1.181 5.988 5.988 0 0 1-2.36.43 6.064 6.064 0 0 1-3.689-1 4.288 4.288 0 0 1-1.69-2.923h3.38c.03.448.258.858.62 1.121.413.275.903.412 1.4.39.322.023.642-.074.899-.27.196-.192.304-.456.3-.73a.874.874 0 0 0-.56-.84 9.698 9.698 0 0 0-1.82-.541 14.494 14.494 0 0 1-2.08-.57 3.508 3.508 0 0 1-1.409-1.002 2.814 2.814 0 0 1-.59-1.871 3.004 3.004 0 0 1 1.16-2.472 4.994 4.994 0 0 1 3.28-.95 5.24 5.24 0 0 1 3.469 1.08l-.02.02Zm-53.806-3.683a1.77 1.77 0 0 0-1.24.36c-.291.275-.448.662-.43 1.061v1.331h2.06v2.943h-2.06v8.456h-3.49v-8.476h-1.369V12.77h1.37v-1.32a4.262 4.262 0 0 1 1.23-3.273c1-.834 2.28-1.253 3.579-1.171h.73v3.002l-.38.01Zm36.05 3.923a5.143 5.143 0 0 1 1.11 3.593v6.615h-3.489v-6.215a2.492 2.492 0 0 0-.6-1.781 2.115 2.115 0 0 0-1.599-.65 2.199 2.199 0 0 0-1.69.68 2.757 2.757 0 0 0-.62 1.922v6.004H84.5V12.77h3.49v2.082a3.794 3.794 0 0 1 1.46-1.611 4.337 4.337 0 0 1 2.269-.6 4.002 4.002 0 0 1 3.119 1.31l.04-.01Zm32.213 0a5.203 5.203 0 0 1 1.16 3.593v6.615h-3.49v-6.215a2.492 2.492 0 0 0-.6-1.781 2.115 2.115 0 0 0-1.599-.65 2.185 2.185 0 0 0-1.68.68 2.654 2.654 0 0 0-.62 1.912v6.004h-3.499V7.766h3.5v7.126a3.671 3.671 0 0 1 1.46-1.611 4.286 4.286 0 0 1 2.269-.6 3.929 3.929 0 0 1 3.099 1.31v-.05Zm-28.353-1.18h3.489v11.388h-3.49V12.76Zm-18.296.49a4.319 4.319 0 0 1 2.24-.62v3.732h-1a3.393 3.393 0 0 0-2.15.59 2.394 2.394 0 0 0-.77 2.002v5.184h-3.488V12.77h3.489v2.142a4.996 4.996 0 0 1 1.69-1.651l-.01-.01ZM0 15.452l2.46 2.382 13.526-13.08 13.527 13.08 2.46-2.382L15.985 0 0 15.452Z"
      fill="#0c6e7b"
    />
  </symbol>
  <symbol id="vertual" viewBox="0 0 69 68">
    <path
      d="M25.894 0C16.676 5.3 9.496 14.324 7.28 24.808c-1.691 7.859.032 16.152 4.375 22.874 8.7 13.443 26.269 19.632 41.548 14.923-7.2 4.426-16.392 6.49-24.715 4.689-7.193-1.276-13.95-4.933-18.965-10.247-8.356-8.648-11.666-21.756-8.106-33.285C4.562 12.884 13.235 4.045 24.027.618 24.65.414 25.27.204 25.893 0Z"
      fill="#330063"
    />
    <path
      d="M51.867 2.913c-2.737-.407-5.29-.96-8.08-.868C35.199 2.262 27 6.531 21.663 13.219c-6.87 8.478-9.047 20.369-4.742 30.53 2.255 5.59 6.323 9.812 11.323 13.061-3.06-1.13-5.91-2.703-8.41-4.814-8.376-7.077-11.33-18.816-8.396-29.24 3.014-11.063 12.246-20 23.622-22.04 5.765-1.19 11.476-.111 16.807 2.197Z"
      fill="#8f8f8c"
    />
    <path
      d="M56.447 8.194c5.738 2.993 9.817 8.037 12.253 13.963-1.651-1.874-3.132-3.775-5.068-5.393-4.592-3.953-10.435-6.373-16.523-6.57-6.771 0-13.291 2.96-17.773 8.03-6.757 7.557-8.62 18.409-5.032 27.873-2.226-3.262-3.877-6.834-4.549-10.74-1.75-8.833 1.671-18.31 8.542-24.098 7.66-6.658 19.15-7.899 28.15-3.065Z"
      fill="#330063"
    />
  </symbol>
  <symbol id="yld" viewBox="0 0 54 54">
    <path
      d="M0 0h54v54H0z"
      fill="#fff"
    />
    <path
      d="M16.82 23.291a3.038 3.038 0 1 0 0-6.077 3.038 3.038 0 0 0 0 6.077Zm21.659 4.961a3.04 3.04 0 0 0-3.037-3.038 3.042 3.042 0 0 0-3.038 3.038 3.042 3.042 0 0 0 3.038 3.038 3.04 3.04 0 0 0 3.037-3.038ZM42.558 16v19.188h-4.051v-.555a7.034 7.034 0 0 1-3.065.707 7.096 7.096 0 0 1-7.088-7.088 7.095 7.095 0 0 1 7.088-7.088c1.099 0 2.136.259 3.065.708V16h4.051Zm-14.204 0v19.188h-4.051V23.793l-7.482 16.839h-4.433l2.236-5.032L9 23.291h4.453l3.367 7.369 3.275-7.369h4.208V16h4.051Z"
      fill="#090329"
    />
  </symbol>
</svg>