<svg xmlns="http://www.w3.org/2000/svg">
  <symbol id="cpp" viewBox="0 0 306 344.35">
    <path
      fill="#00599C"
      d="M302.107 258.262c2.401-4.159 3.893-8.845 3.893-13.053V99.14c0-4.208-1.49-8.893-3.892-13.052L153 172.175l149.107 86.087z"
    />
    <path
      fill="#004482"
      d="m166.25 341.193 126.5-73.034c3.644-2.104 6.956-5.737 9.357-9.897L153 172.175 3.893 258.263c2.401 4.159 5.714 7.793 9.357 9.896l126.5 73.034c7.287 4.208 19.213 4.208 26.5 0z"
    />
    <path
      fill="#659AD2"
      d="M302.108 86.087c-2.402-4.16-5.715-7.793-9.358-9.897L166.25 3.156c-7.287-4.208-19.213-4.208-26.5 0L13.25 76.19C5.962 80.397 0 90.725 0 99.14v146.069c0 4.208 1.491 8.894 3.893 13.053L153 172.175l149.108-86.088z"
    />
    <path
      fill="#FFF"
      d="M153 274.175c-56.243 0-102-45.757-102-102s45.757-102 102-102c36.292 0 70.139 19.53 88.331 50.968l-44.143 25.544c-9.105-15.736-26.038-25.512-44.188-25.512-28.122 0-51 22.878-51 51 0 28.121 22.878 51 51 51 18.152 0 35.085-9.776 44.191-25.515l44.143 25.543c-18.192 31.441-52.04 50.972-88.334 50.972z"
    />
    <path
      fill="#FFF"
      d="M255 166.508h-11.334v-11.333h-11.332v11.333H221v11.333h11.334v11.334h11.332v-11.334H255zM297.5 166.508h-11.334v-11.333h-11.332v11.333H263.5v11.333h11.334v11.334h11.332v-11.334H297.5z"
    />
  </symbol>
  <symbol id="css" viewBox="0 0 291 330">
    <path
      fill="#264de4"
      d="M290.188 0 263.75 296.159l-118.835 32.945-118.507-32.898L-.001 0h290.189Z"
    />
    <path
      fill="#2965f1"
      d="M241.118 277.301 263.71 24.219H145.094v279.703l96.024-26.621Z"
    />
    <path
      fill="#ebebeb"
      d="m60.542 134.078 3.256 36.328h81.296v-36.328H60.542ZM145.094 60.548H54l3.302 36.329h87.792V60.548ZM145.094 266.223v-37.797l-.16.043-40.458-10.925-2.587-28.974H65.42l5.09 57.041 74.416 20.659.167-.047Z"
    />
    <path
      fill="#fff"
      d="m189.703 170.406-4.217 47.115-40.518 10.936v37.795l74.476-20.641.546-6.137 8.537-95.641.886-9.755 6.559-73.53h-91.004v36.329h51.19l-3.305 37.201h-47.885v36.328h44.735Z"
    />
  </symbol>
  <symbol id="html" viewBox="0 0 363 412">
    <path fill="#e44d26" d="M33 370.4 0 0h362.8l-33 370.2-148.7 41.2" />
    <path fill="#f16529" d="M181.4 379.9V30.4h148.3l-28.3 316" />
    <path
      fill="#ebebeb"
      d="M67.4 75.7h114v45.4h-64.2l4.2 46.5h60v45.3H79.8m2 22.8h45.6l3.2 36.3 50.8 13.6V333l-93.2-26"
    />
    <path
      fill="#fff"
      d="M295 75.7H181.2v45.4h109.6m-4.1 46.5H181.2V213h56l-5.3 59-50.7 13.6v47.2l93-25.8"
    />
  </symbol>
  <symbol id="javascript" viewBox="0 0 630 630">
    <path fill="#f7df1e" d="M0 0h630v630H0z" />
    <path
      d="M423.2 492.19c12.69 20.72 29.2 35.95 58.4 35.95 24.53 0 40.2-12.26 40.2-29.2 0-20.3-16.1-27.49-43.1-39.3l-14.8-6.35c-42.72-18.2-71.1-41-71.1-89.2 0-44.4 33.83-78.2 86.7-78.2 37.64 0 64.7 13.1 84.2 47.4l-46.1 29.6c-10.15-18.2-21.1-25.37-38.1-25.37-17.34 0-28.33 11-28.33 25.37 0 17.76 11 24.95 36.4 35.95l14.8 6.34c50.3 21.57 78.7 43.56 78.7 93 0 53.3-41.87 82.5-98.1 82.5-54.98 0-90.5-26.2-107.88-60.54zm-209.13 5.13c9.3 16.5 17.76 30.45 38.1 30.45 19.45 0 31.72-7.61 31.72-37.2v-201.3h59.2v202.1c0 61.3-35.94 89.2-88.4 89.2-47.4 0-74.85-24.53-88.81-54.075z"
    />
  </symbol>
  <symbol id="opengl" viewBox="0 0 1086 450">
    <path fill="#5586a4" fill-rule="nonzero" d="M127.672 187c3.835-11.8 9.591-22.2 17.23-31.3 7.67-9.07 17.232-16.3 28.686-21.7 11.454-5.4 24.7-8.11 39.84-8.11 15.139 0 28.485 2.71 39.84 8.11 11.454 5.4 21.015 12.6 28.684 21.7 7.669 9.1 13.446 19.5 17.231 31.3 3.835 11.8 5.757 24 5.757 36.7 0 12.7-1.922 25-5.757 36.8-3.834 11.8-9.591 22.2-17.23 31.3-7.67 9.07-17.231 16.3-28.685 21.6-11.454 5.31-24.701 7.98-39.84 7.98-15.14 0-28.486-2.66-39.84-7.98-11.454-5.32-21.016-12.5-28.685-21.6-7.67-9.07-13.446-19.5-17.231-31.3-3.835-11.8-5.757-24-5.757-36.8 0-12.8 1.922-25 5.757-36.7Zm23.306 64.7c2.5 9.16 6.435 17.4 11.753 24.7 5.359 7.33 12.251 13.2 20.617 17.7 8.397 4.45 18.426 6.67 29.98 6.67 11.653 0 21.613-2.22 29.98-6.67 8.396-4.45 15.238-10.3 20.617-17.7 5.358-7.33 9.283-15.6 11.753-24.7 2.5-9.17 3.755-18.5 3.755-27.9 0-9.4-1.255-18.7-3.755-27.9s-6.435-17.4-11.753-24.7c-5.359-7.33-12.251-13.2-20.617-17.7-8.397-4.45-18.426-6.68-29.98-6.68-11.653 0-21.613 2.23-29.98 6.68-8.396 4.45-15.238 10.3-20.617 17.7-5.358 7.34-9.292 15.6-11.753 24.7a105.72 105.72 0 0 0-3.745 27.9c0 9.4 1.245 18.7 3.745 27.9Zm191.83-53.7v16.1h.402c3.287-6.61 8.446-11.4 15.438-14.4 7.042-3 14.741-4.5 23.207-4.5 9.383 0 17.53 1.69 24.502 5.07 6.962 3.38 12.749 7.94 17.33 13.7 4.612 5.76 8.088 12.4 10.458 19.9 2.35 7.52 3.526 15.5 3.526 23.9 0 8.44-1.135 16.4-3.406 24-2.271 7.52-5.707 14.1-10.359 19.7-4.611 5.6-10.358 10-17.33 13.2-6.972 3.22-15.04 4.84-24.302 4.84-2.979 0-6.295-.307-9.96-.919a57.518 57.518 0 0 1-10.956-3c-3.596-1.38-7.002-3.27-10.26-5.65-3.206-2.38-5.906-5.34-8.087-8.88h-.402v61.5h-20.12v-165l20.319.439Zm71.413 42.3c-1.484-5.29-3.745-10-6.783-14.2-3.047-4.14-6.952-7.44-11.752-9.9-4.761-2.46-10.359-3.68-16.733-3.68-6.713 0-12.45 1.31-17.131 3.92-4.682 2.61-8.506 6.02-11.454 10.2-2.968 4.22-5.11 9.02-6.435 14.4a67.794 67.794 0 0 0-1.992 16.3c0 5.84.698 11.5 2.112 16.9 1.404 5.45 3.625 10.2 6.673 14.4 3.038 4.14 6.982 7.48 11.853 10 4.84 2.53 10.657 3.8 17.53 3.8 6.862 0 12.549-1.3 17.23-3.91 4.681-2.61 8.317-6.06 11.155-10.4 2.809-4.29 4.83-9.2 6.086-14.7a77.153 77.153 0 0 0 1.872-17 59.664 59.664 0 0 0-2.23-16.2l-.001.07ZM540.016 310c-9.093 6.75-20.518 10.1-34.362 10.1-9.721 0-18.127-1.53-25.298-4.6-7.132-3.07-13.148-7.37-18.028-12.9-4.86-5.53-8.506-12.1-10.956-19.8-2.43-7.68-3.795-16-4.113-25.1 0-9.06 1.404-17.3 4.233-24.9 2.818-7.52 6.782-14 11.852-19.6 5.1-5.53 11.155-9.82 18.127-12.9 6.982-3.07 14.641-4.61 22.908-4.61 10.857 0 19.82 2.2 26.992 6.58 7.141 4.38 12.848 9.96 17.23 16.7 4.313 6.77 7.301 14.2 8.945 22.1 1.643 8 2.31 15.6 2.002 22.8h-90.935c-.158 5.21.465 10.2 1.872 14.8 1.407 4.6 3.675 8.81 6.803 12.4 3.127 3.6 7.121 6.47 11.952 8.62 4.85 2.15 10.558 3.22 17.131 3.22 8.446 0 15.339-1.92 20.717-5.76 5.398-3.84 8.954-9.68 10.657-17.5h19.72c-2.668 13.3-8.545 23.4-17.628 30.1l.179.25Zm-4.87-76.4c-1.793-4.13-4.214-7.7-7.261-10.7-3.048-2.98-6.644-5.36-10.757-7.12-4.143-1.76-8.715-2.65-13.745-2.65-5.16 0-9.81.882-13.944 2.65-4.143 1.76-7.699 4.18-10.657 7.24-2.968 3.06-5.309 6.63-7.032 10.7-1.723 4.06-2.739 8.39-3.048 13h69.62c-.315-4.6-1.374-8.96-3.166-13.1l-.01-.02Zm56.662-35.6v18.9h.377c8.337-14.4 21.514-21.7 39.641-21.7 8.028 0 14.741 1.08 20.02 3.23 5.348 2.15 9.681 5.15 12.948 8.99 3.307 3.84 5.627 8.41 6.962 13.7 1.335 5.3 2.002 11.2 2.002 17.6v78.4h-20.12v-80.6c0-7.37-2.2-13.2-6.593-17.5-4.402-4.3-10.458-6.45-18.127-6.45-6.125 0-11.454.926-15.936 2.77-4.472 1.84-8.207 4.45-11.155 7.83-2.978 3.38-5.22 7.33-6.703 11.9-1.494 4.53-2.241 9.49-2.241 14.9v67.3h-20.12v-119l19.045-.27ZM812.92 316c-9.084 3.76-18.227 5.64-27.49 5.64-14.64 0-27.788-2.5-39.441-7.48-11.653-4.99-21.514-11.9-29.482-20.6-8.018-8.75-14.143-19-18.426-30.9-4.273-11.8-6.414-24.6-6.414-38.2 0-14 2.131-27 6.394-39s10.359-22.5 18.426-31.4c7.998-8.93 17.829-15.9 29.482-21 11.653-5.08 24.8-7.62 39.441-7.62 9.791 0 19.323 1.45 28.486 4.34 9.173 2.9 17.43 7.15 24.8 12.8 7.39 5.61 13.446 12.5 18.327 20.8 4.81 8.23 7.749 17.7 8.824 28.3h-40.039c-2.5-10.5-7.31-18.3-14.442-23.6-7.131-5.24-15.737-7.86-25.896-7.86-9.442 0-17.43 1.79-24.003 5.38s-11.952 8.41-16.036 14.4c-4.103 6.04-7.082 12.9-8.944 20.6-1.873 7.7-2.809 15.7-2.809 23.9 0 7.88.935 15.5 2.809 23 1.872 7.44 4.86 14.1 8.964 20.1 4.103 5.95 9.452 10.7 16.036 14.3 6.593 3.59 14.64 5.38 24.103 5.38 13.944 0 24.601-3.44 32.27-10.3 7.58-6.88 11.952-16.9 13.247-29.9h-42.23v-30.8h80.078v101h-26.593l-4.263-21.2c-7.48 9.44-15.737 16-24.9 19.8l-.279.12Zm124.5-185v152h93.03v34.7H895.986v-187l41.434.3Z"/>
    <path fill="#5586a4" fill-rule="nonzero" d="M739.216 341c-64.043 38.2-160.356 60-266.928 60-193.224 0-348.6-78.8-348.6-176S280.06 49 472.288 49c107.568 0 203.184 22.1 267.924 60.6-69.92-64.4-195.216-110-338.64-110-219.12-.035-397.404 101-397.404 225-.019 124 178.284 225 397.404 225 142.428.024 267.924-45.1 337.644-109v.4ZM1084 300c0 3.14-.79 6.07-2.36 8.78-1.57 2.71-3.71 4.85-6.42 6.41-2.71 1.56-5.64 2.34-8.78 2.34-3.13 0-6.04-.781-8.76-2.34-2.71-1.56-4.85-3.7-6.42-6.41a17.25 17.25 0 0 1-2.36-8.78c0-3.13.78-6.05 2.36-8.77 1.57-2.72 3.71-4.86 6.42-6.42 2.71-1.56 5.63-2.34 8.76-2.34 3.14 0 6.07.781 8.78 2.34 2.71 1.56 4.85 3.7 6.42 6.42 1.57 2.72 2.36 5.64 2.36 8.77Zm-3.4 0c0-3.91-1.38-7.24-4.15-10-2.77-2.77-6.1-4.15-10-4.15-3.91 0-7.24 1.38-10 4.15-2.77 2.77-4.15 6.1-4.15 10 0 3.9 1.38 7.24 4.15 10 2.77 2.77 6.1 4.15 10 4.15 3.91 0 7.24-1.38 10-4.15 2.76-2.77 4.15-6.1 4.15-10Zm-22.1-9.38h8.39c2.37 0 4.1.478 5.16 1.44 1.06.957 1.6 2.24 1.6 3.85 0 1.26-.41 2.34-1.22 3.26-.81.919-2.09 1.59-3.84 2 .72.276 1.25.567 1.59.873.47.43.97 1.06 1.49 1.91.03.061 1.04 1.87 3.03 5.42h-5.52c-1.79-3.57-3-5.7-3.61-6.4-.61-.696-1.23-1.05-1.84-1.05-.14 0-.33.023-.57.069v7.38h-4.67l.01-18.752Zm4.67 7.95h2.02c1.35 0 2.3-.218 2.85-.654.55-.438.83-1 .83-1.69a2.101 2.101 0 0 0-.8-1.69c-.52-.437-1.43-.654-2.7-.654h-2.21l.01 4.688Z"/>
  </symbol>
  <symbol id="svg" viewBox="0 0 300 300">
    <path
      fill="#ffb13b"
      stroke="#000"
      stroke-width="38.01"
      d="M165.851 111.732v22.417h-9.285l9.285 9.285v13.132l-9.285 9.285h-13.132l6.566 6.566-15.851 15.851v45.882a22.422 22.422 0 0 0-6.566 15.851c0 12.298 10.119 22.417 22.417 22.417 12.298 0 22.417-10.119 22.417-22.417a22.422 22.422 0 0 0-6.566-15.851v-45.882L150 172.417l6.566-6.566h9.285v-9.285l6.566-6.566-6.566-6.566v-9.285h22.417l32.443-32.443a22.422 22.422 0 0 0 15.851-6.566c8.696-8.695 8.696-23.006 0-31.702-8.696-8.696-23.007-8.696-31.702 0a22.422 22.422 0 0 0-6.566 15.851l-32.443 32.443Zm22.417 22.417L172.417 150l15.851 15.851h-22.417v22.417l32.444 32.443a22.427 22.427 0 0 0 6.565 15.852c8.696 8.696 23.007 8.696 31.703 0 8.696-8.696 8.696-23.007 0-31.703a22.427 22.427 0 0 0-15.852-6.565l-32.443-32.444h45.882a22.422 22.422 0 0 0 15.851 6.566c12.298 0 22.417-10.119 22.417-22.417 0-12.298-10.119-22.417-22.417-22.417a22.422 22.422 0 0 0-15.851 6.566h-45.882Zm-54.119-22.417L150 127.583l-6.566 6.566h-9.285v9.285L127.583 150l6.566 6.566v9.285h-22.417l-32.443 32.444a22.427 22.427 0 0 0-15.852 6.565c-8.696 8.696-8.696 23.007 0 31.703 8.696 8.696 23.007 8.696 31.703 0a22.427 22.427 0 0 0 6.565-15.852l32.444-32.443v-22.417h9.285l-9.285-9.285v-13.132l9.285-9.285h13.132L150 127.583l15.851-15.851V65.851A22.422 22.422 0 0 0 172.417 50c0-12.298-10.119-22.417-22.417-22.417-12.298 0-22.417 10.119-22.417 22.417a22.422 22.422 0 0 0 6.566 15.851v45.881Zm-22.417 22.417H65.851A22.422 22.422 0 0 0 50 127.583c-12.298 0-22.417 10.119-22.417 22.417 0 12.298 10.119 22.417 22.417 22.417a22.422 22.422 0 0 0 15.851-6.566h45.881L127.583 150l-15.851-15.851h22.417v-22.417l-32.443-32.443a22.422 22.422 0 0 0-6.566-15.851c-8.695-8.696-23.006-8.696-31.702 0-8.696 8.696-8.696 23.007 0 31.702a22.422 22.422 0 0 0 15.851 6.566l32.443 32.443Z"
    />
    <path
      fill="#ffb13b"
      d="m134.149 111.732-32.443-32.443a22.422 22.422 0 0 0-6.566-15.851c-8.695-8.696-23.006-8.696-31.702 0-8.696 8.696-8.696 23.007 0 31.702a22.422 22.422 0 0 0 15.851 6.566l32.443 32.443H65.851A22.422 22.422 0 0 0 50 127.583c-12.298 0-22.417 10.119-22.417 22.417 0 12.298 10.119 22.417 22.417 22.417a22.422 22.422 0 0 0 15.851-6.566h45.881l-32.443 32.444a22.427 22.427 0 0 0-15.852 6.565c-8.696 8.696-8.696 23.007 0 31.703 8.696 8.696 23.007 8.696 31.703 0a22.427 22.427 0 0 0 6.565-15.852l32.444-32.443v45.882a22.422 22.422 0 0 0-6.566 15.851c0 12.298 10.119 22.417 22.417 22.417 12.298 0 22.417-10.119 22.417-22.417a22.422 22.422 0 0 0-6.566-15.851v-45.882l32.444 32.443a22.427 22.427 0 0 0 6.565 15.852c8.696 8.696 23.007 8.696 31.703 0 8.696-8.696 8.696-23.007 0-31.703a22.427 22.427 0 0 0-15.852-6.565l-32.443-32.444h45.882a22.422 22.422 0 0 0 15.851 6.566c12.298 0 22.417-10.119 22.417-22.417 0-12.298-10.119-22.417-22.417-22.417a22.422 22.422 0 0 0-15.851 6.566h-45.882l32.443-32.443a22.422 22.422 0 0 0 15.851-6.566c8.696-8.695 8.696-23.006 0-31.702-8.696-8.696-23.007-8.696-31.702 0a22.422 22.422 0 0 0-6.566 15.851l-32.443 32.443V65.851A22.422 22.422 0 0 0 172.417 50c0-12.298-10.119-22.417-22.417-22.417-12.298 0-22.417 10.119-22.417 22.417a22.422 22.422 0 0 0 6.566 15.851v45.881Z"
    />
    <path
      d="M50 291.5c-23.5 0-41.5-18-41.5-41.5V150h283v100c0 22.031-15.82 39.229-37.161 41.292L250 291.5H50Z"
    />
    <path
      fill="#fff"
      d="M50.964 220.638a36.561 36.561 0 0 1-10.746-25.922c0-20.252 16.426-36.668 36.668-36.668 20.252 0 36.678 16.416 36.678 36.668h-21.48c0-8.388-6.808-15.186-15.198-15.186-8.33 0-15.184 6.854-15.184 15.184 0 4.022 1.596 7.882 4.438 10.728h.01c2.75 2.76 5.04 3.558 10.736 4.462 10.132 1.054 19.296 4.108 25.932 10.744a36.563 36.563 0 0 1 10.746 25.924c0 20.252-16.426 36.678-36.678 36.678-20.242 0-36.668-16.426-36.668-36.678H61.7c0 8.388 6.798 15.196 15.186 15.196 8.336-.002 15.194-6.86 15.198-15.196a15.151 15.151 0 0 0-4.442-10.726h-.01c-2.75-2.75-6.696-3.698-10.746-4.452v-.01c-9.82-1.506-19.286-4.108-25.922-10.746Zm135.94-62.59-25.94 125.202h-21.48l-25.92-125.202h21.48l15.2 73.326 15.18-73.326h21.48Zm36.68 51.856h36.668v36.668h.01c0 20.254-16.426 36.68-36.678 36.68-20.254 0-36.668-16.426-36.668-36.68v-51.854h-.01c0-20.252 16.424-36.668 36.678-36.668 20.242 0 36.668 16.416 36.668 36.668H238.77c-.006-8.33-6.856-15.182-15.186-15.188-8.332.002-15.186 6.856-15.188 15.188v51.858c0 8.332 6.856 15.188 15.188 15.188 8.328 0 15.184-6.852 15.186-15.182v-15.186h-15.186v-21.492Z"
    />
  </symbol>
  <symbol id="typescript" viewBox="0 0 512 512">
    <rect width="512" height="512" fill="#3178c6" rx="50" />
    <path
      fill="#fff"
      d="M317 407v50c8.1 4.2 18 7.3 29 9.4s23 3.1 35 3.1 23-1.1 34-3.4 20-6.1 28-11c8.1-5.3 15-12 19-21s7.1-19 7.1-32c0-9.1-1.4-17-4.1-24s-6.6-13-12-18c-5.1-5.3-11-10-18-14s-15-8.2-24-12c-6.6-2.7-12-5.3-18-7.9-5.2-2.6-9.7-5.2-13-7.8-3.7-2.7-6.5-5.5-8.5-8.4-2-3-3-6.3-3-10 0-3.4.89-6.5 2.7-9.3s4.3-5.1 7.5-7.1 7.2-3.5 12-4.6c4.7-1.1 9.9-1.6 16-1.6 4.2 0 8.6.31 13 .94 4.6.63 9.3 1.6 14 2.9 4.7 1.3 9.3 2.9 14 4.9 4.4 2 8.5 4.3 12 6.9v-47c-7.6-2.9-16-5.1-25-6.5s-19-2.1-31-2.1-23 1.3-34 3.8-20 6.5-28 12c-8.1 5.4-14 12-19 21-4.7 8.4-7 18-7 30 0 15 4.3 28 13 38 8.6 11 22 19 39 27 6.9 2.8 13 5.6 19 8.3s11 5.5 15 8.4c4.3 2.9 7.7 6.1 10 9.5 2.5 3.4 3.8 7.4 3.8 12 0 3.2-.78 6.2-2.3 9s-3.9 5.2-7.1 7.2-7.1 3.6-12 4.8c-4.7 1.1-10 1.7-17 1.7-11 0-22-1.9-32-5.7-11-3.8-21-9.5-30-17zm-84-123h64v-41H118v41h64v183h51z"
    />
  </symbol>
</svg>