<svg xmlns="http://www.w3.org/2000/svg">
  <symbol id="angular" viewBox="0 0 250 250">
    <path
      fill="#dd0031"
      d="M125 30 31.9 63.2l14.2 123.1L125 230l78.9-43.7 14.2-123.1z"
    />
    <path
      fill="#c3002f"
      d="M125 30v22.2-.1V230l78.9-43.7 14.2-123.1L125 30z"
    />
    <path
      fill="#fff"
      d="M125 52.1 66.8 182.6h21.7l11.7-29.2h49.4l11.7 29.2H183L125 52.1zm17 83.3h-34l17-40.9 17 40.9z"
    />
  </symbol>
  <symbol id="ember" viewBox="0 0 519 201">
    <path
      fill="#e04e39"
      d="M444.621 189.642c0 1.634.304 3.095.897 4.397.607 1.316 1.403 2.43 2.4 3.355a10.613 10.613 0 0 0 3.486 2.126c1.316.492 2.69.738 4.122.738a11.682 11.682 0 0 0 4.137-.738 10.593 10.593 0 0 0 3.486-2.126c.998-.926 1.793-2.04 2.4-3.355.594-1.302.883-2.763.883-4.397 0-1.606-.29-3.067-.882-4.368-.608-1.317-1.403-2.43-2.401-3.341a10.612 10.612 0 0 0-3.486-2.127 11.398 11.398 0 0 0-4.137-.752c-1.431 0-2.806.246-4.122.752a10.618 10.618 0 0 0-3.485 2.127c-.998.91-1.794 2.024-2.401 3.34-.593 1.302-.897 2.763-.897 4.369Zm2.907 0c0-1.215.203-2.329.622-3.341a8.138 8.138 0 0 1 1.707-2.618 7.742 7.742 0 0 1 2.53-1.736 7.895 7.895 0 0 1 3.14-.622c1.099 0 2.14.203 3.11.622.983.42 1.822.998 2.545 1.736.723.737 1.287 1.605 1.72 2.618.42 1.012.637 2.126.637 3.34a8.766 8.766 0 0 1-.636 3.356c-.434 1.013-.998 1.91-1.721 2.647a7.605 7.605 0 0 1-2.546 1.75c-.969.42-2.01.622-3.11.622a7.903 7.903 0 0 1-3.138-.622 7.57 7.57 0 0 1-2.531-1.75c-.723-.738-1.288-1.634-1.707-2.647-.42-1.027-.622-2.14-.622-3.355Zm61.982-51.992s-12.609 9.781-23.708 8.69c-11.098-1.093-7.613-25.892-7.613-25.892s2.393-22.744-4.144-24.655c-6.52-1.895-14.568 5.927-14.568 5.927s-10.006 11.098-14.793 25.249l-1.317.433s1.526-24.815-.209-30.469c-1.3-2.827-13.267-2.602-15.226 2.393-1.96 5.012-11.532 39.818-12.191 54.402 0 0-18.712 15.885-35.015 18.487-16.318 2.618-20.237-7.614-20.237-7.614s44.378-12.4 42.852-47.864c-1.51-35.464-35.785-22.342-39.656-19.434-3.759 2.826-23.788 14.905-29.634 48.362-.193 1.124-.546 6.103-.546 6.103s-17.186 11.516-26.76 14.568c0 0 26.76-45.037-5.862-65.484-9.175-5.523-17.172-.441-21.929 4.224-2.921 2.865 39.549-43.591 29.751-85.159C304.048.129 294.153-1.991 285.078 1.221c-13.78 5.429-19 13.476-19 13.476s-17.845 25.891-21.99 64.408c-4.127 38.5-10.214 85.063-10.214 85.063s-8.497 8.272-16.32 8.705c-7.837.418-4.352-23.29-4.352-23.29s6.087-36.106 5.67-42.21c-.45-6.087-.884-9.348-8.063-11.516-7.18-2.184-15.018 6.955-15.018 6.955s-20.655 31.32-22.39 36.107l-1.108 1.975-1.076-1.317s14.568-42.644.658-43.286c-13.925-.659-23.065 15.226-23.065 15.226s-15.885 26.55-16.543 29.586l-1.076-1.3s6.52-30.888 5.22-38.517c-1.317-7.613-8.481-6.087-8.481-6.087s-9.14-1.093-11.532 4.786c-2.394 5.879-11.099 44.812-12.191 57.212 0 0-22.84 16.319-37.858 16.528-15.002.224-13.476-9.509-13.476-9.509s55.044-18.84 40.026-56.04C86.153 98.604 78.331 95.6 67.233 95.809c-11.1.225-24.864 6.987-33.778 27-4.273 9.54-5.815 18.615-6.698 25.458 0 0-9.621 1.975-14.841-2.378-5.236-4.352-7.919 0-7.919 0s-8.962 11.436-.048 14.906c8.93 3.485 22.84 5.107 22.84 5.107 1.285 6.088 4.995 16.448 15.87 24.687 16.318 12.4 47.622-1.14 47.622-1.14l12.834-7.196s.433 11.774 9.797 13.492c9.348 1.719 13.267-.032 29.586-39.624 9.573-20.238 10.231-19.146 10.231-19.146 1.077-.225-6.312 38.5-3.485 48.94 2.827 10.457 15.227 9.364 15.227 9.364s6.746 1.301 12.19-17.844c5.43-19.146 15.886-40.251 15.886-40.251 1.285 0-3.277 39.592 3.678 52.217 6.97 12.624 25.024 4.24 25.024 4.24s12.625-6.36 14.584-8.32c0 0 14.97 12.753 36.09 10.44 47.222-9.3 64.023-21.86 64.023-21.86s8.111 20.56 33.248 22.47c28.702 2.169 44.379-15.884 44.379-15.884s-.225 11.74 9.781 15.885c10.023 4.128 16.753-19.114 16.753-19.114l16.752-46.161c1.526 0 2.393 30.019 18.937 34.805 16.528 4.787 38.066-11.21 38.066-11.21s5.22-2.876 4.353-11.581c-.883-8.706-8.705-5.461-8.705-5.461Zm-58.207 46.033v11.889h2.358v-5.077h1.475l2.893 5.077h2.473l-3.182-5.193c.419-.04.831-.128 1.23-.26.362-.121.696-.312.983-.564.29-.246.506-.564.665-.955.174-.39.246-.853.246-1.403 0-1.287-.405-2.198-1.2-2.719-.81-.535-1.967-.795-3.457-.795h-4.484Zm2.358 4.961v-3.124h1.981c.275 0 .55.028.839.057.274.038.542.111.796.217.245.102.433.246.578.434.16.188.231.449.231.767 0 .723-.216 1.186-.65 1.374-.434.188-.998.275-1.678.275h-2.097Zm-199.132-13.602s-2.827-9.573 5.22-36.332c8.063-26.76 26.984-16.319 26.984-16.319s13.058 10.007 2.827 36.766c-10.216 26.758-35.031 15.885-35.031 15.885ZM73.754 115.87c5.862 5.654 3.694 17.829-7.405 25.442-11.082 7.63-16.094 6.103-16.094 6.103.659-25.891 17.636-37.215 23.499-31.545Zm290.862 6.746c8.915-16.319 15.885-7.405 15.885-7.405s7.614 8.272-1.092 20.672c-8.705 12.4-21.314 11.532-21.314 11.532s-2.393-8.496 6.521-24.799Zm-74.398-96.162c3.694 19.58-32.412 77.884-32.412 77.884.433-13.059 13.267-57.212 13.267-57.212s15.435-40.251 19.145-20.672Z"
    />
  </symbol>
  <symbol id="react" viewBox="0 0 23 21">
    <circle cy="10.232" cx="11.5" fill="#61dafb" r="2.05" />
    <path
      fill="none"
      stroke="#61dafb"
      d="M5.433 6.729C4.598 3.78 4.734 1.437 6 .706c1.266-.731 3.363.323 5.5 2.52A22.928 22.928 0 0 0 9.132 6.13c-1.341.112-2.59.318-3.699.599a22.968 22.968 0 0 0 1.33 3.503 22.968 22.968 0 0 0-1.33 3.503c1.109.281 2.358.487 3.699.599a22.928 22.928 0 0 0 2.368 2.904c-2.137 2.197-4.234 3.251-5.5 2.52-1.266-.731-1.402-3.074-.567-6.023C2.461 12.983.5 11.694.5 10.232c0-1.462 1.961-2.751 4.933-3.503ZM11.5 3.226c2.137-2.197 4.234-3.251 5.5-2.52 1.266.731 1.402 3.074.567 6.023 2.972.752 4.933 2.041 4.933 3.503 0 1.462-1.961 2.751-4.933 3.503.835 2.949.699 5.292-.567 6.023-1.266.731-3.363-.323-5.5-2.52a22.928 22.928 0 0 0 2.368-2.904 22.954 22.954 0 0 0 3.699-.599 22.968 22.968 0 0 0-1.33-3.503 22.968 22.968 0 0 0 1.33-3.503 22.954 22.954 0 0 0-3.699-.599A22.928 22.928 0 0 0 11.5 3.226ZM9.132 6.13a28.37 28.37 0 0 1 4.736 0c.437.629.863 1.298 1.269 2.002.407.704.774 1.407 1.1 2.1a28.114 28.114 0 0 1-1.1 2.1 28.238 28.238 0 0 1-1.269 2.002 28.37 28.37 0 0 1-4.736 0 28.238 28.238 0 0 1-1.269-2.002 28.114 28.114 0 0 1-1.1-2.1c.326-.693.693-1.396 1.1-2.1.406-.704.832-1.373 1.269-2.002Z"
    />
  </symbol>
  <symbol id="vue" viewBox="0 0 261.76 226.69">
    <path
      fill="#41b883"
      d="m161.096.001-30.224 52.35L100.647.002H-.005L130.872 226.69 261.749 0z"
    />
    <path
      fill="#34495e"
      d="m161.096.001-30.224 52.35L100.647.002H52.346l78.526 136.01L209.398.001z"
    />
  </symbol>
</svg>