<svg xmlns="http://www.w3.org/2000/svg">
  <symbol id="github" fill="none" stroke="currentColor" viewBox="0 0 24 24">
    <path
      d="M9 19c-5 1.5-5-2.5-7-3m14 6v-3.87a3.37 3.37 0 0 0-.94-2.61c3.14-.35 6.44-1.54 6.44-7A5.44 5.44 0 0 0 20 4.77 5.07 5.07 0 0 0 19.91 1S18.73.65 16 2.48a13.38 13.38 0 0 0-7 0C6.27.65 5.09 1 5.09 1A5.07 5.07 0 0 0 5 4.77a5.44 5.44 0 0 0-1.5 3.78c0 5.42 3.3 6.61 6.44 7A3.37 3.37 0 0 0 9 18.13V22"
    />
  </symbol>
  <symbol id="house" fill="none" stroke="currentColor" viewBox="0 0 24 24">
    <path
      d="m3 9 9-7 9 7v11a2 2 0 0 1-2 2H5a2 2 0 0 1-2-2z"
    />
    <path
      d="M9 22V12h6v10"
    />
  </symbol>
  <symbol id="linkedin" fill="none" stroke="currentColor" viewBox="0 0 24 24">
    <path
      d="M3.975 8v12"
    />
    <path
      d="M8.975 20v-7c0-3.292 2.708-6 6-6s6 2.708 6 6v7"
    />
    <circle
      cx="4"
      cy="5"
      fill="currentColor"
      r="1"
    />
  </symbol>
  <symbol id="mail" fill="none" stroke="currentColor" viewBox="0 0 24 24">
    <circle
      cx="12"
      cy="12"
      r="4"
    />
    <path
      d="M16 8v5a3 3 0 0 0 6 0v-1a10 10 0 1 0-3.92 7.94"
    />
  </symbol>
  <symbol id="phone" fill="none" stroke="currentColor" viewBox="0 0 24 24">
    <rect
      height="20"
      rx="2"
      ry="2"
      width="14"
      x="5" y="2"
    />
    <path
      d="M12 18h.01"
      stroke-linecap="round"
    />
  </symbol>
</svg>