<svg xmlns="http://www.w3.org/2000/svg">
  <symbol id="azure" viewBox="0 0 256 256">
    <path 
      d="M89.158 18.266h69.238L86.523 231.224a11.041 11.041 0 0 1-10.461 7.51H22.179a11.023 11.023 0 0 1-10.445-14.548l66.963-198.41a11.04 11.04 0 0 1 10.461-7.51z"
      fill="url(#azure-gradient-1)"
    />
    <path
      d="M189.77 161.104H79.976a5.083 5.083 0 0 0-3.468 8.8l70.552 65.847a11.091 11.091 0 0 0 7.567 2.983h62.167z"
      fill="#0078d4"
    />
    <path
      d="M89.158 18.266a10.95 10.95 0 0 0-10.483 7.654L11.817 224.006a11.01 11.01 0 0 0 10.393 14.728h55.274a11.814 11.814 0 0 0 9.069-7.714l13.33-39.29 47.625 44.418a11.267 11.267 0 0 0 7.089 2.586h61.937l-27.166-77.63-79.19.018 48.47-142.856z"
      fill="url(#azure-gradient-2)"
    />
    <path
      d="M177.592 25.764a11.023 11.023 0 0 0-10.444-7.498H89.984a11.024 11.024 0 0 1 10.445 7.498l66.967 198.421a11.024 11.024 0 0 1-10.445 14.549h77.164a11.024 11.024 0 0 0 10.444-14.549z"
      fill="url(#azure-gradient-3)"
    />
  </symbol>
  <symbol id="babel" viewBox="0 0 1354 528">
    <path
      d="m928.6 46.8-.3-2.9-4.7.4.3 2.9 4.7-.4Zm31.6 76 .1 1.6 3.3-.3c-.1-1 .3-2.6 1-4.6l-.3-2.9c-1.4.1-2.8 2.2-4.1 6.2Zm-123.3 95.7c-.2-2.7-8.6-13.2-25.2-31.7-.3-3.4 5.4-8.5 17.1-15.2l33.4-29.1c7.5-9.5 11.9-24.9 13.2-46.3l-.4-4.9c-1.3-14.8-12-26.7-32.3-35.8-12-8.1-33.6-12.6-64.8-13.4-25.8 2.2-59.5 11.4-101 27.7-11.4 8.2-24.4 16.4-39 24.6l.2 2.5c.9-.1 2.3-.6 3.9-1.7 1.7-.2 2.7.6 2.8 2.2l2.5-1.3 1.2-.1.1 1.1c.1 1.3-8.9 8.4-27.1 21.1l1.4 2.6-1.2.1-3-1.1c.1.9-1.2 1.5-3.7 1.7l.1 1.1 2.9 3.6c-.9.1-2.3-.3-4.2-1-4.2.4-8.3 2.6-12.4 6.8l1.7-7.4c6.1-26.3 10.3-49.6 12.5-69.8l-.3-1.3c-4.2-2.7-8.3-6.5-12.1-11.3.1-3.1.1-4.9 0-5.3l-.3-1.1-1.2.3c-13.2 19.8-38.6 53.6-76.3 101.4-28.7 34-43.5 52.9-44.4 56.7-11.7 12.1-17.3 19.4-16.7 21.9-3.1 2-4.4 4-3.9 6.2-.9.2-1.5-.1-1.7-1-5 8.1-12.4 13.3-22.3 15.6l-10.4 2.4c-1.4.3-2.1 1.3-2 3l.3 1.3 3.9-.9.3 1.1-8.8 3.4-15.6 3.6-8.2.5c-1.2 1.2 6.5-.1 3.5.6l-10.2 2.4c-6.2 1.4-9.6.9-10.2-1.6l-1.2.3c.2 1.1.3 1.9.1 2.6l-.6-2.5-8.2 1.9c-.6-3.8-11.7-17.6-33.2-41.4-.4-4.6 7.2-11.3 22.7-20l43.8-38.5c9.8-12.6 15.6-32.8 17.5-60.6l-.6-6.5c-1.7-19.6-15.9-35.4-42.6-47.6-15.8-10.7-44.2-16.4-85.2-17.3-34 2.9-78.4 15-133 36.1-15 10.9-32.1 21.7-51.3 32.4l.3 3.4c1.3-.1 3-.8 5.1-2 2.2-.2 3.4.8 3.6 2.8l3.4-1.9 1.7-.1.1 1.6c.1 1.6-11.8 10.9-35.9 27.9l1.9 3-1.7.1-3.7-1.3c.1 1-1.6 1.7-5.1 2l.2 1.8 4 4.4c-1.3.1-3.1-.3-5.4-1.1-7.8.7-15.4 6.3-22.9 16.9l1.9 3c6.5-6 10.3-9 11.4-9.1l.4 4.9c-1.1.1-2.8.8-5.1 2l4.1 6.2c7.9-8.5 16.6-15.8 26.1-21.9 4.7 1.2 7.2 2.7 7.3 4.3l3.6-.3c25.8-19.1 51.3-32.9 76.6-41.4l.3 3.4c-4.7 7-7.9 10.6-9.6 10.8.2 2.4 1 4.5 2.5 6.3.4 4.3-11.1 33.3-34.4 86.9C85 328.8 40.6 421 4.5 480.6c.1 1.2.8 2.8 2.1 4.8 8.9-2.1 14.5-4.3 16.9-6.4l1.9-.2.3 3.4 3.3-.3 3.4-1.9c.1 1 1.2 1.5 3.5 1.3l.3 3.4c.3 3.3-1.6 8.3-5.6 15.2-3.6 4.1-7.5 12.7-11.6 25.8l.1 1.6 3.3-.3c14.4-16.1 25.3-31.9 32.8-47.3 42-12.3 74-24.4 96.2-36.3 22.3-1.9 39.3-7.8 50.9-17.5l-.2-1.8-8.4 2.5-1.9.2-.2-1.8c16.4-2.5 27.7-6.1 34-11.1 31.9-24.6 56-42 72.3-52.3 33.5-24.6 55.3-48.6 65.2-71.9 1.8-.4 3.6-.8 5.6-1.3 4.7-.2 7.3-.3 8-.5-.2-.9.2-1.4 1.1-1.6 7.5-.8 3.9.5 8.7-.6l12.6-2.9c-.8.2-1.1.6-.9 1.4l1.9-1.2c-.4 0-.7-.1-1-.2l2.1-.5-1 .6c1.4.2 2.9.1 4.6-.3l.9 3.7-57.3 91.1-12.7 15.9-6.2 20.8 1.2-.3 6.2-2.6-2 8.1.6 2.4 1.7 2.1c-.8.2-1.1.7-.9 1.6l.3 1.3 2.6-.6c3.8-3.3 5.4-6.3 4.8-9 4.1.7 6.8 1 8.2.6l.3 1.3c-2.5.6-3.8 2.6-4 6l.3 1.3 1.4-.3C371 403.3 422 325.6 462.9 272.9c-1.3-5.7 20-13.6 64-23.8l1.4-.3c1.6 6.9-1.8 23.6-10.2 50.1-5.4 16-8 24.8-7.6 26.2-7 21.3-10.3 32.8-9.9 34.6L485 410.8c-10.1 26.2-17.8 53.7-23.2 82.7.9-.2 2.3-.1 4.3.4l2.2-1.9c.2.9.8 1.2 1.7 1l-.9-3.7 6.8-.2c2-.5 3.7-3 5.1-7.6-.3-6.9 1.1-10.6 4.2-11.4 4.2-16.4 6.8-24.6 7.7-24.9 3.9-16.3 6.8-25.6 8.7-27.9 5.9-21.2 10.2-32.1 13-32.8l.6 2.6-4.3 11.1c-7.5 33.3-15.1 59.6-22.8 78.9l2.2 9.6 1.4-.3c18.6-40 45.4-119.2 80.3-237.6 1-10.4 6-18.5 14.9-24.2l-2-2.1-.3-1.1c4-.9 6.8-2.5 8.4-4.7-.2-.9-3.7-2.2-10.5-4l17.4-74.6c3.8-3.4 6-5.2 6.7-5.2l.3 3.8c-.9.1-2.3.6-3.9 1.7l3.3 4.7c6-6.5 12.5-12.1 19.6-16.8 3.6 1 5.4 2.2 5.6 3.4l2.6-.2c19.8-14.5 39.2-24.9 58.3-31.2l.2 2.5c-3.5 5.3-5.9 8-7.2 8.1.2 1.8.7 3.4 1.6 4.8.3 3.3-8.3 25.3-25.9 66.1-40.2 94.5-73.9 164.4-101.3 209.8.1.9.7 2.1 1.8 3.7 6.7-1.6 11-3.3 12.7-4.9l1.2-.1.2 2.5 2.8-.2 2.5-1.3c.1.7 1 1 2.7.9l.2 2.7c.2 2.4-1.2 6.2-4.3 11.4-2.9 3.1-5.9 9.6-9.1 19.5l.1 1.3 2.6-.2c10.9-12.2 19.2-24.2 24.9-36 31.9-9.4 56.2-18.5 73-27.5 17.1-1.5 30-5.9 38.8-13.3l-.1-1.3-6.5 1.9-1.4.1-.1-1.3c12.4-1.8 21.1-4.6 25.8-8.3 24.2-18.6 42.5-31.9 54.9-39.7 38.6-28.1 56.6-55.1 54.4-81Zm-6.6 1.7.9 10.1c-1.2 2.5-2.5 3.8-3.7 3.9L826 217c2.8 1 4.2 2 4.3 3.2ZM73.1 138.8l-1.7.1-.3-3.1 6.9-.6.1 1.6c-1.1.1-2.8.7-5 2ZM39.4 475.9c-4-1.8-7.6-2.5-10.7-2.2l-.4-4.9c-.2-1.9.9-3.2 3.3-3.7 2.2-.2 3.5 1.4 3.7 4.6 5.8-7.1 9-10.7 9.6-10.8l3.7 1.5c-1.2 10-4.3 15.1-9.2 15.5ZM399.5 99.2c-1.7.2-5.1-5.1-10-15.6l-.3-3.1c3.2-.3 6.5 4.9 10 15.6l.3 3.1Zm-4.8-37.3-1.4 3.3-48.9-20.4c32.6 1.1 49.4 6.8 50.3 17.1ZM188.2 239.2l-6.9.6-.3-3.1 6.9-.6.3 3.1Zm-5.6-106.5 1.7-.1.4 4.9c-1.6.1-3.7 2.5-6.3 7.1l-.3-3.4c3.1-3.7 4.7-6.5 4.5-8.5Zm-14.5 34.2.6 6.5-1.7.1-.6-6.5 1.7-.1Zm-7.6 12.2 3.3-.3c-.3 5.4-1.8 8.3-4.5 8.5l-1.7.1c2.1-3.6 3.1-6.4 2.9-8.3Zm-5.7 17 1.9-.2.1 1.6-3.1 5.2-3.3.3-.1-1.6c3.3-.3 4.8-2 4.5-5.3Zm-5.6 15.3-1 8.2-1.7.1-.7-8.1 3.4-.2ZM93.1 370.9c-2.2 11.2-4.6 16.9-7.1 17.1l-.1-1.6c-.6-5.5 1.8-10.7 7.2-15.5Zm-10.3 22.3.1 1.6c.2 2.2-.8 3.5-3 3.6l-.1-1.6c-.2-1.9.8-3.1 3-3.6Zm-3 46.3 5.2-.5.2 1.8c-1.3.1-3 .8-5.1 2l-3.3.3c-.2-1.7.9-3 3-3.6Zm148-45.7c-29.2 14.4-46.4 24.2-51.5 29.3-31.6 11-47.3 17.8-47 20.5-28.1 11.1-46.6 19.3-55.5 24.4-2.1.2-5.1-.6-9.1-2.4-.5-5.7 2.1-10.3 7.6-14 4.9-.4 9.6.3 14.1 2.2 5.2-2.7 14.3-5.7 27.2-8.9l-.3-3.4-10.4.9c1.3-1.8 11.3-6.5 30.1-14.1l5.2-.5.1 1.6c-8.9.8-13.8 3.4-14.9 8.1.2 2.1 1.4 3 3.6 2.8 6.7-4.2 10-6.7 9.9-7.4 12.7-2.4 47.8-20.8 105.3-55.1l.3 3.1c.1 1.5-4.8 5.7-14.7 12.9Zm-88.2 29c8.4-.7 15.6-4.1 21.6-10 2.4-.2 3.7.7 3.8 2.8-4.1.4-12 3.8-23.5 10.4l-1.7.1-.2-3.3Zm142.3-109.3-44.1 34.9c-32.8 21.5-50.4 32.3-52.9 32.5-52.2 28.7-84.7 43.6-97.3 44.7l-1.9.2c1.6-5.9 24.8-53.4 69.8-142.8 19.8-1.7 51-10.9 93.5-27.7l10.4-.9c21.5-1.9 37.6 2.3 48.2 12.3l.6 6.5c-8 23-16.8 36.4-26.3 40.3ZM195.7 265l7.1-.6.1 1.6-7.1.6-.1-1.6Zm99.7-16.9 5.2-.5c4.8 2.3 7.3 4.3 7.5 6.1l.1 1.6c-4.6.4-8.9-2-12.8-7.2Zm14.1-80.3c-4.6 5.5-17.2 14.9-37.8 28.1-6.8.6-32.1 10.4-75.9 29.6-2.2-1-4.5-1.4-7-1.2l-.3-3.1c-.5-6.3 2.3-14.2 8.5-23.8 3.4-18 7.1-28.3 11.2-30.8l36.5-82.1c-.4-5.1 7.4-9 23.4-11.7l5.2-.5.4 4.7c15.7-2.4 25.5-3.8 29.3-4.1 29-2.5 44.1 3.4 45.3 17.5l3.3-.3-.7-8.3 3.6-.3c8.5 4.7 13.1 10.4 13.7 17.1.4 4.6-2.1 10.3-7.4 17.1-2.2.2-3.5-1.4-3.7-4.6l-3.6.3-.8 10c-14.7 22-25.4 33.3-32 33.9-6 8.3-9.7 12.4-11.2 12.5Zm22.4 57.5c-3-2-5.4-2.9-7.2-2.8l-.4-4.9 3.3-.3 7.3 4.3c.3 2.3-.7 3.5-3 3.7Zm23.2 27.5c3.2 1.3 5.1 2.7 5.5 4l-1.6.4.1.1c-.3 0-.7.1-1 .2l-2.4 1.9-.6-6.6Zm2.2 13.8-.3-1.3 4.2-1 .3 1.3-4.2 1Zm10.1 11.3c4.3-.7 6.4-1 14.4-2.8l.3 1.3-15.2 3.5c.2-.7.4-1.4.5-2Zm14.8 6.3c-6.4.6-5-.2-15.2 2.1l-.3-1.3 12.7-4.1 6.1-1.4.6 2.4c-2.7.6-.7.6-3.9 2.3Zm13.5-3.2c-1.5.4-2.7-.3-3.4-2l3.9-.9c1.7-.4 2.8.3 3.2 2l-3.7.9Zm36.6-39.4-.3-1.3 6.3-1.5.6 2.4-6.6.4Zm39.1 239.8c.4-1.8.5-3.1.3-4l1.4-.3c1.7-.4 2.7.2 3.1 1.8l.3 1.3-5.1 1.2Zm27.4-229.5-2.8-.5c-4.5 1.8-8.3 3.1-11.4 3.8l-2.6.6c-1.5.4-2.7-.2-3.3-1.8l18.3-4.2 6-2.8 2 2.3c-2.9.6-5 1.5-6.2 2.6Zm14.1-4.5-.3-1.3c.9-.2 2.1-.9 3.4-2.2l13-3 .3 1.3c-6.9 1.7-12.4 3.4-16.4 5.2Zm2-26.3c-.9.2-2.1 1-3.6 2.2-.2-.9-2-.9-5.4-.1-.6-2.5 9-6 28.9-10.6l2.8-.6.6 2.4c-14 4.1-21.8 6.4-23.3 6.7Zm35-37.8c-1.4 15.9-7 24.9-16.9 27.2l-.3-1.3-8.8 3.4-3.9.9c-2 .5-3.8.4-5.4-.1l-.8-3.5c-.3-1.3 12.4-18.9 38.2-52.7l3 .5c1.1 4.6-.6 13.1-5.1 25.6Zm61.9-53-1.2.1-.2-2.5 5.2-.5.1 1.3c-.9.2-2.2.7-3.9 1.6Zm-25.5 256.1c-3-1.4-5.7-2-8-1.8l-.3-3.8c-.1-1.3.7-2.2 2.4-2.7 1.7-.2 2.7 1 2.9 3.6 4.3-5.5 6.7-8.3 7.2-8.3l2.7 1.1c-1 7.6-3.3 11.6-6.9 11.9Zm273.4-286c-1.3.1-3.8-3.9-7.7-12l-.2-2.5c2.5-.2 5.1 3.7 7.7 11.7l.2 2.8Zm-3.6-28.6-1.2 2.6-37-15.5c24.7.8 37.5 5.1 38.2 12.9ZM699.2 206.5l-5.2.5-.2-2.5 5.2-.4.2 2.4Zm-4.3-80.9 1.4-.1.3 3.8c-1.3.1-2.9 1.9-4.8 5.4l-.2-2.5c2.3-2.9 3.4-5.1 3.3-6.6Zm-10.9 26 .4 4.9-1.4.1-.4-4.9 1.4-.1Zm-5.9 9.3 2.6-.2c-.3 4.2-1.4 6.4-3.3 6.6l-1.4.1c1.5-2.8 2.2-5 2.1-6.5Zm-4.2 12.8 1.2-.1.1 1.3-2.3 4-2.6.2-.1-1.3c2.7-.2 3.9-1.6 3.7-4.1Zm-4.2 11.6-.9 6.4-1.2.1-.5-6.3 2.6-.2ZM627 306.6c-1.7 8.4-3.5 12.7-5.4 12.9l-.1-1.1c-.3-4.2 1.5-8.2 5.5-11.8Zm-7.9 16.9.1 1.1c.2 1.8-.6 2.8-2.4 2.9l-.1-1.3c-.1-1.3.7-2.2 2.4-2.7Zm-2.2 35.2 4-.3.1 1.3c-.9.1-2.3.6-3.9 1.5l-2.6.2c-.1-1.4.7-2.3 2.4-2.7ZM729.2 324c-22 10.9-35.1 18.3-39.2 22.1-24 8.4-35.9 13.6-35.7 15.7-21.3 8.5-35.3 14.6-41.9 18.5-1.6.1-3.9-.5-6.9-1.9-.4-4.3 1.6-7.8 5.8-10.4 3.8-.3 7.4.2 10.7 1.6 4-2 10.9-4.2 20.7-6.7l-.2-2.5-8.2.6c1-1.4 8.7-5 23-10.8l4-.3.1 1.1c-6.8.6-10.6 2.6-11.4 6.2.1 1.6 1.1 2.4 2.8 2.2 5-3.3 7.4-5.2 7.4-5.8 9.6-1.7 36.2-15.7 79.9-41.9l.2 2.5c.1 1.1-3.6 4.3-11.1 9.8Zm-67 22c6.5-.6 12-3.1 16.6-7.5 1.7-.2 2.7.6 2.8 2.2-3 .3-8.9 2.8-17.8 7.6l-1.4.1-.2-2.4Zm108.2-83.1-33.3 26.8c-24.9 16.3-38.4 24.5-40.5 24.7-39.6 21.8-64.2 33.1-73.9 33.9l-1.4.1c1.2-4.5 18.9-40.6 53.1-108.4 14.9-1.3 38.5-8.4 70.9-21.2l8.1-.7c16.3-1.4 28.5 1.8 36.5 9.5l.4 4.9c-6.1 17.2-12.7 27.3-19.9 30.4ZM705 226.1l5.2-.5.1 1.3-5.2.5-.1-1.3Zm75.7-12.9 4-.3c3.7 1.8 5.6 3.4 5.7 4.7l.1 1.1c-3.5.3-6.8-1.5-9.8-5.5Zm10.5-60.9c-3.5 4.2-13 11.4-28.5 21.4-5.2.5-24.4 7.9-57.6 22.3-1.6-.6-3.4-.8-5.3-.7l-.2-2.5c-.4-4.8 1.7-10.8 6.3-18.1 2.6-13.8 5.5-21.5 8.5-23.3L742.3 89c-.3-3.7 5.6-6.7 17.6-9l4-.3.3 3.8c11.8-1.9 19.2-3 22.2-3.3 22-1.9 33.5 2.5 34.4 13.3l2.6-.2-.5-6 2.6-.2c6.4 3.5 9.8 7.7 10.2 12.7.3 3.6-1.5 8-5.3 13.1-1.7.2-2.7-1-2.9-3.6l-2.6.2-.8 7.5c-11.1 16.9-19.2 25.6-24.3 26-4.5 6.1-7.3 9.2-8.6 9.3Zm11.7 41.6-.3-3.8 2.6-.2 5.6 3.4c.1 1.6-.7 2.5-2.4 2.7-2.4-1.5-4.2-2.2-5.5-2.1ZM337.4 436.8l-2.6.6-2.2 1.9c.4 1.6 1.4 2.2 3.1 1.8 1.7-.4 2.4-1.4 2-3l-.3-1.3Zm-9.9-19.7.3 1.3c1.7-.4 2.4-1.4 2-3l-.3-1.3c-1.6.4-2.3 1.4-2 3Zm70.4-167.5 3-.7-.6-2.6-3 .7.6 2.6Zm907.4 76.2c-30.4 6.8-34.2 5.6-40.6 6.1l.2 2.5 2.8-.2 1.5-.1-.4-.3 3.3-1.3c30.1-3.3 33.6-2.1 33.3-5.5l-.1-1.2Zm-163.7 21.7.2 2.5h.4l-.2-2.5h-.4Zm-18.8-65.9-2.7-.9c-2.2 5.9-3.3 9.4-3.2 10.4l.1 1.1c2.1-.1 4-3.7 5.8-10.6Zm188.7 43.7.2 2.5 4.4.8-.2-2.5-4.4-.8Zm-206.9 25.3-6.8-.8-1.2 2.6.1 1.3 40.5-3.4-.2-2.5-32.4 2.8Zm-18.4-88.7-.1-1.3-1.4.1-2.5 1.6 1.4 2.4c1.9-.2 2.8-1.1 2.6-2.8Zm244.5 45 1.9-.2c1.1-.1 1.6-1 1.5-2.6l-1.1-2.4c-6.9.6-10.1.9-15.7 4l-.1-1.3-8.3.8c-.2-2.5-.9-3.8-2-3.7l-4.3.4c-5 .4-7.4.2-9.9 2.1-.1-.9-.4-1.3-.9-1.3l-4.8.4-2.8 1.6c-.1-.9-.4-1.3-.9-1.3l-1.7 1.5-.1-1.3-6.7-.5-1.6.1.2 2.5 3.4.9 3.2-.2c1.1.7 2.3.9 3.7.8l2.8-1.4.1 1.1c-15.7 3.9-15.6 3.2-26.4 5-1.2-.8-2.1-1.2-2.7-1.1l-.2.2c-1.2-.1-1.9-.9-2-2.2l5.6-.7c.4 0 .7.4 3.8 1 4.5-2.2 4.7-3.1 7.1-3.3l-.2-2.5c-15.4 3-9.2 1-28.5 2.7l-.9.1-.2-2.5c24.8-3 16.5-1.3 25-3.7.1.9.4 1.3.9 1.3 1-1 2.1-1.5 3.4-1.7l1.7-.1c8.7-.7 11.6 1 28.8-3.8l.1 1.1 2.8-1.4 2.6-.2c-.2-2.5 3.6-2.9 4.9-3l-.2-2.7c-30.2 6.1-38.1 4.4-46.5 6.8l-.1-1.1c-7.9 1.4-8.2.8-10.2.9-.6.1-1.5.6-2.5 1.6-.1-.9-.4-1.3-1-1.3-.3 0-.4.1-.5.1l-25.6 4.2c-.1-.7-.4-1.1-1-1-13.3 2.8-9.7 3.3-27.5 4.9-.8.1-1.9.5-3.3 1.4-.1-.7-.5-1.1-1.4-1l-10.9.9-7.3 1.8c-.1-.7-.5-1.1-1.4-1-4.1 1.1-7.7 1.8-10.6 2h-.2c-1.8.2.9-.5-.5-1.1l-2.2 1.3c-3.2.3-1.5-.2-12.5-.1-19.3 2.4-17.2 2.7-19.3 2.8l-7.2-.5c.1.7-.3 1.2-1.1 1.2-8.2-1.1-12.4-2.4-12.5-3.9 1.1-7.8 3-11.8 5.7-12l1.4-.1-1.2 2.6 1.4-.1c2.6-1.4 3.8-2.7 3.7-3.9l-.2-2.7-2.6.2-.2-2.5c-.2-1.9.1-3.6.8-5l5.9-9.5.2 2.5 2.8-.2-.2-2.5-1.6-2.3c2.1-1.8 3.7-2.8 5-2.9l-.1-1.3-3.8.3-.3-3.8c7.6-15.8 11.2-25 11-27.6l2.7 1.1c1.7-.1 2.5-1.1 2.4-2.9l-2.6.2-.1-1.1c-.2-1.9.2-3.7 1-5.3 4.1-4.3 6-8.6 5.6-13.1.8-.1 1.2.3 1.3 1.2 3.5-2 6.2-7.3 8.2-16.1 6.2-11.2 15-33.6 26.5-67.1 22-59.2 21.1-65.5 24.2-79.5l-2.6.2c.2 1.8-.2 3.5-1 5.1-1.8-.7-3.2-1.1-4.2-1l-.1-1.1c-.4-5.1 1.7-11.2 6.5-18.4l1.2-.1 2.2 8.6 2.6-.2c-.1-.6.6-4 2-10.3-.1-1.3-1.1-2.1-3.1-2.2l-2.5 1.6c-.2-1.8-.1-6.5.2-14l-1.3.1c-2.2-2.2-3.3-4-3.4-5.5l-14.3 1.4c-.1-1-.6-2.5-1.6-4.4-.1-1.3 3.1-2.6 9.7-3.9l2.9 1.1 2.7-1.6c.1.9.6 1.3 1.6 1.2l2.7-1.6c.1.9.6 1.3 1.6 1.2l1.3-.1-.2-2.9c-2 .2-7.3.2-15.7-.1l-2.7 1.8-.1-1.6c-67.1 5.5-105.2 8.6-114.3 9.5-1.2.1-5.9 0-14.2-.2.1 1.1-.9 1.7-2.9 1.9l-2.9-1.3-9.8 2.5c-2.3.2-6.2.1-11.6-.5-1.5 1.2-3.3 1.9-5.5 2.1-1.2.1 14.3-.8 28.7-1.8-1.5 1.2-3.8 1.9-7 2.2-2.2.2-4.1-.1-5.7-1-2.2 1-9.3 2.6-21.2 5l-2.9-1.1-46.8 7.2c-1.8-.9-3.9-1.2-6.3-1-2.5.2-6.7 1.1-12.5 2.7l-22.6 9.4 1.7 2.8c1.1-.1 2.7-.7 4.6-1.8l8 .7-1 7.5c-7.4 3.3-11.7 8.2-12.9 14.4-11.1 4.9-16.6 8.4-16.6 10.5l.1 1.3 1.7-.1 3-1.6 3.5 4.2.5 5.8c.2 1.8-18.5 41.1-55.9 117.9-32.4 74-49.4 114.5-51 121.8-11.1 3.1-17.5 7.6-19.4 13.6.2 1.9 3.5 3.2 9.9 3.7l.3 2.9-2.9 4.8.5 5.8c.3 3 8.4 5.3 24.3 6.9-.1-1 .4-1.6 1.5-1.7.3 3.6-.7 10.6-3 21l1.7-.1c6.6-9 9.7-15.2 9.4-18.6l1.4-.1c1.6-.1 3.3 1.7 5.3 5.6-2 .8-9 16.7-21 47.8l1.7 2.8 1.7-.1c14.7-37.2 23.9-57.8 27.7-61.7 19.3-1.7 52.7-5.1 100.1-10.2l3-1.8c.1 1 .7 1.5 1.8 1.4l3.1-.3 3-1.8c.1 1 .7 1.5 1.8 1.4l35.9-3.1c9.5-.8 14-3.7 13.6-8.6-.1-1.3 5.5-2.8 16.8-4.4 1.1-.1 2.7.2 4.9.9-.1-.9 5.6-1.8 17-2.8.3-6 2.2-9.2 5.6-9.5l-.3-2.9c-3.2.3-6.8 1.1-11 2.5-7.5-.4-12.3-1-14.3-1.7-2 1.1-3.5 1.7-4.6 1.8l-25 .8-3 1.6c-.1-.9-.7-1.3-1.8-1.2l-1.4.1-3.2 1.6c-.1-.9-2.7-1.6-7.9-2.3l-3.2 1.9-6.2.5-.1-1.6c32.2-3.5 48.1-7.9 47.7-13.1 2.1-.2 3.2.8 3.4 2.9l9.4-2.4-.3-2.9-77.1 2.1c.1 1-.4 1.6-1.5 1.7l-9.4-.8c-2.4.2-4.4.9-6 2.1l-3.5-1.3c-9.7.8-16.9 2-21.7 3.5-6.6-.5-13.9-.4-22 .3l-17.3 1.5-8-.9c-.4-5.1 9.5-30.2 29.9-75.2 5.9-15.2 11.3-24.7 16.5-28.3 1.1-.1 2.7.3 4.9 1.2l12.3-4.2 6.3 1c10.6-.9 22.9-3.9 37-9.1 3.5-.3 6.1-.1 8 .7l9.4-2.2 28-2.4c11.9-1 24.8-3.6 38.8-7.9l-.3-2.9c-5.2.5-7.9-.4-8.1-2.5-.3-3.9-4.1-5.5-11.4-4.9l-.3-2.9 7.7-2.2 20.2-1.7-.3-2.9c-.8.1-4.9 0-12.5-.3l-.3-3.1 7.8-.7c2.1-.2 3-1.2 2.8-3.2-10.5.3-15.8-.2-15.9-1.6-73.2 3.6-109.9 4.3-110.1 2-1.1.1-2.6.8-4.6 2l-1.9-3c19.4-41.2 30.8-62 34.1-62.3.1 1.6-.7 4.2-2.5 7.7l.1 1.3 3.1-.3c7.7-18.4 14.2-27.9 19.6-28.3 23-2-3.2-3.5 46-11.2 2 .9 3.4 1.3 4.4 1.2 19.3-3.9 46.2-8 80.7-12.2l-.2-2.9-18.4 1.7-.2-2.9c2.2-.2 4-.9 5.5-2.1l.1 1.6c1-.1 2.4-.8 4.2-2 3.2-.3 5.6 0 7.3.9 6.4-1.7 11.6-2.7 15.4-3.1l11.5-1.1c2.8-1.8 4.1-3.4 4-4.9l-.1-1.3c-2.9.3-6.2.1-10.1-.6-.1-1.6.7-2.7 2.6-3.2l21.4-2 9.8-2.5c.1 1.1.6 1.5 1.4 1.5 1-.1 2.4-.8 4.2-2 .5.1 1.1.1 1.6.2-1.3 2.7-2.8 6.6-4.3 11.7l-2.8.2c-.2-1.9-.7-3.6-1.6-5.1l-1.4.1c-26 72.4-37.6 106.1-61.6 161.7-4.4 14.2-8.1 22.1-11.3 23.8.1 1.6 1.1 2.4 2.8 2.2.6 7-1 13.9-4.9 20.7-11.1 32-18.5 49.5-22.3 52.7l2.5 15.1c.1 1.6-.7 2.5-2.4 2.7l-2.6.2c-.4-4.2-1.9-6.2-4.6-5.9l-1.4.1c-3.4 5.3-6 11.4-7.7 18.5l2.6-.2c3.5-2.3 5.1-5 4.8-8.1l5.2-.5 3 1.1c-2.4 3.8-3.5 6.8-3.3 9.1l1.4 2.4-3.4 8 .1 1.3c3-.3 6.3.7 9.8 2.8 2.4-.2 5-1.3 7.9-3.2 3-.3 14.2-.4 33.5-.4l9.7-3.3c11.8-.1 13.7.2 23.9-.7l4.2-.4 2.2-1.5.1 1.3c10.7-.9 11.4-.2 19.8.8l.1 1.3-5.9.5.2 2.5c1.8-.2 3.4-.7 4.7-1.8 1.5-.1 2.4.7 2.5 2.5-2.4.2-5.1.8-8.1 1.8l-2.6-.9c-4.1 1.1-3.2 1.4-6 1.6l-4.1-.8c.1.7-.3 1.2-1 1.2.1 1.6 1 2.4 2.5 2.3l4.2-.4 21.9-1.9 8.3-1.8c.1.7.4 1.1 1.1 1l4-1.5 7.5-.6c5.8-.5 5.7-.9 18.3-2.9-.1-.8.2-1.1.8-1.2l.1 1.1c20.5-3.5 21.8-3.7 25.1-4.8l.3.6c5.1-1.2 2.2-.9 3.6-1.9.1.9.4 1.3.9 1.3l3.6-.3-.2-2.7-7.3-.1-.1-.2c-.3.1-.5.1-.8.2h-1v.2c-4.9 1-5 .3-8.2.6l-18.3 1-.1-1.3 10.2-1.4 3.7-.3 2.1-1.5.1 1.3c14.4-1.2 19.5 2.4 86.1-11.8 3.6-.3 3.3-3.3 5.6-9.5-1.2.1-2.4-.2-3.5-.8-5.5 2.1-8.4 1.1-19 2.8-.9.1-1.6-.7-1.9-2.3l-.1-1.1 10.2.3c1.9-.2 5.6-.5 11.1-3.6 0 .9-2 1.4-.8 1.3Zm-492.4 7.9-4.7.4c-.2-1.9 2.3-9.1 7.5-21.4l3.1-.3c.1 2.9-1.8 10-5.9 21.3ZM844 292l-.1-1.3c-.1-1.6.9-2.7 3.1-3.2l.1 1.3c.1 1.9-.9 3-3.1 3.2Zm62.5 48.3.1 1.3-7.8.7-.1-1.3 7.8-.7Zm-9.4-.8c.1 1.6-2.3 3.4-7.5 5.2l-9.6-.7-3.1.3-.3-2.9 20.5-1.9Zm63.2-290.9-4.7.4-.1-1.6c-.1-1.6.8-2.7 2.8-3.2l1.7-.1 3.2 1.3c.1 1.9-.8 3-2.9 3.2Zm71.5-14 1.5-.1.2 2.9-4.3.4c-.1-1.6.7-2.7 2.6-3.2Zm-18 6.3-7.1-.8-.1-1.3c9.3-.8 12.4-1.8 18.1-3.4.1 1.1 1.1 1.5 2.9 1.3l.2 2.9-2.8.3c-2.2.2-4.1-.1-5.7-1-1.7 1.1-3.5 1.8-5.5 2Zm8.9 25.9-.1-1.3 11.5-1.1.1 1.3-11.5 1.1Zm12.3-10-.1-1.6 5.6-.5.1 1.6-5.6.5Zm1.3-19.6-1.5.1 1.3-3.1 12.8-1.2.1 1.6c-3.3.3-7.6 1.2-12.7 2.6Zm6.5 27.6-.2-2.9 5.6-.5c1.9-.2 2.9.7 3 2.7l-8.4.7Zm33.9-46.2-7.2 2-1.3.1c-3.4.3-7.8.2-13-.3 9.3-.6 18.2-1.3 21.5-1.8Zm-7.7 32 .1 1.3-9.9.9-.1-1.3 9.9-.9Zm16.2 7.7c-.1-1.2-2-2-5.9-2.4l-9.9 2.8-7.6.3c-1.7-1.2-2.6-2-2.7-2.6l8.8.5 19.8-3.2 10.1.4.1 1.6c-5 .5-9.2 1.4-12.7 2.6ZM1187.1 32c1.2.1 2 .1 2.3.1 3.5-3.4 7.4-6.1 11.9-8-3.6 15.8-9.2 27.5-16.9 35.1l-5.6-3.4c4.7-11.9 7.5-19.8 8.3-23.8Zm-17.2 29.5 1.4-.1c-1.9 3.6-3.6 5.5-5 5.6l-.3-3.8c.9 0 2.2-.6 3.9-1.7ZM1158.8 88c2.7-10.8 5.3-16.9 7.7-18.5l.1 1.3c-1.4 10-3.6 15.3-6.5 15.7l.5 6.3c-2.4 3.4-3.5 6-3.4 8l-1.4.1-.8-8.7c1.6-.2 2.9-1.6 3.8-4.2Zm-4.3 14.4c.1 1.5-.9 5-2.9 10.4l-1.4.1-.3-3.8c1.9-4.4 3.5-6.6 4.6-6.7Zm-80.7 234.2-.1-1.1 2.6-.2.3 3.8c-1.4.1-2.4-.7-2.8-2.5Zm115.3 3c-.1-.9-.5-1.3-1.4-1.2l-6.5.6-.1-1.3h.6l15.4-1.3.1 1.3c-4.5.2-7.2.9-8.1 1.9Zm-7.7-3.2c.6.3.3.6 0 .8-.3-.1-.7-.4 0-.8Zm.8-18-8.6.7-.1-1.3 7.8-.7 6.8-1.7c.1.8.5 1.1 1.4 1 8.1-1.4 7.3-1.8 11.2-2.1 1.3-.1 2.1.7 2.2 2.3l-20.7 1.8Zm30.1-2.6c-4.8-.5-5.1-.9-8.5-.6l-.1-1.1 7.7-.7.1 1.1c-.8.1 2.1.3.8 1.3Zm.6-1.4-.1-1.1 4.2-.4.1 1.1-4.2.4Zm9.3-.8-.1-1.1c.7-.1 1.7-.6 3-1.6 2.1-.2 3.2 1.2 3.4 2.8l-6.3-.1Zm11.9-1.5-.1-1.3 5.1-.4.1 1.3-5.1.4Zm7.1-.6c-.1-1.5.5-2.4 1.8-2.6l1.7 2.2c-.1-.7.2-1.1.8-1.2l1.3 2.4-5.6-.8Zm-75.5 32.6-.2-2.5-.8.1.2 2.5.8-.1Zm175.7-45.5c.8-.5 1.2-1-.7-1.3-.9 1 1 1.3-1 1.4l.1.9c.2-.2.7-.5 1.1-.8l-1.1.9v.1l-2.1 2.7 4.2-1.5h.5l-.2-2.5-.8.1Zm7.3 5.7-.8.1.2 2.5 5.9-.5c-.1-1.6-4-2.1-5.3-2.1Zm-9.1-4.4.1-.1v-.1s-.1.1-.1.2Z"
    />
    <path
      d="m955.7 114.8.1 1.6 3.3-.3c-.1-1 .3-2.6 1-4.6l-.3-2.9c-1.4.1-2.8 2.2-4.1 6.2Zm-31.6-76-.3-2.9-4.7.4.3 2.9 4.7-.4Zm-91.7 171.7c-.2-2.7-8.6-13.2-25.2-31.7-.3-3.4 5.4-8.5 17.1-15.2l33.4-29.1c7.5-9.5 11.9-24.9 13.2-46.3l-.4-4.9c-1.3-14.8-12-26.7-32.3-35.8-12-8.1-33.6-12.6-64.8-13.4-25.8 2.2-59.5 11.4-101 27.7-11.4 8.2-24.4 16.4-39 24.6l.2 2.5c.9-.1 2.3-.6 3.9-1.7 1.7-.2 2.7.6 2.8 2.2l2.5-1.3 1.2-.1.1 1.1c.1 1.3-8.9 8.4-27.1 21.1l1.4 2.6-1.2.1-3-1.1c.1.9-1.2 1.5-3.7 1.7l.1 1.1 2.9 3.6c-.9.1-2.3-.3-4.2-1-4.2.4-8.3 2.6-12.4 6.8l1.7-7.4c6.1-26.3 10.3-49.6 12.5-69.8l-.3-1.3c-4.2-2.7-8.3-6.5-12.1-11.3.1-3.1.1-4.9 0-5.3l-.3-1.1-1.2.3c-13.2 19.8-38.6 53.6-76.3 101.4-28.7 34-43.5 52.9-44.4 56.7-11.7 12.1-17.3 19.4-16.7 21.9-3.1 2-4.4 4-3.9 6.2-.9.2-1.5-.1-1.7-1-5 8.1-12.4 13.3-22.3 15.6l-10.4 2.4c-1.4.3-2.1 1.3-2 3l.3 1.3 3.9-.9.3 1.1-8.8 3.4-15.6 3.6-8.2.5c-1.2 1.2 6.5-.1 3.5.6l-10.2 2.4c-6.2 1.4-9.6.9-10.2-1.6l-1.2.3c.2 1.1.3 1.9.1 2.6l-.6-2.5-8.2 1.9c-.6-3.8-11.7-17.6-33.2-41.4-.4-4.6 7.2-11.3 22.7-20l43.8-38.5c9.8-12.6 15.6-32.8 17.5-60.6l-.6-6.5c-1.7-19.6-15.9-35.4-42.6-47.6C356.4 21.7 328 16 287 15.1c-34 2.9-78.4 15-133 36.1-15 10.9-32.1 21.7-51.3 32.4l.3 3.4c1.3-.1 3-.8 5.1-2 2.2-.2 3.4.8 3.6 2.8l3.4-1.9 1.7-.1.1 1.6c.1 1.6-11.8 10.9-35.9 27.9l1.9 3-1.7.1-3.7-1.3c.1 1-1.6 1.7-5.1 2l.2 1.8 4 4.4c-1.3.1-3.1-.3-5.4-1.1-7.8.7-15.4 6.3-22.9 16.9l1.9 3c6.5-6 10.3-9 11.4-9.1l.4 4.9c-1.1.1-2.8.8-5.1 2l4.1 6.2c7.9-8.5 16.6-15.8 26.1-21.9 4.7 1.2 7.2 2.7 7.3 4.3l3.6-.3c25.8-19.1 51.3-32.9 76.6-41.4l.3 3.4c-4.7 7-7.9 10.6-9.6 10.8.2 2.4 1 4.5 2.5 6.3.4 4.3-11.1 33.3-34.4 86.9C80.5 320.8 36.1 413 0 472.6c.1 1.2.8 2.8 2.1 4.8 8.9-2.1 14.5-4.3 16.9-6.4l1.9-.2.3 3.4 3.3-.3 3.4-1.9c.1 1 1.2 1.5 3.5 1.3l.3 3.4c.3 3.3-1.6 8.3-5.6 15.2-3.6 4.1-7.5 12.7-11.6 25.8l.1 1.6 3.3-.3c14.4-16.1 25.3-31.9 32.8-47.3 42-12.3 74-24.4 96.2-36.3 22.3-1.9 39.3-7.8 50.9-17.5l-.2-1.8-8.4 2.5-1.9.2-.2-1.8c16.4-2.5 27.7-6.1 34-11.1 31.9-24.6 56-42 72.3-52.3 33.5-24.6 55.3-48.6 65.2-71.9 1.8-.4 3.6-.8 5.6-1.3 4.7-.2 7.3-.3 8-.5-.2-.9.2-1.4 1.1-1.6 7.5-.8 3.9.5 8.7-.6l12.6-2.9 2.1-.5-1 .6c1.4.2 2.9.1 4.6-.3l.9 3.7-57.3 91.1-12.7 15.9-6.2 20.8 1.2-.3 6.2-2.6-2 8.1.6 2.4 1.7 2.1c-.8.2-1.1.7-.9 1.6l.3 1.3 2.6-.6c3.8-3.3 5.4-6.3 4.8-9 4.1.7 6.8 1 8.2.6l.3 1.3c-2.5.6-3.8 2.6-4 6l.3 1.3 1.4-.3c20.8-22.7 71.8-100.4 112.7-153.1-1.3-5.7 20-13.6 64-23.8l1.4-.3c1.6 6.9-1.8 23.6-10.2 50.1-5.4 16-8 24.8-7.6 26.2-7 21.3-10.3 32.8-9.9 34.6l-15.6 51.1c-10.1 26.2-17.8 53.7-23.2 82.7.9-.2 2.3-.1 4.3.4l2.2-1.9c.2.9.8 1.2 1.7 1l-.9-3.7 6.8-.2c2-.5 3.7-3 5.1-7.6-.3-6.9 1.1-10.6 4.2-11.4 4.2-16.4 6.8-24.6 7.7-24.9 3.9-16.3 6.8-25.6 8.7-27.9 5.9-21.2 10.2-32.1 13-32.8l.6 2.6-4.3 11.1c-7.5 33.3-15.1 59.6-22.8 78.9l2.2 9.6 1.4-.3c18.6-40 45.4-119.2 80.3-237.6 1-10.4 6-18.5 14.9-24.2l-2-2.1-.3-1.1c4-.9 6.8-2.5 8.4-4.7-.2-.9-3.7-2.2-10.5-4l17.4-74.6c3.8-3.4 6-5.2 6.7-5.2l.3 3.8c-.9.1-2.3.6-3.9 1.7l3.3 4.7c6-6.5 12.5-12.1 19.6-16.8 3.6 1 5.4 2.2 5.6 3.4l2.6-.2c19.8-14.5 39.2-24.9 58.3-31.2l.2 2.5c-3.5 5.3-5.9 8-7.2 8.1.2 1.8.7 3.4 1.6 4.8.3 3.3-8.3 25.3-25.9 66.1-40.2 94.5-73.9 164.4-101.3 209.8.1.9.7 2.1 1.8 3.7 6.7-1.6 11-3.3 12.7-4.9l1.2-.1.2 2.5 2.8-.2 2.5-1.3c.1.7 1 1 2.7.9l.2 2.7c.2 2.4-1.2 6.2-4.3 11.4-2.9 3.1-5.9 9.6-9.1 19.5l.1 1.3 2.6-.2c10.9-12.2 19.2-24.2 24.9-36 31.9-9.4 56.2-18.5 73-27.5 17.1-1.5 30-5.9 38.8-13.3l-.1-1.3-6.5 1.9-1.4.1-.1-1.3c12.4-1.8 21.1-4.6 25.8-8.3 24.2-18.6 42.5-31.9 54.9-39.7 38.6-28.1 56.6-55.1 54.4-81Zm-6.6 1.7.9 10.1c-1.2 2.5-2.5 3.8-3.7 3.9l-1.5-17.2c2.8 1 4.2 2 4.3 3.2ZM68.6 130.8l-1.7.1-.3-3.1 6.9-.6.1 1.6c-1.1.1-2.8.7-5 2ZM34.9 467.9c-4-1.8-7.6-2.5-10.7-2.2l-.4-4.9c-.2-1.9.9-3.2 3.3-3.7 2.2-.2 3.5 1.4 3.7 4.6 5.8-7.1 9-10.7 9.6-10.8l3.7 1.5c-1.2 10-4.3 15.1-9.2 15.5ZM395 91.2c-1.7.2-5.1-5.1-10-15.6l-.3-3.1c3.2-.3 6.5 4.9 10 15.6l.3 3.1Zm-4.8-37.3-1.4 3.3-48.9-20.4c32.6 1.1 49.4 6.8 50.3 17.1ZM183.7 231.2l-6.9.6-.3-3.1 6.9-.6.3 3.1Zm-5.6-106.5 1.7-.1.4 4.9c-1.6.1-3.7 2.5-6.3 7.1l-.3-3.4c3.1-3.7 4.7-6.5 4.5-8.5Zm-14.5 34.2.6 6.5-1.7.1-.6-6.5 1.7-.1Zm-7.6 12.2 3.3-.3c-.3 5.4-1.8 8.3-4.5 8.5l-1.7.1c2.1-3.6 3.1-6.4 2.9-8.3Zm-5.7 17 1.9-.2.1 1.6-3.1 5.2-3.3.3-.1-1.6c3.3-.3 4.8-2 4.5-5.3Zm-5.6 15.3-1 8.2-1.7.1-.7-8.1 3.4-.2ZM88.6 362.9c-2.2 11.2-4.6 16.9-7.1 17.1l-.1-1.6c-.6-5.5 1.8-10.7 7.2-15.5Zm-10.3 22.3.1 1.6c.2 2.2-.8 3.5-3 3.6l-.1-1.6c-.2-1.9.8-3.1 3-3.6Zm-3 46.3 5.2-.5.2 1.8c-1.3.1-3 .8-5.1 2l-3.3.3c-.2-1.7.9-3 3-3.6Zm148-45.7c-29.2 14.4-46.4 24.2-51.5 29.3-31.6 11-47.3 17.8-47 20.5-28.1 11.1-46.6 19.3-55.5 24.4-2.1.2-5.1-.6-9.1-2.4-.5-5.7 2.1-10.3 7.6-14 4.9-.4 9.6.3 14.1 2.2 5.2-2.7 14.3-5.7 27.2-8.9l-.3-3.4-10.4.9c1.3-1.8 11.3-6.5 30.1-14.1l5.2-.5.1 1.6c-8.9.8-13.8 3.4-14.9 8.1.2 2.1 1.4 3 3.6 2.8 6.7-4.2 10-6.7 9.9-7.4 12.7-2.4 47.8-20.8 105.3-55.1l.3 3.1c.1 1.5-4.8 5.7-14.7 12.9Zm-88.2 29c8.4-.7 15.6-4.1 21.6-10 2.4-.2 3.7.7 3.8 2.8-4.1.4-12 3.8-23.5 10.4l-1.7.1-.2-3.3Zm142.3-109.3-44.1 35c-32.8 21.5-50.4 32.3-53 32.5-52.2 28.7-84.7 43.6-97.3 44.7l-1.9.2c1.6-5.9 24.8-53.4 69.8-142.8 19.8-1.7 51-10.9 93.5-27.7l10.4-.9c21.5-1.9 37.6 2.3 48.2 12.3l.6 6.5c-7.9 22.9-16.7 36.3-26.2 40.2ZM191.2 257l7.1-.6.1 1.6-7.1.6-.1-1.6Zm99.7-16.9 5.2-.5c4.8 2.3 7.3 4.3 7.5 6.1l.1 1.6c-4.6.4-8.9-2-12.8-7.2Zm14.1-80.3c-4.6 5.5-17.2 14.9-37.8 28.1-6.8.6-32.1 10.4-75.9 29.6-2.2-1-4.5-1.4-7-1.2l-.3-3.1c-.5-6.3 2.3-14.2 8.5-23.8 3.4-18 7.1-28.3 11.2-30.8l36.5-82.1c-.4-5.1 7.4-9 23.4-11.7l5.2-.5.4 4.7c15.7-2.4 25.5-3.8 29.3-4.1 29-2.5 44.1 3.4 45.3 17.5l3.3-.3-.7-8.3 3.6-.3c8.5 4.7 13.1 10.4 13.7 17.1.4 4.6-2.1 10.3-7.4 17.1-2.2.2-3.5-1.4-3.7-4.6l-3.6.3-.8 10c-14.7 22-25.4 33.3-32 33.9-6 8.3-9.7 12.4-11.2 12.5Zm22.4 57.5c-3-2-5.4-2.9-7.2-2.8l-.4-4.9 3.3-.3 7.3 4.3c.3 2.3-.7 3.5-3 3.7Zm23.2 27.5c3.2 1.3 5.1 2.7 5.5 4l-1.6.4.1.1c-.3 0-.7.1-1 .2l-2.4 1.9-.6-6.6Zm2.2 13.8-.3-1.3 4.2-1 .3 1.3-4.2 1Zm10.1 11.3c4.3-.7 6.4-1 14.4-2.8l.3 1.3-15.2 3.5c.2-.7.4-1.4.5-2Zm14.8 6.3c-6.4.6-5-.2-15.2 2.1l-.3-1.3 12.8-4.1 6.1-1.4.6 2.4c-2.8.6-.8.6-4 2.3Zm13.5-3.2c-1.5.4-2.7-.3-3.4-2l3.9-.9c1.7-.4 2.8.3 3.2 2l-3.7.9Zm36.6-39.4-.3-1.3 6.3-1.5.6 2.4-6.6.4Zm39.1 239.8c.4-1.8.5-3.1.3-4l1.4-.3c1.7-.4 2.7.2 3.1 1.8l.3 1.3-5.1 1.2Zm27.4-229.5-2.8-.5c-4.5 1.8-8.3 3.1-11.4 3.8l-2.6.6c-1.5.4-2.7-.2-3.3-1.8l18.3-4.2 6-2.8 2 2.3c-2.9.6-5 1.5-6.2 2.6Zm14.1-4.5-.3-1.3c.9-.2 2.1-.9 3.4-2.2l13-3 .3 1.3c-6.9 1.7-12.4 3.4-16.4 5.2Zm2-26.3c-.9.2-2.1 1-3.6 2.2-.2-.9-2-.9-5.4-.1-.6-2.5 9-6 28.9-10.6l2.8-.6.6 2.4c-14 4.1-21.8 6.4-23.3 6.7Zm35-37.8c-1.4 15.9-7 24.9-16.9 27.2l-.3-1.3-8.8 3.4-3.9.9c-2 .5-3.8.4-5.4-.1l-.8-3.5c-.3-1.3 12.4-18.9 38.2-52.7l3 .5c1.1 4.6-.6 13.1-5.1 25.6Zm61.9-53-1.2.1-.2-2.5 5.2-.5.1 1.3c-.9.2-2.2.7-3.9 1.6Zm-25.5 256.1c-3-1.4-5.7-2-8-1.8l-.3-3.8c-.1-1.3.7-2.2 2.4-2.7 1.7-.2 2.7 1 2.9 3.6 4.3-5.5 6.7-8.3 7.2-8.3l2.7 1.1c-1 7.6-3.3 11.6-6.9 11.9Zm273.4-286c-1.3.1-3.8-3.9-7.7-12l-.2-2.5c2.5-.2 5.1 3.7 7.7 11.7l.2 2.8Zm-3.6-28.6-1.2 2.6-37-15.5c24.7.8 37.5 5.1 38.2 12.9ZM694.7 198.5l-5.2.5-.2-2.5 5.2-.5.2 2.5Zm-4.3-80.9 1.4-.1.3 3.8c-1.3.1-2.9 1.9-4.8 5.4l-.2-2.5c2.3-2.9 3.4-5.1 3.3-6.6Zm-10.9 26 .4 4.9-1.4.1-.4-4.9 1.4-.1Zm-5.9 9.3 2.6-.2c-.3 4.2-1.4 6.4-3.3 6.6l-1.4.1c1.5-2.8 2.2-5 2.1-6.5Zm-4.2 12.8 1.2-.1.1 1.3-2.3 4-2.6.2-.1-1.3c2.7-.2 3.9-1.6 3.7-4.1Zm-4.2 11.6-.9 6.4-1.2.1-.5-6.3 2.6-.2Zm-42.7 121.3c-1.7 8.4-3.5 12.7-5.4 12.9l-.1-1.1c-.3-4.2 1.5-8.2 5.5-11.8Zm-7.9 16.9.1 1.1c.2 1.8-.6 2.8-2.4 2.9l-.1-1.3c-.1-1.3.7-2.2 2.4-2.7Zm-2.2 35.2 4-.3.1 1.3c-.9.1-2.3.6-3.9 1.5l-2.6.2c-.1-1.4.7-2.3 2.4-2.7ZM724.7 316c-22 10.9-35.1 18.3-39.2 22.1-24 8.4-35.9 13.6-35.7 15.7-21.3 8.5-35.3 14.6-41.9 18.5-1.6.1-3.9-.5-6.9-1.9-.4-4.3 1.6-7.8 5.8-10.4 3.8-.3 7.4.2 10.7 1.6 4-2 10.9-4.2 20.7-6.7l-.2-2.5-8.1.7c1-1.4 8.7-5 23-10.8l4-.3.1 1.1c-6.8.6-10.6 2.6-11.4 6.2.1 1.6 1.1 2.4 2.8 2.2 5-3.3 7.4-5.2 7.4-5.8 9.6-1.7 36.2-15.7 79.9-41.9l.2 2.5c0 1-3.7 4.2-11.2 9.7Zm-67 22c6.5-.6 12-3.1 16.6-7.5 1.7-.1 2.7.6 2.8 2.2-3 .3-8.9 2.8-17.8 7.6l-1.4.1-.2-2.4Zm108.2-83.1-33.3 26.8c-24.9 16.3-38.4 24.5-40.5 24.7-39.6 21.8-64.2 33.1-73.9 33.9l-1.4.1c1.2-4.5 18.9-40.6 53.1-108.4 14.9-1.3 38.5-8.4 70.9-21.2l8.1-.7c16.3-1.4 28.5 1.8 36.5 9.5l.4 4.9c-6.1 17.2-12.7 27.3-19.9 30.4Zm-65.4-36.8 5.2-.5.1 1.3-5.2.5-.1-1.3Zm75.7-12.9 4-.3c3.7 1.8 5.6 3.4 5.7 4.7l.1 1.1c-3.5.3-6.8-1.5-9.8-5.5Zm10.5-60.9c-3.5 4.2-13 11.4-28.5 21.4-5.2.5-24.4 7.9-57.6 22.3-1.6-.6-3.4-.8-5.3-.7l-.2-2.5c-.4-4.8 1.7-10.8 6.3-18.1 2.6-13.8 5.5-21.5 8.5-23.3L737.8 81c-.3-3.7 5.6-6.7 17.6-9l4-.3.3 3.8c11.8-1.9 19.2-3 22.2-3.3 22-1.9 33.5 2.5 34.4 13.3l2.6-.2-.5-6 2.6-.2c6.4 3.5 9.8 7.7 10.2 12.7.3 3.6-1.5 8-5.3 13.1-1.7.2-2.7-1-2.9-3.6l-2.6.2-.8 7.5c-11.1 16.9-19.2 25.6-24.3 26-4.5 6.1-7.3 9.2-8.6 9.3Zm11.7 41.6-.3-3.8 2.6-.2 5.6 3.4c.1 1.6-.7 2.5-2.4 2.7-2.4-1.5-4.2-2.2-5.5-2.1ZM332.9 428.8l-2.6.6-2.2 1.9c.4 1.6 1.4 2.2 3.1 1.8 1.7-.4 2.4-1.4 2-3l-.3-1.3Zm-9.9-19.7.3 1.3c1.7-.4 2.4-1.4 2-3l-.3-1.3c-1.6.4-2.3 1.4-2 3Zm70.8-133 1.9-1.2c-.4 0-.7-.1-1-.2-.7.2-1 .7-.9 1.4Zm-.4-34.5 3-.7-.6-2.6-3 .7.6 2.6Zm706.7 101-6.8-.8-1.2 2.6.1 1.3 40.5-3.4-.2-2.5-32.4 2.8Zm37-3.1.2 2.5h.4l-.2-2.5h-.4Zm169.9-22.2.2 2.5 4.4.8-.2-2.5-4.4-.8Zm-6.2.5c-30.4 6.8-34.2 5.6-40.6 6.1l.2 2.5 2.8-.2 1.5-.1-.4-.3 3.3-1.3c30.1-3.3 33.6-2.1 33.3-5.5l-.1-1.2Zm-182.5-44.2-2.7-.9c-2.2 5.9-3.3 9.4-3.2 10.4l.1 1.1c2.1-.1 4-3.7 5.8-10.6Zm-36.6-19.7-.1-1.3-1.4.1-2.5 1.6 1.4 2.4c1.9-.2 2.8-1.1 2.6-2.8Zm79.5 82.2-.2-2.5-.8.1.2 2.5.8-.1Zm165-37.2 1.9-.2c1.1-.1 1.6-1 1.5-2.6l-1.1-2.4c-6.9.6-10.1.9-15.7 4l-.1-1.3-8.3.8c-.2-2.5-.9-3.8-2-3.7l-4.3.4c-5 .4-7.4.2-9.9 2.1-.1-.9-.4-1.3-.9-1.3l-4.8.4-2.8 1.6c-.1-.9-.4-1.3-.9-1.3l-1.7 1.5-.1-1.3-6.7-.5-1.6.1.2 2.5 3.4.9 3.2-.2c1.1.7 2.3.9 3.7.8l2.8-1.4.1 1.1c-15.7 3.9-15.6 3.2-26.4 5-1.2-.8-2.1-1.2-2.7-1.1l-.2.2c-1.2-.1-1.9-.9-2-2.2l5.6-.7c.4 0 .7.4 3.8 1 4.5-2.2 4.7-3.1 7.1-3.3l-.2-2.5c-15.4 3-9.2 1-28.5 2.7l-.9.1-.2-2.5c24.8-3 16.5-1.3 25-3.7.1.9.4 1.3.9 1.3 1-1 2.1-1.5 3.4-1.7l1.7-.1c8.7-.7 11.6 1 28.8-3.8l.1 1.1 2.8-1.4 2.6-.2c-.2-2.5 3.6-2.9 4.9-3l-.2-2.7c-30.2 6.1-38.1 4.4-46.5 6.8l-.1-1.1c-7.9 1.4-8.2.8-10.2.9-.6.1-1.5.6-2.5 1.6-.1-.9-.4-1.3-1-1.3-.3 0-.4.1-.5.1l-25.6 4.2c-.1-.7-.4-1.1-1-1-13.3 2.8-9.7 3.3-27.5 4.9-.8.1-1.9.5-3.3 1.4-.1-.7-.5-1.1-1.4-1l-10.9.9-7.3 1.8c-.1-.7-.5-1.1-1.4-1-4.1 1.1-7.7 1.8-10.6 2h-.2c-1.8.2.9-.5-.5-1.1l-2.2 1.3c-3.2.3-1.5-.2-12.5-.1-19.3 2.4-17.2 2.7-19.3 2.8l-7.2-.5c.1.7-.3 1.2-1.1 1.2-8.2-1.1-12.4-2.4-12.5-3.9 1.1-7.8 3-11.8 5.7-12l1.4-.1-1.2 2.6 1.4-.1c2.6-1.4 3.8-2.7 3.7-3.9l-.2-2.7-2.6.2-.2-2.5c-.2-1.9.1-3.6.8-5l5.9-9.5.2 2.5 2.8-.2-.2-2.5-1.6-2.3c2.1-1.8 3.7-2.8 5-2.9l-.1-1.3-3.8.3-.3-3.8c7.6-15.8 11.2-25 11-27.6l2.7 1.1c1.7-.1 2.5-1.1 2.4-2.9l-2.6.2-.1-1.1c-.2-1.9.2-3.7 1-5.3 4.1-4.3 6-8.6 5.6-13.1.8-.1 1.2.3 1.3 1.2 3.5-2 6.2-7.3 8.2-16.1 6.2-11.2 15-33.6 26.5-67.1 22-59.2 21.1-65.5 24.2-79.5l-2.6.2c.2 1.8-.2 3.5-1 5.1-1.8-.7-3.2-1.1-4.2-1l-.1-1.1c-.4-5.1 1.7-11.2 6.5-18.4l1.2-.1 2.2 8.6 2.6-.2c-.1-.6.6-4 2-10.3-.1-1.3-1.1-2.1-3.1-2.2l-2.5 1.6c-.2-1.8-.1-6.5.2-14l-1.3.1c-2.2-2.2-3.3-4-3.4-5.5l-14.3 1.4c-.1-1-.6-2.5-1.6-4.4-.1-1.3 3.1-2.6 9.7-3.9l2.9 1.1 2.7-1.6c.1.9.6 1.3 1.6 1.2l2.7-1.6c.1.9.6 1.3 1.6 1.2l1.3-.1-.2-2.9c-2 .2-7.3.2-15.7-.1l-2.7 1.8-.1-1.6c-67.1 5.5-105.2 8.6-114.3 9.5-1.2.1-5.9 0-14.2-.2.1 1.1-.9 1.7-2.9 1.9l-2.9-1.3-9.8 2.5c-2.3.2-6.2.1-11.6-.5-1.5 1.2-3.3 1.9-5.5 2.1-1.2.1 14.3-.8 28.7-1.8-1.5 1.2-3.8 1.9-7 2.2-2.2.2-4.1-.1-5.7-1-2.2 1-9.3 2.6-21.2 5l-2.9-1.1-46.8 7.2c-1.8-.9-3.9-1.2-6.3-1-2.5.2-6.7 1.1-12.5 2.7L926 35.8l1.7 2.8c1.1-.1 2.7-.7 4.6-1.8l8 .7-1 7.5c-7.4 3.3-11.7 8.2-12.9 14.4-11.1 4.9-16.6 8.4-16.6 10.5l.1 1.3 1.7-.1 3-1.6 3.5 4.2.5 5.8c.2 1.8-18.5 41.1-55.9 117.9-32.4 74-49.4 114.5-51 121.8-11.1 3.1-17.5 7.6-19.4 13.6.2 1.9 3.5 3.2 9.9 3.7l.3 2.9-2.9 4.8.5 5.8c.3 3 8.4 5.3 24.3 6.9-.1-1 .4-1.6 1.5-1.7.3 3.6-.7 10.6-3 21l1.7-.1c6.6-9 9.7-15.2 9.4-18.6l1.4-.1c1.6-.1 3.3 1.7 5.3 5.6-2 .8-9 16.7-21 47.8l1.7 2.8 1.7-.1c14.7-37.2 23.9-57.8 27.7-61.7 19.3-1.7 52.7-5.1 100.1-10.2l3-1.8c.1 1 .7 1.5 1.8 1.4l3.1-.3 3-1.8c.1 1 .7 1.5 1.8 1.4l35.9-3.1c9.5-.8 14-3.7 13.6-8.6-.1-1.3 5.5-2.8 16.8-4.4 1.1-.1 2.7.2 4.9.9-.1-.9 5.6-1.8 17-2.8.3-6 2.2-9.2 5.6-9.5l-.3-2.9c-3.2.3-6.8 1.1-11 2.5-7.5-.4-12.3-1-14.3-1.7-2 1.1-3.5 1.7-4.6 1.8l-25 .8-3 1.6c-.1-.9-.7-1.3-1.8-1.2l-1.4.1-3.2 1.6c-.1-.9-2.7-1.6-7.9-2.3l-3.2 1.9-6.2.5-.1-1.6c32.2-3.5 48.1-7.9 47.7-13.1 2.1-.2 3.2.8 3.4 2.9l9.4-2.4-.3-2.9-77.1 2.1c.1 1-.4 1.6-1.5 1.7l-9.4-.8c-2.4.2-4.4.9-6 2.1l-3.5-1.3c-9.7.8-16.9 2-21.7 3.5-6.6-.5-13.9-.4-22 .3l-17.3 1.5-8-.9c-.4-5.1 9.5-30.2 29.9-75.2 5.9-15.2 11.3-24.7 16.5-28.3 1.1-.1 2.7.3 4.9 1.2l12.3-4.2 6.3 1c10.6-.9 22.9-3.9 37-9.1 3.5-.3 6.1-.1 8 .7l9.4-2.2 28-2.4c11.9-1 24.8-3.6 38.8-7.9l-.3-2.9c-5.2.5-7.9-.4-8.1-2.5-.3-3.9-4.1-5.5-11.4-4.9l-.3-2.9 7.7-2.2 20.2-1.7-.3-2.9c-.8.1-4.9 0-12.5-.3l-.3-3.1 7.8-.7c2.1-.2 3-1.2 2.8-3.2-10.5.3-15.8-.2-15.9-1.6-73.2 3.6-109.9 4.3-110.1 2-1.1.1-2.6.8-4.6 2l-1.9-3c19.4-41.2 30.8-62 34.1-62.3.1 1.6-.7 4.2-2.4 7.7l.1 1.3 3.1-.3c7.7-18.4 14.2-27.9 19.6-28.3 23-2-3.2-3.5 46-11.2 2 .9 3.4 1.3 4.4 1.2 19.3-3.9 46.2-8 80.7-12.2l-.2-2.9-18.4 1.7-.2-2.9c2.2-.2 4-.9 5.5-2.1l.1 1.6c1-.1 2.4-.8 4.2-2 3.2-.3 5.6 0 7.3.9 6.4-1.7 11.6-2.7 15.4-3.1l11.5-1.1c2.8-1.8 4.1-3.4 4-4.9l-.1-1.3c-2.9.3-6.2.1-10.1-.6-.1-1.6.7-2.7 2.6-3.2l21.4-2 9.8-2.5c.1 1.1.6 1.5 1.4 1.5 1-.1 2.4-.8 4.2-2 .5.1 1.1.1 1.6.2-1.3 2.7-2.8 6.6-4.3 11.7l-2.8.2c-.2-1.9-.7-3.6-1.6-5.1l-1.4.1c-26 72.4-37.6 106.1-61.6 161.7-4.4 14.2-8.1 22.1-11.3 23.8.1 1.6 1.1 2.4 2.8 2.2.6 7-1 13.9-4.9 20.7-11.1 32-18.5 49.5-22.3 52.7l2.5 15.1c.1 1.6-.7 2.5-2.4 2.7l-2.6.2c-.4-4.2-1.9-6.2-4.6-5.9l-1.4.1c-3.4 5.3-6 11.4-7.7 18.5l2.6-.2c3.5-2.3 5.1-5 4.8-8.1l5.2-.5 3 1.1c-2.4 3.8-3.5 6.8-3.3 9.1l1.4 2.4-3.4 8 .1 1.3c3-.3 6.3.7 9.8 2.8 2.4-.2 5-1.3 7.9-3.2 3-.3 14.2-.4 33.5-.4l9.7-3.3c11.8-.1 13.7.2 23.9-.7l4.2-.4 2.2-1.5.1 1.3c10.7-.9 11.4-.2 19.8.8l.1 1.3-5.9.5.2 2.5c1.8-.2 3.4-.7 4.7-1.8 1.5-.1 2.4.7 2.5 2.5-2.4.2-5.1.8-8.1 1.8l-2.6-.9c-4.1 1.1-3.2 1.4-6 1.6l-4.1-.8c.1.7-.3 1.2-1 1.2.1 1.6 1 2.4 2.5 2.3l4.2-.4 21.9-1.9 8.3-1.8c.1.7.4 1.1 1.1 1l4-1.5 7.5-.6c5.8-.5 5.7-.9 18.3-2.9-.1-.8.2-1.1.8-1.2l.1 1.1c20.5-3.5 21.8-3.7 25.1-4.8l.3.6c5.1-1.2 2.2-.9 3.6-1.9.1.9.4 1.3.9 1.3l3.6-.3-.2-2.7-7.3-.1-.1-.2c-.3.1-.5.1-.8.2h-1v.2c-4.9 1-5 .3-8.2.6l-18.3 1-.1-1.3 10.2-1.4 3.7-.3 2.1-1.5.1 1.3c14.4-1.2 19.5 2.4 86.1-11.8 3.6-.3 3.3-3.3 5.6-9.5-1.2.1-2.4-.2-3.5-.8-5.5 2.1-8.4 1.1-19 2.8-.9.1-1.6-.7-1.9-2.3l-.1-1.1 10.2.3c1.9-.2 5.6-.5 11.1-3.6 0 .9-2.1 1.4-.9 1.3Zm-492.4 7.9-4.7.4c-.2-1.9 2.3-9.1 7.5-21.4l3.1-.3c.1 2.9-1.8 10-5.9 21.3Zm5.7-22.8-.1-1.3c-.1-1.6.9-2.7 3.1-3.2l.1 1.3c.1 1.9-.9 3-3.1 3.2Zm62.5 48.3.1 1.3-7.8.7-.1-1.3 7.8-.7Zm-9.4-.8c.1 1.6-2.3 3.4-7.5 5.2l-9.6-.7-3.1.3-.3-2.9 20.5-1.9Zm63.2-290.9-4.7.4-.1-1.6c-.1-1.6.8-2.7 2.8-3.2l1.7-.1 3.2 1.3c.1 1.9-.8 3-2.9 3.2Zm71.5-14 1.5-.1.2 2.9-4.3.4c-.1-1.6.7-2.7 2.6-3.2Zm-18 6.3-7.1-.8-.1-1.3c9.3-.8 12.4-1.8 18.1-3.4.1 1.1 1.1 1.5 2.9 1.3l.2 2.9-2.8.3c-2.2.2-4.1-.1-5.7-1-1.7 1.1-3.5 1.8-5.5 2Zm8.9 25.9-.1-1.3 11.5-1.1.1 1.3-11.5 1.1Zm12.3-10-.1-1.6 5.6-.5.1 1.6-5.6.5Zm1.3-19.6-1.5.1 1.3-3.1 12.8-1.2.1 1.6c-3.3.3-7.6 1.2-12.7 2.6Zm6.5 27.6-.2-2.9 5.6-.5c1.9-.2 2.9.7 3 2.7l-8.4.7Zm33.9-46.2-7.2 2-1.3.1c-3.4.3-7.8.2-13-.3 9.3-.6 18.2-1.3 21.5-1.8Zm-7.7 32 .1 1.3-9.9.9-.1-1.3 9.9-.9Zm16.2 7.7c-.1-1.2-2-2-5.9-2.4l-9.9 2.8-7.6.3c-1.7-1.2-2.6-2-2.7-2.6l8.8.5 19.8-3.2 10.1.4.1 1.6c-5 .5-9.2 1.4-12.7 2.6ZM1182.6 24c1.2.1 2 .1 2.3.1 3.5-3.4 7.4-6.1 11.9-8-3.6 15.8-9.2 27.5-16.9 35.1l-5.6-3.4c4.7-11.9 7.5-19.8 8.3-23.8Zm-17.2 29.5 1.4-.1c-1.9 3.6-3.6 5.5-5 5.6l-.3-3.8c.9 0 2.2-.6 3.9-1.7ZM1154.3 80c2.7-10.8 5.3-16.9 7.7-18.5l.1 1.3c-1.4 10-3.6 15.3-6.5 15.7l.5 6.3c-2.4 3.4-3.5 6-3.4 8l-1.4.1-.8-8.7c1.6-.2 2.9-1.6 3.8-4.2Zm-4.3 14.4c.1 1.5-.9 5-2.9 10.4l-1.4.1-.3-3.8c1.9-4.4 3.5-6.6 4.6-6.7Zm-80.7 234.2-.1-1.1 2.6-.2.3 3.8c-1.4.1-2.4-.7-2.8-2.5Zm115.3 3c-.1-.9-.5-1.3-1.4-1.2l-6.5.6-.1-1.3h.6l15.4-1.3.1 1.3c-4.5.2-7.2.9-8.1 1.9Zm-7.7-3.2c.6.3.3.6 0 .8-.3-.1-.7-.4 0-.8Zm.8-18-8.6.7-.1-1.3 7.8-.7 6.8-1.7c.1.8.5 1.1 1.4 1 8.1-1.4 7.3-1.8 11.2-2.1 1.3-.1 2.1.7 2.2 2.3l-20.7 1.8Zm30.1-2.6c-4.8-.5-5.1-.9-8.5-.6l-.1-1.1 7.7-.7.1 1.1c-.8.1 2.1.3.8 1.3Zm.6-1.4-.1-1.1 4.2-.4.1 1.1-4.2.4Zm9.3-.8-.1-1.1c.7-.1 1.7-.6 3-1.6 2.1-.2 3.2 1.2 3.4 2.8l-6.3-.1Zm11.9-1.5-.1-1.3 5.1-.4.1 1.3-5.1.4Zm7.1-.6c-.1-1.5.5-2.4 1.8-2.6l1.7 2.2c-.1-.7.2-1.1.8-1.2l1.3 2.4-5.6-.8Zm98.4-11.6.1-.1v-.1s-.1.1-.1.2Zm1.8-1.3c.8-.5 1.2-1-.7-1.3-.9 1 1 1.3-1 1.4l.1.9c.2-.2.7-.5 1.1-.8l-1.1.9v.1l-2.1 2.7 4.2-1.5h.5l-.2-2.5-.8.1Zm7.3 5.7-.8.1.2 2.5 5.9-.5c-.1-1.6-4-2.1-5.3-2.1Z"
      fill="#f9dc3e"
    />
  </symbol>
  <symbol id="circleci" viewBox="0 0 25 25">
    <path
      d="M12.077 0C6.266 0 1.388 3.99.016 9.384A.484.484 0 0 0 0 9.505c0 .328.266.594.593.594h5.018a.593.593 0 0 0 .538-.347h.001a6.519 6.519 0 0 1 5.927-3.812c3.601 0 6.522 2.927 6.522 6.535 0 3.609-2.921 6.535-6.522 6.535a6.519 6.519 0 0 1-5.927-3.812l-.001.001a.592.592 0 0 0-.538-.347H.593a.593.593 0 0 0-.593.594c0 .04.006.079.015.118 1.372 5.395 6.249 9.386 12.062 9.386 6.876 0 12.451-5.586 12.451-12.475C24.528 5.586 18.953 0 12.077 0ZM9.113 12.475c0-1.64 1.327-2.97 2.964-2.97a2.967 2.967 0 0 1 2.964 2.97 2.968 2.968 0 0 1-2.964 2.971 2.968 2.968 0 0 1-2.964-2.971Z"/>
  </symbol>
  <symbol id="cypress" fill-rule="evenodd" viewBox="0 0 250 250">
    <path
      d="M125 0c69.091 0 125 55.909 125 125 0 69.091-55.909 125-125 125C55.909 250 0 194.091 0 125 0 55.909 55.909 0 125 0Z"
      fill="#fff"
    />
    <path
      d="M125 4.386c66.667 0 120.614 53.947 120.614 120.614S191.667 245.614 125 245.614 4.386 191.667 4.386 125 58.333 4.386 125 4.386Zm64.035 173.684c-4.386 13.597-10.965 23.684-20.175 31.141-9.211 7.456-21.492 11.403-36.842 12.719l-3.071-20.176c10.088-1.315 17.544-3.508 22.369-7.017 1.754-1.316 5.263-5.263 5.263-5.263L120.175 72.807h30.264l21.052 87.281 22.369-87.281h29.386L189.035 178.07ZM83.333 68.86c7.018 0 13.597.877 18.86 3.07 5.702 2.193 10.965 5.263 16.228 9.649L106.14 98.246c-3.508-2.632-7.017-4.386-10.087-5.702-3.071-1.316-7.018-1.755-10.527-1.755-14.912 0-22.368 11.404-22.368 34.65 0 11.842 1.754 20.175 5.702 25 3.947 5.263 9.21 7.456 16.666 7.456 3.509 0 7.018-.439 10.088-1.755 3.07-1.315 6.579-3.07 10.965-5.701l12.281 17.543c-10.088 8.334-21.492 12.281-34.649 12.281-10.527 0-19.299-2.193-27.193-6.579-7.457-4.386-13.597-10.965-17.544-19.298-3.948-8.333-6.141-17.982-6.141-29.386 0-10.965 2.193-21.053 6.141-29.386 3.947-8.772 10.087-15.351 17.544-20.175 7.456-3.948 16.228-6.579 26.315-6.579Z"
      fill="#5c5c5e"
    />
  </symbol>
  <symbol id="git" viewBox="0 0 114 114">
    <path
      d="M111.78 51.887 62.035 2.148a7.335 7.335 0 0 0-10.374 0l-10.33 10.33 13.103 13.103c3.046-1.029 6.537-.34 8.964 2.088a8.721 8.721 0 0 1 2.07 9.02l12.628 12.627c3.055-1.053 6.58-.373 9.019 2.071a8.726 8.726 0 0 1 0 12.346 8.729 8.729 0 0 1-12.35 0 8.734 8.734 0 0 1-1.9-9.494L61.09 42.462l-.001 30.99a8.805 8.805 0 0 1 2.309 1.651c3.41 3.41 3.41 8.934 0 12.349-3.41 3.409-8.938 3.409-12.345 0-3.41-3.415-3.41-8.94 0-12.349A8.743 8.743 0 0 1 53.91 73.2v-31.28a8.614 8.614 0 0 1-2.86-1.904c-2.582-2.581-3.204-6.373-1.88-9.545L36.255 17.552 2.149 51.659a7.34 7.34 0 0 0 0 10.377l49.742 49.74a7.337 7.337 0 0 0 10.376 0l49.512-49.505a7.341 7.341 0 0 0 0-10.379"
      fill="#f05133"
    />
  </symbol>
  <symbol id="jest" viewBox="0 0 314.1 345.5">
    <path
      d="m207.6 95.6-20.7 41.8c6.8 6.3 11.6 14.6 13.5 24H216c1.8-8.9 6.2-16.9 12.5-23.1l-20.9-42.7z"
      fill="none"
    />
    <path
      d="m169.5 127.3 38.1-77 38 77.5c1.5-.5 3-.9 4.5-1.3L286.2 20H128.9l36 106.2c1.5.3 3.1.7 4.6 1.1zm-13.1 68.1c13.9 0 25.2-11.3 25.2-25.2 0-5.1-1.5-9.8-4.1-13.8-.8-1.3-1.8-2.5-2.8-3.6l-.1-.1c-1-1.1-2.2-2.1-3.4-2.9l-.1-.1c-.3-.2-.7-.5-1.1-.7-.1 0-.1-.1-.2-.1-.4-.2-.8-.5-1.2-.7h-.1c-.4-.2-.9-.5-1.3-.7h-.1c-.4-.2-.8-.4-1.2-.5-.1 0-.2-.1-.3-.1-.3-.1-.7-.3-1-.4-.1 0-.2-.1-.4-.1-.4-.1-.8-.3-1.2-.4h-.1c-.5-.1-.9-.2-1.4-.3-.1 0-.2 0-.4-.1-.4-.1-.7-.1-1.1-.2-.2 0-.3 0-.5-.1-.3 0-.7-.1-1-.1h-3.9c-.4 0-.7.1-1.1.1h-.4c-.4.1-.8.1-1.2.2h-.3c-.5.1-.9.2-1.4.3-11 2.7-19.2 12.7-19.2 24.5.2 13.7 11.5 25.1 25.4 25.1zm106-50.4h-.2c-.4 0-.7-.1-1.1-.1h-1.3c-.5 0-1 0-1.6.1h-.5c-.4 0-.8.1-1.2.1-.1 0-.3 0-.4.1l-1.5.3h-.1c-.5.1-.9.2-1.4.3-.1 0-.3.1-.4.1-.4.1-.8.2-1.2.4-.1 0-.2.1-.3.1-.5.2-1 .4-1.4.6-.5.2-.9.4-1.4.6-.1 0-.2.1-.3.1-.4.2-.8.4-1.2.7 0 0-.1 0-.1.1-.9.5-1.8 1.1-2.6 1.8l-.1.1c-1.3 1-2.4 2.1-3.5 3.3-1.1 1.2-2 2.6-2.8 4-2.1 3.7-3.3 8-3.3 12.5 0 13.9 11.3 25.2 25.2 25.2 13.9 0 25.2-11.3 25.2-25.2 0-12.2-8.8-22.5-20.3-24.8-.6-.2-1.4-.3-2.2-.4zM51.9 195.4c13.9 0 25.2-11.3 25.2-25.2S65.8 145 51.9 145s-25.2 11.3-25.2 25.2 11.3 25.2 25.2 25.2z"
      fill="none"
    />
    <path
      d="M259.9 214.9c-20.8 0-38.3-14.3-43.3-33.5h-16.8c-5 19.2-22.5 33.5-43.3 33.5-2.4 0-4.7-.2-6.9-.5-5.8 8.9-12.7 17.1-20.8 24.7-14.3 13.5-30.5 23.5-48 29.8l-4.1 1.5-3.8-2c-21-10.8-31.8-32.7-28-53.9-2.4-.4-4.7-1-6.9-1.8-.4.7-.7 1.5-1.1 2.3-6.4 13.2-13.1 26.8-15.5 41.4-2.6 15.6-3.7 44.1 18.3 59.3 9.6 6.6 19.7 9.9 31 9.9 21.7 0 45.1-11.6 69.9-23.9 19.4-9.6 39.4-19.6 60.2-24.7 7.9-1.9 15.9-3.1 23.6-4.2 14.1-2 27.5-4 38.4-10.3 11.6-6.7 19.5-17.9 21.7-30.7 1.4-7.8.6-15.7-2-23-6.6 3.8-14.3 6.1-22.6 6.1z"
      fill="none"
    />
    <path
      d="M304.6 170.1c0-20.8-14.3-38.3-33.5-43.3L314.1 0H101l43.1 127.2c-18.6 5.4-32.3 22.6-32.3 43 0 15 7.5 28.3 18.9 36.5-4.5 6.4-9.7 12.3-15.6 17.9C104 235 91.7 243 78.4 248.3c-12-8.1-17.2-22.4-12.5-35.2 18.3-5.6 31.6-22.7 31.6-42.8 0-24.7-20.1-44.7-44.7-44.7-24.7 0-44.8 20.1-44.8 44.8 0 12.2 5 23.4 13 31.4-.7 1.4-1.4 2.8-2.1 4.3-6.7 13.8-14.3 29.4-17.2 46.9-5.8 35 3.7 63.1 26.6 79 12.9 8.9 27.1 13.4 42.4 13.4 26.3 0 53-13.2 78.8-26 18.4-9.1 37.4-18.6 56.1-23.2 6.9-1.7 14.1-2.7 21.7-3.8 15.4-2.2 31.3-4.5 45.6-12.8 16.7-9.7 28.1-25.9 31.4-44.5 2.5-14.3 0-28.7-6.4-41.3 4.3-6.9 6.7-15 6.7-23.7zm-19.5 0c0 13.9-11.3 25.2-25.2 25.2-13.9 0-25.2-11.3-25.2-25.2 0-4.5 1.2-8.8 3.3-12.5.8-1.4 1.8-2.8 2.8-4 1-1.2 2.2-2.3 3.5-3.3l.1-.1c.8-.6 1.7-1.2 2.6-1.8 0 0 .1 0 .1-.1.4-.2.8-.5 1.2-.7.1 0 .2-.1.3-.1.4-.2.9-.4 1.4-.6.5-.2 1-.4 1.4-.6.1 0 .2-.1.3-.1.4-.1.8-.3 1.2-.4.1 0 .3-.1.4-.1.5-.1.9-.2 1.4-.3h.1l1.5-.3c.1 0 .3 0 .4-.1.4 0 .8-.1 1.2-.1h.5c.5 0 1-.1 1.6-.1h1.3c.4 0 .7 0 1.1.1h.2c.8.1 1.6.2 2.4.4 11.4 2.4 20.1 12.6 20.1 24.8zM128.9 20h157.3l-36.1 106.5c-1.5.3-3 .8-4.5 1.3l-38-77.5-38.1 77c-1.5-.5-3.1-.8-4.7-1.1L128.9 20zm71.5 141.4c-1.9-9.4-6.7-17.8-13.5-24l20.7-41.8 20.9 42.7c-6.2 6.2-10.7 14.1-12.5 23.1h-15.6zm-50.1-15.8c.5-.1.9-.2 1.4-.3h.3c.4-.1.8-.1 1.2-.2h.4c.4 0 .7-.1 1.1-.1h3.9c.4 0 .7.1 1 .1.2 0 .3 0 .5.1.4.1.7.1 1.1.2.1 0 .2 0 .4.1.5.1 1 .2 1.4.3h.1c.4.1.8.2 1.2.4.1 0 .2.1.4.1.3.1.7.2 1 .4.1 0 .2.1.3.1.4.2.8.3 1.2.5h.1c.5.2.9.4 1.3.7h.1c.4.2.8.5 1.2.7.1 0 .1.1.2.1.4.2.7.5 1.1.7l.1.1c1.2.9 2.3 1.9 3.4 2.9l.1.1c1 1.1 2 2.3 2.8 3.6 2.6 4 4.1 8.7 4.1 13.8 0 13.9-11.3 25.2-25.2 25.2s-25.2-11.3-25.2-25.2c-.1-11.7 8-21.6 19-24.4zm-98.4-.7c13.9 0 25.2 11.3 25.2 25.2s-11.3 25.2-25.2 25.2-25.2-11.3-25.2-25.2 11.3-25.2 25.2-25.2zm232.6 86.7c-2.2 12.8-10.1 24-21.7 30.7-10.9 6.3-24.3 8.3-38.4 10.3-7.7 1.1-15.8 2.3-23.6 4.2-20.8 5.1-40.8 15.1-60.2 24.7-24.8 12.3-48.2 23.9-69.9 23.9-11.3 0-21.4-3.2-31-9.9-22-15.2-20.9-43.7-18.3-59.3 2.4-14.6 9.1-28.3 15.5-41.4.4-.8.7-1.5 1.1-2.3 2.2.8 4.5 1.4 6.9 1.8-3.8 21.2 7 43.1 28 53.9l3.8 2 4.1-1.5c17.5-6.2 33.7-16.3 48-29.8 8.1-7.6 15-15.8 20.8-24.7 2.3.4 4.6.5 6.9.5 20.8 0 38.3-14.3 43.3-33.5h16.8c5 19.3 22.5 33.5 43.3 33.5 8.3 0 16-2.3 22.6-6.2 2.6 7.5 3.4 15.3 2 23.1z"
      fill="#15c213"
    />
  </symbol>
  <symbol id="jquery" viewBox="0 0 523.59 128.25">
    <path
      d="m223.9 46.171.001-.005-3.352 11.88 3.35-11.875zM241.14 71.962l-3.694-.022 3.694.022zM240.19 89.703h.004l-22.131.08 22.128-.08zM244.83 71.984l-3.695-.022 3.695.022zM242.13 88.195l3.855-14.702-3.855 14.705v-.002zM323.61 20.49l-7.181 33.76 7.181-33.76zM305.15 20.49l-5.452 25.22 5.452-25.222v.002z"
      fill="#131b28"
    />
    <path
      d="M322.38 18.971h-15.356c-.852 0-1.698.684-1.88 1.516l-5.452 25.222-5.451 25.222c-.18.833-1.026 1.514-1.878 1.514h-10.869c-10.753 0-9.509-7.437-7.307-17.627l.066-.308.242-1.284c.014-.083.031-.166.045-.242l.49-2.615.527-2.802c.16-.845.403-2.08.561-2.857l2.478-12.109 2.48-12.109c.172-.835-.387-1.52-1.24-1.52h-15.761c-.853 0-1.696.685-1.87 1.518l-3.39 16.079-3.388 16.077c-.003.007-.004.017-.005.024l-.315 1.495c-3.904 17.822-2.868 34.817 18.347 35.349.347.01.615.012.615.012h33.302c.852 0 1.696-.684 1.874-1.519l7.182-33.757 7.181-33.76c.177-.834-.376-1.518-1.228-1.518zM383.64 72.621c.853 0 1.411.684 1.24 1.519l-1.491 7.287M381.9 88.719l1.49-7.293-1.491 7.295v-.002zM380.03 90.253l.007-.002c-4.519.037-18.099.14-28.306.14 12.422 0 28.298-.138 28.298-.138zM342.57 63.234c-.013-.798.896-2.173 1.75-2.173l-1.918-.032c-.865 8.692.168 2.205.168 2.205z"
      fill="#131b28"
    />
    <path
      d="M353.13 90.387c-.098 0-.198 0-.295.002.097-.002.197-.002.295-.002zM383.64 72.621c.853 0 1.411.684 1.24 1.519l-1.491 7.287-.243 1.19M360.4 90.37h-.062.062zM356.63 90.382h-.219.219zM355.48 90.385c-.122 0-.242 0-.361.002.12-.002.239-.002.361-.002zM354.31 90.387h-.317.317zM356.41 90.382l-.93.002.93-.002zM360.34 90.37c-1.243.005-2.483.01-3.705.013 1.222-.002 2.464-.007 3.705-.013zM380.04 90.25h.001a5037.459 5037.459 0 0 1-.001 0zM381.9 88.722l1.249-6.106-1.25 6.11v-.004zM355.12 90.387h-.81.81zM352.83 90.389h-1.096 1.096zM353.99 90.387h-.864.864zM129.36 63.417l2.385-10.574-2.727 12.087-2.617 12.312 2.294-10.793c.177-.835.477-2.2.665-3.032zM157.91 18.793h-16.864c-.853 0-1.704.681-1.895 1.511l-1.599 7.058-1.599 7.06c-.188.831.356 1.512 1.209 1.512h16.995c.852 0 1.699-.681 1.882-1.514l1.546-7.058 1.545-7.053v-.002c.182-.832-.366-1.514-1.22-1.514zM154.24 42.272v-.002l-4.946 22.883 4.946-22.881zM105.25 118.09s8.501.11 13.905.11c-4.105 0-10.885-.076-13.912-.112l.008.002zM134.13 42.269l-2.388 10.574 2.388-10.574z"
      fill="#131b28"
    />
    <path
      d="M153.02 40.756h-16.997c-.852 0-1.704.681-1.892 1.514l-2.388 10.574-2.385 10.574c-.188.832-.488 2.197-.665 3.032l-2.294 10.793-2.292 10.793a32.521 32.521 0 0 1-.818 2.986s-3.175 9.448-8.514 9.34c-.227-.004-.448-.006-.666-.012l-4.62-.086h-.003c-.851-.012-1.707.652-1.906 1.48l-1.762 7.41-1.76 7.407c-.198.828.336 1.511 1.183 1.526 3.028.036 9.808.112 13.912.112 13.334 0 20.363-7.388 24.87-28.647l5.273-24.399 4.946-22.883c.18-.832-.371-1.514-1.223-1.514zM394.47 89.525c-.852 0-1.405-.684-1.226-1.519l12.786-59.89M412.24 88.004l5.17-25.562-5.17 25.562z"
      fill="#131b28"
    />
    <path
      d="M393.43 88.766c-.104-.417-.043-1.44.138-2.275l6.068-28.428-6.393 29.944c-.18.835.374 1.518 1.226 1.518h1.553c-.854 0-2.49-.342-2.592-.76zM411.23 89.183c-.464.188-1.543.342-2.396.342h1.552c.853 0 1.69-.684 1.858-1.521l.308-1.519c-.17.835-.857 2.51-1.322 2.698zM414.83 75.223l2.283-11.282c-.001.007-.002.017-.004.022l-2.28 11.26zM465.28 32.128l.704 2.91c.194.833-.344 1.509-1.195 1.511M412.55 86.486l2.277-11.262-2.277 11.262zM464.58 29.147l.697 2.981-.697-2.981zM417.11 63.942c.17-.835.45-2.188.627-3.015l2.438-11.421-2.761 12.937-.304 1.499zM406.24 27.135c-.17.806-.387 1.824-.531 2.498l-6.068 28.43 6.393-29.946.206-.982z"
      fill="#131b28"
    />
    <path
      d="m465.98 35.038-.704-2.91-.697-2.981-.353-1.509c-1.38-5.364-5.434-8.46-14.233-8.46l-13.7-.014-12.617-.015H409.479c-.852 0-1.696.681-1.871 1.516h-.001l-.628 2.967-.74 3.503-.207.982-6.393 29.946-6.068 28.428c-.18.835-.242 1.857-.138 2.275.103.417 1.739.76 2.592.76h12.808c.853 0 1.932-.155 2.396-.343.465-.188 1.152-1.862 1.322-2.697l2.277-11.262 2.279-11.26.004-.022.304-1.5 2.76-12.936 2.44-11.426c.18-.83 1.02-1.51 1.871-1.512l40.3-.02c.85-.001 1.39-.678 1.195-1.51z"
      fill="#131b28"
    />
    <path
      d="M517.86 8.724c-.853.006-2.248.012-3.102.012H501.86c-.853 0-1.946.576-2.427 1.28L470.91 51.803c-.482.706-1.031.6-1.22-.23l-2.099-9.206c-.189-.832-1.043-1.511-1.896-1.511h-18.337c-.853 0-1.358.669-1.125 1.49l8.217 28.783c.234.82.251 2.168.04 2.994l-3.582 13.93c-.212.828.313 1.504 1.166 1.504h18.123c.852 0 1.724-.676 1.935-1.503l3.583-13.931c.211-.826.804-2.061 1.318-2.742l46.306-61.46c.514-.68.236-1.235-.616-1.228l-4.861.031zM372.18 44.774l-.001-.017c-.107.925-.96 1.604-1.813 1.604h-23.248c-.803 0-1.212-.547-1.094-1.22.007-.02.01-.037.022-.054 0 0-.008.001-.014.006.005-.026.005-.05.012-.078l.107-.395c2.22-5.903 6.743-9.778 15.243-9.778 9.569 0 11.437 4.675 10.787 9.932zm-6.82-26.834c-29.841 0-36.912 18.113-40.88 36.394-3.966 18.633-3.625 36.055 27.254 36.055h1.096c.098-.002.198-.002.296-.002h1.991c.12-.002.24-.002.362-.002l.93-.002h.219c1.222-.002 2.462-.008 3.705-.012h.062c8.155-.032 16.334-.093 19.647-.12.847-.013 1.676-.696 1.85-1.524l1.25-6.11.243-1.19 1.492-7.287c.17-.835-.387-1.519-1.24-1.519h-27.761c-11.041 0-14.32-2.934-13.112-11.56h44.377l-.004.005c.011 0 .02-.005.03-.005.706-.012 1.358-.498 1.617-1.145.048-.124.09-.253.107-.388l-.005.005c6.59-24.854 4.7-41.592-23.528-41.592zM224.32 44.679l-.42 1.487v.005l-3.352 11.875-3.35 11.873c-.231.82-1.118 1.492-1.972 1.492H197.49c-13.453 0-16.729-10.523-13.453-26.043 3.275-15.874 9.697-25.742 22.938-26.74 18.094-1.365 21.714 11.361 17.345 26.051zm12.163 25.818s8.362-20.303 10.261-32.031C249.334 22.767 241.474 0 211.114 0c-30.187 0-43.295 21.737-48.297 45.367-5.001 23.801 1.552 44.675 31.567 44.504l23.679-.088 22.131-.08c.852-.008 1.724-.684 1.94-1.507l3.856-14.705c.215-.825-.306-1.504-1.159-1.509l-3.695-.022-3.693-.022c-.726-.005-1.14-.473-1.053-1.096.016-.112.042-.227.09-.347z"
      fill="#131b28"
    />
    <path
      d="M385.92 56.908a1.018 1.018 0 0 1-2.036 0c0-.562.456-1.016 1.018-1.016.563 0 1.018.454 1.018 1.016z"
      fill="#131b28"
    />
    <path
      d="M5.979 30.509c-8.335 11.98-7.298 27.566-.93 40.295.15.305.31.605.466.906.1.19.194.386.297.573.06.113.125.223.186.33.109.203.22.396.332.593.198.35.4.696.608 1.043.115.19.228.38.347.571.23.371.465.737.705 1.104.1.156.198.312.3.463.333.496.672.99 1.022 1.475.009.013.018.027.03.04.054.077.115.153.172.231a48.248 48.248 0 0 0 1.281 1.685 67.759 67.759 0 0 0 1.19 1.45c.391.461.79.92 1.198 1.37l.024.024c.017.02.032.031.047.05a60.166 60.166 0 0 0 1.609 1.678c.32.322.644.64.973.955.133.127.264.256.397.378.439.413.882.818 1.333 1.214l.021.017c.077.068.156.132.232.197.398.345.803.687 1.211 1.023.166.135.335.267.502.4.333.267.67.53 1.01.79l.539.41c.375.275.752.546 1.133.813.139.1.273.197.412.293.04.026.075.053.114.08.361.25.73.488 1.1.728.158.105.316.215.476.317.566.359 1.141.713 1.722 1.055l.476.268c.427.247.857.489 1.293.725.235.127.477.247.715.37.308.16.613.324.925.48.071.034.145.068.214.103.126.06.253.12.379.183.484.232.972.459 1.466.678l.31.14a52.48 52.48 0 0 0 2.126.874c.532.205 1.072.407 1.614.598l.203.07c.594.208 1.195.4 1.799.589.144.041.29.088.434.13.616.185 1.224.407 1.858.524 40.31 7.351 52.02-24.224 52.02-24.224-9.835 12.812-27.29 16.191-43.83 12.43-.626-.143-1.234-.338-1.845-.519a54.809 54.809 0 0 1-2.238-.718l-.244-.087a55.793 55.793 0 0 1-1.567-.581l-.44-.174a50.346 50.346 0 0 1-1.692-.703c-.114-.049-.224-.1-.338-.149a69.05 69.05 0 0 1-1.427-.664l-.412-.197c-.371-.181-.738-.374-1.104-.562-.245-.13-.494-.251-.737-.386a42.673 42.673 0 0 1-1.323-.742c-.148-.083-.298-.163-.447-.25a63.921 63.921 0 0 1-1.723-1.054c-.157-.1-.31-.207-.465-.31a50.095 50.095 0 0 1-1.226-.815c-.134-.091-.263-.188-.395-.278a45.892 45.892 0 0 1-1.673-1.226 77.213 77.213 0 0 1-1.512-1.192c-.44-.361-.875-.725-1.303-1.099l-.143-.12c-.464-.407-.92-.824-1.37-1.244a55.99 55.99 0 0 1-.385-.371 43.17 43.17 0 0 1-.984-.965c-.13-.13-.26-.256-.386-.386a51.82 51.82 0 0 1-1.207-1.276l-.06-.064a49.09 49.09 0 0 1-1.546-1.775 53.576 53.576 0 0 1-.88-1.089 27.092 27.092 0 0 1-.324-.403c-.347-.45-.686-.899-1.018-1.355-9.182-12.525-12.48-29.8-5.142-43.987"
      fill="#0868ac"
    />
    <path
      d="M31.852 20.416c-6.028 8.674-5.7 20.286-.999 29.46a38.378 38.378 0 0 0 2.666 4.45c.904 1.295 1.905 2.835 3.103 3.875a36.6 36.6 0 0 0 1.353 1.404c.117.12.237.234.356.352.45.437.909.866 1.382 1.284.02.014.037.034.056.049.005.005.01.007.014.012.523.46 1.064.901 1.614 1.336.122.092.242.19.366.285.55.423 1.112.838 1.688 1.233l.049.037c.254.176.513.34.77.508.123.08.24.166.365.241.411.264.828.52 1.251.767.06.036.119.068.177.102.365.21.735.418 1.106.618.13.073.261.137.393.205.257.134.513.271.774.4.04.02.08.037.117.054.531.261 1.067.513 1.614.752.117.052.238.098.357.147.437.185.879.366 1.323.537.188.07.378.139.566.207.403.15.807.286 1.215.423.184.058.365.12.55.175.579.181 1.151.408 1.756.508 31.123 5.156 38.308-18.806 38.308-18.806-6.477 9.329-19.02 13.78-32.405 10.305a38.447 38.447 0 0 1-1.763-.51c-.178-.054-.353-.112-.53-.17a35.814 35.814 0 0 1-1.233-.426c-.186-.068-.373-.136-.556-.207-.447-.171-.889-.35-1.327-.535-.12-.051-.24-.097-.358-.151-.55-.24-1.09-.49-1.623-.755-.275-.134-.545-.275-.815-.415l-.47-.241c-.346-.188-.69-.384-1.03-.581-.08-.047-.165-.09-.246-.14a40.52 40.52 0 0 1-1.248-.761c-.127-.08-.25-.169-.376-.252a46.186 46.186 0 0 1-.808-.534 43.295 43.295 0 0 1-1.682-1.23c-.127-.101-.254-.199-.379-.299-5.859-4.626-10.503-10.947-12.71-18.115-2.315-7.434-1.816-15.779 2.193-22.55"
      fill="#0868ac"
    />
    <path
      d="M53.613 12.875c-3.554 5.23-3.903 11.724-1.437 17.5 2.6 6.13 7.929 10.94 14.147 13.22.257.095.513.18.773.269.113.034.226.073.34.107.367.115.73.249 1.109.32 17.185 3.32 21.846-8.819 23.087-10.605-4.083 5.879-10.945 7.29-19.364 5.246a21.91 21.91 0 0 1-2.037-.629 24.899 24.899 0 0 1-2.42-1.005 25.021 25.021 0 0 1-4.24-2.588c-7.534-5.716-12.214-16.62-7.298-25.502M247.16 114.73l-4.954 11.282h-5.468l.448-10.251-4.026 10.251h-5.296l-.139-11.282.585-2.786h3.75l-.723 11.143 4.163-11.143h5.228l-.378 11.282 4.128-11.282h3.267l-.585 2.786zM255.79 118.07c.482-2.202.344-2.615-.791-2.615h-1.72l-1.101 5.161-1.686 5.398h-3.198l2.613-12.244.38-1.79h2.924l.378.826s1.686-.996 3.335-.996c3.51 0 3.235 2.646 2.477 6.26h-3.611zM266.18 110.19c-1.409 0-2.304-.413-1.96-2.131.378-1.722 1.48-2.134 2.854-2.134 1.378 0 2.305.412 1.927 2.134-.344 1.684-1.444 2.131-2.82 2.131zm-1.512 15.823H261.5l.62-5.503 1.101-5.09-2.2-.484.618-2.99h6.018l-2.99 14.067zM278.39 114.93l-3.955.483-1.137 5.367c-.31 1.48-.31 1.892.999 1.892h2.648l-.55 2.82s-2.407.722-3.44.722c-4.06 0-4.026-2.236-3.302-5.574l1.101-5.26-2.202-.482.653-2.993h2.306l1.308-3.545h3.13l-.758 3.545h3.852l-.653 3.025zM286.61 115.11c-1.857 0-2.821.964-3.198 2.683l5.296-.447c.24-1.17 0-2.236-2.098-2.236zm-3.713 5.227c-.243 1.721.411 2.305 2.612 2.305h5.537l-.55 2.615s-3.336.927-5.812.927c-6.158 0-6.227-3.471-5.435-7.187.791-3.648 2.201-7.256 8.15-7.256 5.747 0 6.022 3.472 4.611 8.596h-9.114zM304.63 126.01h-3.163l.62-5.503 2.235-10.457-2.203-.515.654-2.993h6.02l-4.163 19.468zM316.06 115.11c-1.86 0-2.821.964-3.2 2.683l5.297-.447c.24-1.17 0-2.236-2.097-2.236zm-3.716 5.227c-.24 1.721.414 2.305 2.614 2.305h5.538l-.55 2.615s-3.338.927-5.815.927c-6.157 0-6.224-3.471-5.433-7.187.792-3.648 2.202-7.256 8.152-7.256 5.744 0 6.02 3.472 4.61 8.596h-9.116zM335.97 115.28s-4.025.034-5.125.034c-2.34 0-2.58.72-2.751 1.477l-.14.689 7.431.552s.034 2.373-.276 3.713c-.446 2.236-2.751 4.504-6.912 4.504-2.066 0-5.402-.788-5.402-.788l.585-2.718h5.125c2.27 0 2.581-.62 2.72-1.237l.171-.894-7.293-.552s-.274-1.823.103-3.645c.552-2.478 2.82-4.609 6.982-4.609 2.065 0 5.4.754 5.4.754l-.618 2.72zM349.8 115.28s-4.023.034-5.125.034c-2.338 0-2.579.72-2.751 1.477l-.14.689 7.432.552s.035 2.373-.275 3.713c-.447 2.236-2.752 4.504-6.915 4.504-2.063 0-5.4-.788-5.4-.788l.585-2.718h5.125c2.27 0 2.58-.62 2.719-1.237l.17-.894-7.292-.552s-.274-1.823.103-3.645c.552-2.478 2.82-4.609 6.983-4.609 2.063 0 5.4.754 5.4.754l-.62 2.72zM354.13 128.25h-2.75l.102-2.065c-.998-.066-1.513-.789-1.273-1.995.379-1.719 1.445-2.131 2.855-2.131 1.376 0 2.303.412 1.927 2.131l-.861 4.06zM372.53 115.42c-2.063 0-2.784 1.238-3.267 3.508-.482 2.27-.344 3.611 1.72 3.611h2.854l1.584-7.119h-2.891zm4.713 8.77-.38 1.823-2.887-.034-.413-.893s-2.547 1.098-4.264 1.098c-4.405 0-4.61-3.61-3.82-7.256.791-3.716 2.511-7.224 6.88-7.224 1.583 0 3.715.791 3.715.791l1.754-5.95h3.165l-3.75 17.644zM388.63 115.28c-2.682 0-3.544 1.511-4.025 3.713-.446 2.237-.239 3.75 2.407 3.75 2.753 0 3.58-1.48 4.06-3.75.483-2.133.344-3.713-2.442-3.713zm-2.338 10.938c-5.676 0-6.124-3.542-5.367-7.224.792-3.68 2.787-7.188 8.463-7.188 5.64 0 6.157 3.509 5.364 7.188-.79 3.75-2.786 7.224-8.46 7.224zM418.49 126.01l.62-5.435.309-1.547c.448-2.063.723-3.577-1.445-3.577h-1.685c.07 1.067-.138 2.27-.413 3.542l-1.478 7.017h-3.2l.62-5.435.308-1.547c.448-2.063.722-3.577-1.443-3.577h-1.377l-2.27 10.559h-3.682l2.994-14.067h2.889l.447.86s1.961-1.033 3.543-1.033c1.204 0 2.099.551 2.409 1.237.687-.378 2.649-1.237 4.06-1.237 4.4 0 4.264 3.576 3.472 7.224l-1.479 7.016h-3.2zM433.11 115.28c-2.684 0-3.544 1.511-4.025 3.713-.446 2.237-.239 3.75 2.408 3.75 2.751 0 3.579-1.48 4.06-3.75.48-2.133.343-3.713-2.443-3.713zm-2.339 10.938c-5.677 0-6.123-3.542-5.366-7.224.79-3.68 2.786-7.188 8.462-7.188 5.642 0 6.157 3.509 5.365 7.188-.79 3.75-2.786 7.224-8.46 7.224zM448.79 118.07c.481-2.202.344-2.615-.79-2.615h-1.721l-1.101 5.161-1.686 5.398h-3.198l2.613-12.244.38-1.79h2.924l.377.826s1.686-.996 3.338-.996c3.508 0 3.232 2.646 2.475 6.26h-3.611zM461.11 115.11c-1.855 0-2.82.964-3.197 2.683l5.294-.447c.243-1.17 0-2.236-2.097-2.236zm-3.715 5.227c-.239 1.721.413 2.305 2.614 2.305h5.538l-.55 2.615s-3.337.927-5.812.927c-6.157 0-6.226-3.471-5.437-7.187.792-3.648 2.203-7.256 8.153-7.256 5.743 0 6.02 3.472 4.61 8.596h-9.116zM469.6 126.22c-1.445 0-2.338-.413-1.96-2.097.343-1.724 1.41-2.134 2.856-2.134 1.34 0 2.268.41 1.926 2.134-.38 1.65-1.48 2.097-2.822 2.097z"
      fill="#0868ac"
    />
  </symbol>
  <symbol id="handlebars" viewBox="0 0 500 500">
    <path
      d="M201.8 205.8c12.7-.1 25.7 3.6 35.6 11.8 5.1 4.1 9.1 9.2 12.6 14.7 6.2-10.1 15.3-18.7 26.6-22.8 13.7-5.1 29.2-4.8 42.8.3 11.9 4.4 22.4 12 31.8 20.3 7.4 6.5 14.3 13.7 21.9 20 4 3.3 8.3 6.3 13.3 8 6.6 2.2 14.3.1 19-4.9 4.4-4.7 4.1-12.9-.7-17.3-3-2.6-8.3-2.1-10.4 1.4-1.9 2.8-.8 6.2.6 8.9-3.9-2.9-7.9-6.9-7.8-12.1-.8-6 3.7-11.3 9-13.4 10.4-4.2 23.5-.6 30.1 8.6 6.3 8.6 6.8 19.9 5.7 30.1-1.3 9.7-6.8 18.8-14.8 24.4-11.3 8.1-25.6 10.6-39.3 10.4-13.1-.4-26.1-3.3-38.2-8.2-20.3-8.2-39.3-19.4-60.3-26-7-2.7-14.4-4.2-21.8-4.6-5.9 0-11.5-.3-17.1.1-6.8.7-13.6 2.1-20 4.6-21.3 6.6-40.6 18.2-61.3 26.4-17.5 6.8-36.8 10-55.4 6.2C93.3 290.6 83 286 76 277.8c-6-6.9-8.9-16.2-8.6-25.4-.3-8.6 1.6-17.7 7.2-24.4 5.3-6.3 13.8-9.6 22-8.9 5.3.2 10.6 2.5 13.9 6.8 2.6 3.4 2.7 8 1.6 11.9-1.4 3.5-4.2 6.3-7.2 8.4 1.6-2.6 2.5-6.1.7-8.9-2.3-3.7-7.9-4-10.8-1-3.6 3.8-4.4 9.9-2 14.5 2.7 4.8 8.1 7.6 13.5 8.1 8 .7 15-4.3 20.9-9.1 12.2-10.5 23.2-22.5 36.7-31.4 11.2-7.6 24.4-12.7 37.9-12.6z"
      fill="#423426"
    />
  </symbol>
  <symbol id="mirage" fill="none" stroke-linecap="round" stroke-linejoin="round" stroke-width="4" stroke="#05c77e" viewBox="0 0 79 68">
    <path
      d="M2 45.956h74.724"
    />
    <path
      d="M17.346 55.956h44.031"
    />
    <path
      d="M32.694 65.956h13.335M42.066 30.581l9.595-14.453 16.715 29.828"
    />
    <path
      d="M54.661 0c7.183 0 13.006 5.823 13.006 13.006 0 5.638-3.587 10.438-8.604 12.242l-1.869-3.337a9.26 9.26 0 0 0 6.723-8.905 9.256 9.256 0 0 0-9.256-9.256 9.256 9.256 0 0 0-9.256 9.256c0 2.207.772 4.233 2.062 5.824l-2.144 3.229a12.964 12.964 0 0 1-3.668-9.053C41.655 5.823 47.478 0 54.661 0Z"
      fill="#05c77e"
      stroke-width="0" 
    />
    <path
      d="m10.348 45.956 19.24-34.214 22.33 34.214"
    />
  </symbol>
  <symbol id="msw" fill="none" stroke-width="6.89px" viewBox="0 0 56 55" >
    <path
      d="M36.32 31.576a4.099 4.099 0 0 1 1.05 2.967 4.11 4.11 0 0 1-4.102 3.896l-17.77.014a1.273 1.273 0 0 1-1.28-1.277l1.879-17.807a4.092 4.092 0 0 1 1.504-2.764 4.113 4.113 0 0 1 5.64.446L36.32 31.576Z"
      stroke="#7a1818"
    />
    <path
      d="M14.523 16.348a1.278 1.278 0 0 1 .949-2.134l24.126-.02a1.275 1.275 0 0 1 1.279 1.278l-2.548 24.127a1.274 1.274 0 0 1-.468.86 1.276 1.276 0 0 1-1.754-.139L14.523 16.348Z"
      stroke="#ff6a33"
    />
  </symbol>
  <symbol id="next" viewBox="0 0 207 124">
    <path
      d="M48.942 32.632h38.96v3.082h-35.39v23.193H85.79v3.082H52.513v25.464h35.794v3.081H48.942V32.632Zm42.45 0h4.139l18.343 25.464 18.749-25.464L158.124.287l-41.896 60.485 21.59 29.762h-4.302l-19.642-27.086L94.15 90.534h-4.22l21.751-29.762-20.29-28.14Zm47.967 3.082v-3.082h44.397v3.082h-20.453v54.82h-3.571v-54.82h-20.373ZM.203 32.632h4.464l61.557 91.671-25.439-33.769L3.936 37.011l-.162 53.523H.203zm183.194 53.891c.738 0 1.276-.563 1.276-1.29 0-.727-.538-1.29-1.276-1.29-.73 0-1.277.563-1.277 1.29 0 .727.547 1.29 1.277 1.29Zm3.509-3.393c0 2.146 1.555 3.549 3.822 3.549 2.414 0 3.874-1.446 3.874-3.956v-8.837h-1.946v8.828c0 1.394-.704 2.138-1.946 2.138-1.112 0-1.867-.692-1.893-1.722h-1.911Zm10.24-.113c.14 2.233 2.007 3.662 4.787 3.662 2.97 0 4.83-1.498 4.83-3.887 0-1.878-1.06-2.917-3.632-3.514l-1.38-.338c-1.634-.38-2.294-.891-2.294-1.783 0-1.125 1.025-1.86 2.563-1.86 1.459 0 2.466.718 2.649 1.869h1.893c-.113-2.103-1.971-3.583-4.516-3.583-2.737 0-4.56 1.48-4.56 3.704 0 1.835 1.033 2.926 3.3 3.454l1.616.39c1.659.389 2.388.96 2.388 1.912 0 1.108-1.146 1.913-2.71 1.913-1.676 0-2.84-.753-3.005-1.939h-1.928Z"
    />
  </symbol>
  <symbol id="node" viewBox="0 0 158 146">
    <path
      d="M64.499 145.364c-1.947 0-3.88-.51-5.587-1.493l-17.783-10.528c-2.656-1.485-1.36-2.011-.484-2.313 3.542-1.24 4.26-1.52 8.04-3.667.398-.227.918-.147 1.324.093l13.662 8.107c.493.267 1.193.267 1.65 0l53.267-30.747c.493-.28.813-.853.813-1.44V41.91c0-.613-.32-1.16-.824-1.467L65.332 9.723a1.64 1.64 0 0 0-1.64 0l-53.235 30.72a1.7 1.7 0 0 0-.844 1.454v61.466c0 .587.32 1.147.827 1.427l14.587 8.426c7.92 3.96 12.76-.706 12.76-5.4V47.15c0-.867.68-1.533 1.546-1.533h6.747c.84 0 1.533.666 1.533 1.533v60.693c0 10.56-5.76 16.627-15.773 16.627-3.08 0-5.507 0-12.28-3.334l-13.973-8.053c-3.454-2-5.587-5.733-5.587-9.72V41.897c0-4 2.133-7.734 5.587-9.707l53.32-30.76c3.373-1.907 7.853-1.907 11.199 0l53.254 30.773c3.44 1.987 5.586 5.707 5.586 9.707v61.466a11.27 11.27 0 0 1-5.586 9.707l-53.254 30.76a11.187 11.187 0 0 1-5.613 1.493l.006.028Zm16.453-42.354c-23.307 0-28.193-10.699-28.193-19.672 0-.854.688-1.534 1.542-1.534h6.88c.76 0 1.4.554 1.52 1.304 1.04 7.011 4.134 10.547 18.227 10.547 11.226 0 16-2.536 16-8.489 0-3.427-1.36-5.974-18.8-7.68-14.587-1.44-23.6-4.654-23.6-16.32 0-10.747 9.067-17.147 24.253-17.147 17.053 0 25.507 5.92 26.573 18.64.04.44-.12.867-.413 1.187a1.588 1.588 0 0 1-1.133.493h-6.92a1.53 1.53 0 0 1-1.494-1.2c-1.666-7.373-5.693-9.733-16.64-9.733-12.253 0-13.679 4.266-13.679 7.466 0 3.88 1.68 5.014 18.213 7.2 16.373 2.174 24.146 5.24 24.146 16.747 0 11.6-9.68 18.253-26.56 18.253l.078-.062Zm76.736-64.404c0 5.653-4.627 10.267-10.267 10.267-5.6 0-10.267-4.56-10.267-10.267 0-5.813 4.774-10.267 10.267-10.267 5.533 0 10.253 4.467 10.253 10.267h.014Zm-18.867-.027c0 4.774 3.853 8.64 8.587 8.64 4.773 0 8.626-3.946 8.626-8.64 0-4.786-3.906-8.586-8.64-8.586-4.666 0-8.586 3.746-8.586 8.573l.013.013Zm4.76-5.733h3.96c1.36 0 4.027 0 4.027 3.04 0 2.12-1.36 2.56-2.174 2.827 1.587.106 1.694 1.146 1.907 2.613.107.92.28 2.507.6 3.04h-2.44c-.067-.533-.44-3.467-.44-3.627-.16-.653-.387-.973-1.2-.973h-2.013v4.613h-2.227V32.846Zm2.173 5.04h1.787c1.467 0 1.747-1.027 1.747-1.627 0-1.573-1.08-1.573-1.68-1.573h-1.84l-.014 3.2Z"
      fill="#689f63"
    />
    >
  </symbol>
  <symbol id="octopus" viewBox="0 0 30 32">
    <path 
      d="M1.957 23.81c2.34-1.518 5.088-4.128 4.047-7.197-.569-1.674-1.357-3.106-1.46-4.914-.093-1.53.131-3.062.657-4.502 2.152-5.534 8.32-8.475 13.974-6.663 5.221 1.58 8.812 7.696 6.65 13.027-1.25 3.075-1.809 5.45.975 7.841.755.65 2.588 1.62 2.58 2.77-.009 1.507-2.934-.32-3.265-.582.373.656 4.064 4.54 1.715 4.816-2.163.254-4.073-2.793-5.375-4.1-2.185-2.199-1.804 2.663-1.814 3.667-.015 1.587-1.128 4.8-3.12 2.707-1.645-1.728-1.023-4.485-2.168-6.403-1.253-2.103-3.338 2.102-3.86 2.872-.58.86-3.495 5.021-4.653 2.803-.94-1.8.562-4.62 1.302-6.25-.27.592-2.18 1.466-2.738 1.751a7.367 7.367 0 0 1-3.96.92c-2.934-.212-.684-1.783.512-2.56l.001-.004Z"
      fill="#0d80d8"
    />
  </symbol>
  <symbol id="percy" fill="#5c007b" fill-rule="evenodd" viewBox="0 0 50 40" >
    <path
      d="M49.352 9.094c-.288-.948-1.05-1.88-1.955-1.5A7.107 7.107 0 0 1 45 8.125c-1.786-1.676-7.039-5-10.497-6.881 0 0 .422 1.234 1.005 3.539 0 0-3.723-2.908-7.936-4.783 0 0 1.185 2.433 1.284 3.22 0 0-3.866-1.345-9.288-1.855 0 0 2.604 1.817 3.614 3.205 0 0-3.832-.195-9.555 0 0 0 3.252 1.32 4.69 2.53 0 0-6.793.69-10.631 1.795 0 0 4.325 1.525 5.526 2.66 0 0-5.516 1.57-11.075 4.78 0 0 3.088.54 5.506 1.596 0 0-3.08 2.152-7.643 8.025 0 0 3.372-.643 5.686-.462 0 0-2.931 3.424-4.46 8.663 0 0 1.695-1.08 3.338-1.471 0 0 .176 6.246 3.592 7.247l.002-.005c.168.053.328.072.466.072.167 0 .341-.026.519-.077 1.083-.31 1.904-1.38 2.853-2.617.311-.405.631-.822.97-1.228a8.206 8.206 0 0 1 1.47-1.588c1.208-.995 2.878-1.749 4.914-1.447 2.292.193 3.707 2.476 4.846 4.312.591.955 1.374 2.645 2.686 2.645 1.45 0 1.96-1.737 2.605-3.88a21.16 21.16 0 0 1 2.686-5.69c2.262-3.368 5.156-5.198 8.625-7.002 3.325-1.729 6.466-3.362 8.04-5.839.789-1.239 1.18-2.76 1.161-4.519-.015-1.578-.36-3.033-.647-3.976ZM32.94 8.125l-5.367-2.5 7.936 1.969-2.569.531Zm-12.197.77 6.632 1.697 2.892-.96-9.524-.737Zm13.076 3.325 1.415-1.072-6.377 1.352 4.962-.28Zm-10.635 0-2.269 1.52-6.287-.599 8.556-.92v-.001Zm7.084 3.798 2.3-1.287-8.555.921 6.255.366Zm-6.338 1.43-1.604 2.635-8.027 1.964 9.63-4.6.001.001ZM13.9 19.07l-6.214 2.736 7.628-5.471L13.9 19.07Zm-2.149 3.28-.245 2.737L7.5 28.75l4.251-6.4Z"
    />
    <path
      d="M32.915 39.322c-.697-.012-1.438-.609-2.25-1.819.479-2.74 2.372-6.238 4.648-8.585-.581 2.18-.659 4.368-.72 6.126v.002c-.041 1.137-.076 2.119-.238 2.833-.217.958-.694 1.443-1.416 1.443h-.024ZM13.627 37.344c.59 1.335 1.222 1.985 1.927 1.985.057 0 .115-.004.171-.013.958-.151 1.845-2.007 2.587-3.803.193-.466.374-.932.535-1.363-2.12.024-4.182 1.73-5.22 3.194Z"
    />
  </symbol>
  <symbol id="playwright" viewBox="0 0 400 400">
    <path
      d="M136.444 221.556c-12.886 3.657-21.34 10.069-26.909 16.476 5.334-4.668 12.479-8.952 22.117-11.684 9.858-2.794 18.268-2.774 25.217-1.433v-5.434c-5.928-.542-12.724-.11-20.425 2.075Zm-27.498-45.68L61.09 188.484s.872 1.232 2.487 2.876l40.576-10.692s-.575 7.409-5.568 14.037c9.445-7.146 10.361-18.829 10.361-18.829Zm40.059 112.471C81.658 306.486 46.027 228.438 35.24 187.928c-4.984-18.699-7.16-32.861-7.74-42a15.483 15.483 0 0 1 .034-2.482c-3.494.211-5.167 2.027-4.826 7.275.58 9.134 2.755 23.295 7.74 42 10.782 40.504 46.418 118.552 113.765 100.413 14.659-3.949 25.672-11.142 33.939-20.324-7.62 6.882-17.157 12.302-29.147 15.537Zm12.656-160.237v4.793h26.416c-.542-1.697-1.088-3.226-1.63-4.793h-24.786Z"
      fill="#2D4552"
    />
    <path
      d="M193.981 167.584c11.88 3.374 18.163 11.703 21.484 19.074l13.246 3.762s-1.807-25.797-25.141-32.425c-21.829-6.202-35.262 12.129-36.896 14.501 6.35-4.524 15.623-8.228 27.307-4.912Zm105.441 19.193c-21.849-6.23-35.277 12.139-36.887 14.478 6.355-4.519 15.623-8.224 27.302-4.893 11.861 3.379 18.139 11.698 21.47 19.074l13.265 3.776s-1.836-25.802-25.15-32.435Zm-13.16 68.018-110.19-30.805s1.193 6.048 5.77 13.879l92.775 25.936c7.638-4.419 11.645-9.01 11.645-9.01Zm-76.395 66.307c-87.249-23.392-76.701-134.559-62.583-187.237 5.813-21.709 11.789-37.845 16.745-48.661-2.957-.609-5.406.949-7.826 5.87-5.262 10.673-11.991 28.05-18.503 52.376-14.114 52.677-24.662 163.84 62.583 187.232 41.123 11.017 73.159-5.727 97.04-32.023-22.668 20.531-51.609 32.042-87.456 22.443Z"
      fill="#2D4552"
    />
    <path
      d="M161.661 262.296v-22.433l-62.329 17.674s4.606-26.76 37.112-35.981c9.858-2.794 18.269-2.775 25.217-1.433V128.11h31.208c-3.398-10.5-6.685-18.584-9.446-24.201-4.567-9.297-9.249-3.134-19.878 5.756-7.486 6.254-26.406 19.596-54.877 27.268-28.471 7.677-51.489 5.641-61.093 3.978-13.615-2.349-20.736-5.339-20.07 5.017.58 9.134 2.756 23.296 7.74 42 10.782 40.505 46.418 118.553 113.765 100.414 17.592-4.74 30.009-14.109 38.616-26.051h-25.965v.005ZM61.085 188.484l47.861-12.608s-1.395 18.412-19.337 23.142c-17.948 4.725-28.524-10.534-28.524-10.534Z"
      fill="#E2574C"
    />
    <path
      d="M341.786 129.174c-12.441 2.181-42.288 4.898-79.174-4.989-36.896-9.881-61.376-27.163-71.075-35.286-13.749-11.516-19.797-19.519-25.749-7.413-5.262 10.677-11.991 28.054-18.504 52.38-14.113 52.677-24.661 163.84 62.583 187.232 87.226 23.372 133.663-78.178 147.777-130.86 6.513-24.321 9.369-42.738 10.155-54.613.896-13.452-8.344-9.547-26.013-6.451Zm-175.289 43.582s13.749-21.384 37.068-14.756c23.334 6.628 25.141 32.425 25.141 32.425l-62.209-17.669Zm56.923 95.957c-41.017-12.015-47.343-44.723-47.343-44.723l110.185 30.806c0-.005-22.241 25.782-62.842 13.917Zm38.957-67.218s13.73-21.369 37.045-14.722c23.314 6.638 25.15 32.435 25.15 32.435l-62.195-17.713Z"
      fill="#2EAD33"
    />
    <path
      d="m139.88 246.04-40.548 11.492s4.405-25.092 34.275-35.036l-22.96-86.166-1.984.603c-28.471 7.678-51.489 5.641-61.093 3.978-13.615-2.348-20.736-5.339-20.07 5.018.58 9.134 2.756 23.295 7.74 42 10.782 40.504 46.418 118.552 113.765 100.413l1.984-.623-11.109-41.679Zm-78.795-57.555 47.861-12.609s-1.395 18.412-19.337 23.142c-17.947 4.725-28.524-10.533-28.524-10.533Z"
      fill="#D65348"
    />
    <path
      d="m225.27 269.163-1.855-.451c-41.017-12.014-47.343-44.722-47.343-44.722l56.818 15.882 30.081-115.591-.364-.096c-36.896-9.881-61.375-27.163-71.075-35.286-13.749-11.516-19.797-19.519-25.749-7.413-5.257 10.677-11.986 28.054-18.499 52.38-14.113 52.677-24.661 163.84 62.583 187.231l1.788.403 13.615-52.337Zm-58.773-96.407s13.749-21.384 37.068-14.756c23.334 6.628 25.141 32.425 25.141 32.425l-62.209-17.669Z"
      fill="#1D8D22"
    />
    <path
      d="m141.946 245.451-10.874 3.086c2.569 14.482 7.097 28.38 14.204 40.658 1.237-.273 2.464-.508 3.724-.853 3.302-.891 6.364-1.994 9.312-3.197-7.941-11.784-13.194-25.356-16.366-39.694Zm-4.246-102c-5.588 20.856-10.587 50.875-9.211 80.985 2.463-1.069 5.065-2.065 7.955-2.885l2.013-.45c-2.454-32.162 2.851-64.936 8.827-87.235a435.638 435.638 0 0 1 4.548-15.781 141.16 141.16 0 0 1-8.056 4.782 413.232 413.232 0 0 0-6.076 20.584Z"
      fill="#C04B41"
    />
  </symbol>
  <symbol id="redux" viewBox="0 0 79 75">
    <path
      fill="#764abc"
      d="M72.05 39.7c-7.6-8.9-18.8-13.8-31.6-13.8h-1.6c-.9-1.8-2.8-3-4.9-3h-.2c-3.1.1-5.5 2.7-5.4 5.8.1 3 2.6 5.4 5.6 5.4h.2c2.2-.1 4.1-1.5 4.9-3.4h1.8c7.6 0 14.8 2.2 21.3 6.5 5 3.3 8.6 7.6 10.6 12.8 1.7 4.2 1.6 8.3-.2 11.8-2.8 5.3-7.5 8.2-13.7 8.2-4 0-7.8-1.2-9.8-2.1-1.1 1-3.1 2.6-4.5 3.6 4.3 2 8.7 3.1 12.9 3.1 9.6 0 16.7-5.3 19.4-10.6 2.9-5.8 2.7-15.8-4.8-24.3Zm-17.6 12.4c2.9-.3 5.1-2.8 5-5.8-.1-3-2.6-5.4-5.6-5.4h-.2c-3.1.1-5.5 2.7-5.4 5.8.1 1.5.7 2.8 1.6 3.7-3.4 6.7-8.6 11.6-16.4 15.7-5.3 2.8-10.8 3.8-16.3 3.1-4.5-.6-8-2.6-10.2-5.9-3.2-4.9-3.5-10.2-.8-15.5 1.9-3.8 4.9-6.6 6.8-8-.4-1.3-1-3.5-1.3-5.1-14.5 10.5-13 24.7-8.6 31.4 3.3 5 10 8.1 17.4 8.1 2 0 4-.2 6-.7 12.8-2.5 22.5-10.1 28-21.4Zm-33.2 1.7c.1 3 2.6 5.4 5.6 5.4h.2c3.1-.1 5.5-2.7 5.4-5.8-.1-3-2.6-5.4-5.6-5.4h-.2c-.2 0-.5 0-.7.1-4.1-6.8-5.8-14.2-5.2-22.2.4-6 2.4-11.2 5.9-15.5 2.9-3.7 8.5-5.5 12.3-5.6 10.6-.2 15.1 13 15.4 18.3 1.3.3 3.5 1 5 1.5C58.15 8.4 48.15 0 38.55 0c-9 0-17.3 6.5-20.6 16.1-4.6 12.8-1.6 25.1 4 34.8-.5.7-.8 1.8-.7 2.9Z"
    />
  </symbol>
  <symbol id="sass" viewBox="0 0 512 384">
    <path
      d="M440.6 220.6c-17.9.1-33.4 4.4-46.4 10.8-4.8-9.5-9.6-17.8-10.4-24-.9-7.2-2-11.6-.9-20.2s6.1-20.8 6.1-21.8c-.1-.9-1.1-5.3-11.4-5.4-10.3-.1-19.2 2-20.2 4.7s-3 8.9-4.3 15.3c-1.8 9.4-20.6 42.7-31.3 60.2-3.5-6.8-6.5-12.8-7.1-17.6-.9-7.2-2-11.6-.9-20.2s6.1-20.8 6.1-21.8c-.1-.9-1.1-5.3-11.4-5.4-10.3-.1-19.2 2-20.2 4.7s-2.1 9.1-4.3 15.3c-2.1 6.2-27.1 61.8-33.6 76.3-3.3 7.4-6.2 13.3-8.3 17.3s-.1.3-.3.7c-1.8 3.4-2.8 5.3-2.8 5.3v.1c-1.4 2.5-2.9 4.9-3.6 4.9-.5 0-1.5-6.7.2-15.9 3.7-19.3 12.7-49.4 12.6-50.5 0-.5 1.7-5.8-5.8-8.5-7.3-2.7-9.9 1.8-10.5 1.8-.6 0-1.1 1.6-1.1 1.6s8.1-33.9-15.5-33.9c-14.8 0-35.2 16.1-45.3 30.8-6.4 3.5-20 10.9-34.4 18.8-5.5 3-11.2 6.2-16.6 9.1l-1.1-1.2c-28.6-30.5-81.5-52.1-79.3-93.1.8-14.9 6-54.2 101.6-101.8 78.3-39 141-28.3 151.9-4.5 15.5 34-33.5 97.2-114.9 106.3-31 3.5-47.3-8.5-51.4-13-4.3-4.7-4.9-4.9-6.5-4-2.6 1.4-1 5.6 0 8.1 2.4 6.3 12.4 17.5 29.4 23.1 14.9 4.9 51.3 7.6 95.3-9.4 49.3-19.1 87.8-72.1 76.5-116.4-11.5-45.1-86.3-59.9-157-34.8-42.1 15-87.7 38.4-120.5 69.1C4 117.9-2.2 149.7.4 162.9c9.1 47.1 74 77.8 100 100.5-1.3.7-2.5 1.4-3.6 2-13 6.4-62.5 32.3-74.9 59.7-14 31 2.2 53.3 13 56.3 33.4 9.3 67.6-7.4 86.1-34.9 18.4-27.5 16.2-63.2 7.7-79.5l-.3-.6 10.2-6c6.6-3.9 13.1-7.5 18.8-10.6-3.2 8.7-5.5 19-6.7 34-1.4 17.6 5.8 40.4 15.3 49.4 4.2 3.9 9.2 4 12.3 4 11 0 16-9.1 21.5-20 6.8-13.3 12.8-28.7 12.8-28.7s-7.5 41.7 13 41.7c7.5 0 15-9.7 18.4-14.7v.1s.2-.3.6-1c.8-1.2 1.2-1.9 1.2-1.9v-.2c3-5.2 9.7-17.1 19.7-36.8 12.9-25.4 25.3-57.2 25.3-57.2s1.2 7.8 4.9 20.6c2.2 7.6 7 15.9 10.7 24-3 4.2-4.8 6.6-4.8 6.6l.1.1c-2.4 3.2-5.1 6.6-7.9 10-10.2 12.2-22.4 26.1-24 30.1-1.9 4.7-1.5 8.2 2.2 11 2.7 2 7.5 2.4 12.6 2 9.2-.6 15.6-2.9 18.8-4.3 5-1.8 10.7-4.5 16.2-8.5 10-7.4 16.1-17.9 15.5-31.9-.3-7.7-2.8-15.3-5.9-22.5.9-1.3 1.8-2.6 2.7-4 15.8-23.1 28-48.5 28-48.5s1.2 7.8 4.9 20.6c1.9 6.5 5.7 13.6 9.1 20.6-14.8 12.1-24.1 26.1-27.3 35.3-5.9 17-1.3 24.7 7.4 26.5 3.9.8 9.5-1 13.7-2.8 5.2-1.7 11.5-4.6 17.3-8.9 10-7.4 19.6-17.7 19.1-31.6-.3-6.4-2-12.7-4.3-18.7 12.6-5.2 28.9-8.2 49.6-5.7 44.5 5.2 53.3 33 51.6 44.6-1.7 11.6-11 18-14.1 20-3.1 1.9-4.1 2.6-3.8 4 .4 2.1 1.8 2 4.5 1.6 3.7-.6 23.4-9.5 24.2-30.9 1.2-27.5-24.9-57.5-71.2-57.2zM97.4 336.3c-14.7 16.1-35.4 22.2-44.2 17-9.5-5.5-5.8-29.2 12.3-46.3 11-10.4 25.3-20 34.7-25.9 2.1-1.3 5.3-3.2 9.1-5.5.6-.4 1-.6 1-.6.7-.4 1.5-.9 2.3-1.4 6.7 24.4.3 45.8-15.2 62.7zm107.5-73.1c-5.1 12.5-15.9 44.6-22.4 42.8-5.6-1.5-9-25.8-1.1-49.8 4-12.1 12.5-26.5 17.5-32.1 8.1-9 16.9-12 19.1-8.3 2.6 4.8-9.9 39.6-13.1 47.4zm88.7 42.4c-2.2 1.1-4.2 1.9-5.1 1.3-.7-.4.9-1.9.9-1.9s11.1-11.9 15.5-17.4c2.5-3.2 5.5-6.9 8.7-11.1v1.2c0 14.4-13.8 24-20 27.9zM362 290c-1.6-1.2-1.4-4.9 4-16.5 2.1-4.6 6.9-12.3 15.2-19.6 1 3 1.6 5.9 1.5 8.6-.1 18-12.9 24.7-20.7 27.5z"
      fill="#CF649A"
    />
  </symbol>
  <symbol id="storybook" viewBox="0 0 33 40">
    <path
      d="M1.241 36.859.001 3.842a2.012 2.012 0 0 1 1.885-2.083L29.969.004a2.01 2.01 0 0 1 2.136 2.007v35.978a2.01 2.01 0 0 1-2.101 2.009L3.16 38.792a2.01 2.01 0 0 1-1.919-1.933Z"
      fill="#ff4785"
    />
    <path
      d="m23.707 4.917.192-4.614L27.756 0l.166 4.758a.3.3 0 0 1-.485.246l-1.488-1.172-1.761 1.336a.3.3 0 0 1-.481-.251ZM18.775 15.077c0 .782 5.27.407 5.978-.143 0-5.328-2.859-8.128-8.094-8.128-5.236 0-8.169 2.844-8.169 7.109 0 7.428 10.025 7.571 10.025 11.622 0 1.138-.557 1.813-1.782 1.813-1.597 0-2.228-.815-2.154-3.588 0-.601-6.089-.788-6.274 0-.473 6.719 3.713 8.657 8.502 8.657 4.641 0 8.28-2.474 8.28-6.953 0-7.961-10.173-7.748-10.173-11.693 0-1.6 1.188-1.813 1.893-1.813.743 0 2.079.131 1.968 3.117Z"
      fill="#fff"
    />
  </symbol>
  <symbol id="styled-components" viewBox="0 0 228 100">
    <path
      d="M41.4 28.2 5.2 50.7l36.2 22.9-3.7 4.6L0 54.6v-7.9l38.1-23.6m189.3 22.7v7.8l-37.7 23.6-3.7-4.9 36.1-22.6L186 27l3.2-4.9"
      fill="#4a4a4a"
    />
    <text
      font-family="'AppleColorEmoji','Apple Color Emoji'"
      font-size="100"
      transform="translate(69.6 85)"
    >
      
    </text>
  </symbol>
  <symbol id="three" fill="none" stroke="#000" stroke-width="4" viewBox="0 0 226.77 226.77">
    <path
      d="M71.984 204.863 28.771 29.923l173.23 49.874z"
    />
    <path
      d="m115.354 54.865 21.591 87.496-86.567-24.945z"
    />
    <path
      d="M93.874 129.283 83.15 85.818l43.008 12.346zM72.422 42.406 83.146 85.87 40.138 73.525zM158.434 67.183l10.724 43.465-43.008-12.346zM93.879 129.313l10.724 43.465-43.008-12.346z"
    />
  </symbol>
  <symbol id="webpack" viewBox="0 0 774 875.7">
    <path
      d="m387 0 387 218.9v437.9L387 875.7 0 656.8V218.9z"
      fill="#fff"
    />
    <path
      d="M704.9 641.7 399.8 814.3V679.9l190.1-104.6 115 66.4zm20.9-18.9V261.9l-111.6 64.5v232l111.6 64.4zM67.9 641.7 373 814.3V679.9L182.8 575.3 67.9 641.7zM47 622.8V261.9l111.6 64.5v232L47 622.8zm13.1-384.3L373 61.5v129.9L172.5 301.7l-1.6.9-110.8-64.1zm652.6 0-312.9-177v129.9l200.5 110.2 1.6.9 110.8-64z"
      fill="#8ed6fb"
    />
    <path
      d="M373 649.3 185.4 546.1V341.8L373 450.1v199.2zm26.8 0 187.6-103.1V341.8L399.8 450.1v199.2zm-13.4-207zM198.1 318.2l188.3-103.5 188.3 103.5-188.3 108.7-188.3-108.7z"
      fill="#1c78c0"
    />
  </symbol>
  <symbol id="web-components" viewBox="0 0 161 132">
    <path
      d="m160.6 65.9-17.4 29.3-24.4-29.7 24.4-28.9z"
      fill="#166DA5"
    />
    <path
      fill="#8FDB69"
      d="m141.3 100.2-26.5-31.7-15.9 26.6 24.7 36.1z"
    />
    <path
      fill="#166DA5"
      d="m141 31.4-26.2 31.8-15.9-26.6L123.6.9z"
    />
    <path
      d="M61.1 31.4H141L123.4.7H78.7zm53.7 31.9H159l-15.9-26.8H98.8"
      fill="url(#g)"
      opacity=".95"
    />
    <path
      d="M141.3 100.3H61l17.6 30.5h45zm-26.5-31.9H159l-15.9 26.8H98.8"
      fill="url(#h)"
      opacity=".95"
    />
    <path
      d="M78.6 130.8 41 65.8 79.1.8H37.9L.4 65.8l37.5 65z"
      fill="#010101"
    />
    <linearGradient id="g" x1="0%" y1="50%" y2="50%">
      <stop
        offset="0%"
        stop-color="#2A3B8F"
      />
      <stop
        offset="100%"
        stop-color="#29ABE2"
      />
    </linearGradient>
    <linearGradient id="h" x1="100%" x2="0%" y1="50%" y2="50%">
      <stop
        offset="0%"
        stop-color="#B4D44E"
      />
      <stop
        offset="100%"
        stop-color="#E7F716"
      />
    </linearGradient>
  </symbol>
</svg>